<svg xmlns="http://www.w3.org/2000/svg" xmlns:xlink="http://www.w3.org/1999/xlink" width="500" zoomAndPan="magnify" viewBox="0 0 375 374.999991" height="500" preserveAspectRatio="xMidYMid meet" version="1.0"><defs><g/></defs><rect x="-37.5" width="450" fill="#ffffff" y="-37.499999" height="449.999989" fill-opacity="1"/><rect x="-37.5" width="450" fill="#ffffff" y="-37.499999" height="449.999989" fill-opacity="1"/><g fill="#66bc46" fill-opacity="1"><g transform="translate(62.135238, 193.366639)"><g><path d="M 2.890625 0.109375 C 2.679688 0.109375 2.503906 0.0351562 2.359375 -0.109375 C 2.210938 -0.265625 2.140625 -0.476562 2.140625 -0.75 L 2.140625 -14.15625 C 2.140625 -14.425781 2.210938 -14.632812 2.359375 -14.78125 C 2.503906 -14.925781 2.679688 -15 2.890625 -15 L 10.5 -15 C 10.71875 -15 10.894531 -14.925781 11.03125 -14.78125 C 11.175781 -14.644531 11.25 -14.46875 11.25 -14.25 C 11.25 -14.039062 11.175781 -13.863281 11.03125 -13.71875 C 10.894531 -13.570312 10.71875 -13.5 10.5 -13.5 L 3.75 -13.5 L 3.75 -7.71875 L 8.46875 -7.71875 C 8.6875 -7.71875 8.863281 -7.644531 9 -7.5 C 9.144531 -7.351562 9.21875 -7.175781 9.21875 -6.96875 C 9.21875 -6.75 9.144531 -6.566406 9 -6.421875 C 8.863281 -6.285156 8.6875 -6.21875 8.46875 -6.21875 L 3.75 -6.21875 L 3.75 -0.75 C 3.75 -0.175781 3.460938 0.109375 2.890625 0.109375 Z M 2.890625 0.109375 "/></g></g></g><g fill="#66bc46" fill-opacity="1"><g transform="translate(73.982868, 193.366639)"><g><path d="M 2.890625 0.109375 C 2.679688 0.109375 2.503906 0.0351562 2.359375 -0.109375 C 2.210938 -0.265625 2.140625 -0.476562 2.140625 -0.75 L 2.140625 -14.25 C 2.140625 -14.519531 2.210938 -14.726562 2.359375 -14.875 C 2.503906 -15.03125 2.679688 -15.109375 2.890625 -15.109375 C 3.460938 -15.109375 3.75 -14.820312 3.75 -14.25 L 3.75 -0.75 C 3.75 -0.175781 3.460938 0.109375 2.890625 0.109375 Z M 2.890625 0.109375 "/></g></g></g><g fill="#66bc46" fill-opacity="1"><g transform="translate(80.474653, 193.366639)"><g><path d="M 2.890625 0.109375 C 2.679688 0.109375 2.503906 0.0351562 2.359375 -0.109375 C 2.210938 -0.265625 2.140625 -0.476562 2.140625 -0.75 L 2.140625 -14.25 C 2.140625 -14.519531 2.210938 -14.726562 2.359375 -14.875 C 2.503906 -15.03125 2.679688 -15.109375 2.890625 -15.109375 C 3.160156 -15.109375 3.375 -15.035156 3.53125 -14.890625 C 3.6875 -14.753906 3.832031 -14.578125 3.96875 -14.359375 L 10.390625 -3.53125 L 10.5 -3.53125 L 10.5 -14.25 C 10.5 -14.519531 10.570312 -14.726562 10.71875 -14.875 C 10.863281 -15.03125 11.039062 -15.109375 11.25 -15.109375 C 11.820312 -15.109375 12.109375 -14.820312 12.109375 -14.25 L 12.109375 -0.75 C 12.109375 -0.476562 12.035156 -0.265625 11.890625 -0.109375 C 11.753906 0.0351562 11.578125 0.109375 11.359375 0.109375 C 11.085938 0.109375 10.875 0.0351562 10.71875 -0.109375 C 10.5625 -0.253906 10.421875 -0.429688 10.296875 -0.640625 L 3.859375 -11.46875 L 3.75 -11.46875 L 3.75 -0.75 C 3.75 -0.175781 3.460938 0.109375 2.890625 0.109375 Z M 2.890625 0.109375 "/></g></g></g><g fill="#66bc46" fill-opacity="1"><g transform="translate(95.321571, 193.366639)"><g><path d="M 2.890625 0 C 2.679688 0 2.503906 -0.0703125 2.359375 -0.21875 C 2.210938 -0.375 2.140625 -0.585938 2.140625 -0.859375 L 2.140625 -14.15625 C 2.140625 -14.425781 2.210938 -14.632812 2.359375 -14.78125 C 2.503906 -14.925781 2.679688 -15 2.890625 -15 L 6.859375 -15 C 7.597656 -15 8.285156 -14.867188 8.921875 -14.609375 C 9.554688 -14.347656 10.097656 -13.957031 10.546875 -13.4375 C 11.003906 -12.925781 11.359375 -12.285156 11.609375 -11.515625 C 11.867188 -10.753906 12 -9.878906 12 -8.890625 L 12 -6.109375 C 12 -5.117188 11.867188 -4.242188 11.609375 -3.484375 C 11.359375 -2.722656 11.003906 -2.082031 10.546875 -1.5625 C 10.097656 -1.050781 9.554688 -0.660156 8.921875 -0.390625 C 8.285156 -0.128906 7.597656 0 6.859375 0 Z M 6.859375 -1.5 C 7.367188 -1.5 7.835938 -1.59375 8.265625 -1.78125 C 8.703125 -1.96875 9.078125 -2.253906 9.390625 -2.640625 C 9.703125 -3.023438 9.945312 -3.503906 10.125 -4.078125 C 10.300781 -4.660156 10.390625 -5.335938 10.390625 -6.109375 L 10.390625 -8.890625 C 10.390625 -9.660156 10.300781 -10.335938 10.125 -10.921875 C 9.945312 -11.503906 9.703125 -11.988281 9.390625 -12.375 C 9.078125 -12.757812 8.703125 -13.039062 8.265625 -13.21875 C 7.835938 -13.40625 7.367188 -13.5 6.859375 -13.5 L 3.75 -13.5 L 3.75 -1.5 Z M 6.859375 -1.5 "/></g></g></g><g fill="#66bc46" fill-opacity="1"><g transform="translate(109.311556, 193.366639)"><g/></g></g><g fill="#66bc46" fill-opacity="1"><g transform="translate(113.768129, 193.366639)"><g><path d="M 0.96875 0.109375 C 0.75 0.109375 0.566406 0.0351562 0.421875 -0.109375 C 0.285156 -0.265625 0.21875 -0.476562 0.21875 -0.75 C 0.21875 -0.863281 0.242188 -0.988281 0.296875 -1.125 C 0.359375 -1.257812 0.398438 -1.382812 0.421875 -1.5 L 4.828125 -14.578125 C 4.898438 -14.796875 5.03125 -14.992188 5.21875 -15.171875 C 5.414062 -15.347656 5.675781 -15.4375 6 -15.4375 C 6.332031 -15.4375 6.59375 -15.347656 6.78125 -15.171875 C 6.976562 -14.992188 7.113281 -14.796875 7.1875 -14.578125 L 11.578125 -1.5 C 11.609375 -1.382812 11.648438 -1.257812 11.703125 -1.125 C 11.765625 -0.988281 11.796875 -0.863281 11.796875 -0.75 C 11.796875 -0.476562 11.722656 -0.265625 11.578125 -0.109375 C 11.429688 0.0351562 11.253906 0.109375 11.046875 0.109375 C 10.878906 0.109375 10.742188 0.078125 10.640625 0.015625 C 10.546875 -0.0351562 10.46875 -0.101562 10.40625 -0.1875 C 10.34375 -0.28125 10.296875 -0.375 10.265625 -0.46875 C 10.234375 -0.570312 10.207031 -0.664062 10.1875 -0.75 L 9 -4.28125 L 3 -4.28125 L 1.828125 -0.75 C 1.796875 -0.664062 1.765625 -0.570312 1.734375 -0.46875 C 1.703125 -0.375 1.65625 -0.28125 1.59375 -0.1875 C 1.53125 -0.101562 1.445312 -0.0351562 1.34375 0.015625 C 1.25 0.078125 1.125 0.109375 0.96875 0.109375 Z M 8.46875 -5.78125 L 6.046875 -13.296875 L 5.953125 -13.296875 L 3.53125 -5.78125 Z M 8.46875 -5.78125 "/></g></g></g><g fill="#66bc46" fill-opacity="1"><g transform="translate(126.365583, 193.366639)"><g/></g></g><g fill="#66bc46" fill-opacity="1"><g transform="translate(130.822156, 193.366639)"><g><path d="M 2.890625 0.109375 C 2.679688 0.109375 2.503906 0.0351562 2.359375 -0.109375 C 2.210938 -0.265625 2.140625 -0.476562 2.140625 -0.75 L 2.140625 -14.15625 C 2.140625 -14.425781 2.210938 -14.632812 2.359375 -14.78125 C 2.503906 -14.925781 2.679688 -15 2.890625 -15 L 6.53125 -15 C 7.332031 -15 8.050781 -14.878906 8.6875 -14.640625 C 9.320312 -14.410156 9.859375 -14.082031 10.296875 -13.65625 C 10.742188 -13.226562 11.085938 -12.707031 11.328125 -12.09375 C 11.566406 -11.488281 11.6875 -10.816406 11.6875 -10.078125 C 11.6875 -9.316406 11.566406 -8.632812 11.328125 -8.03125 C 11.085938 -7.425781 10.742188 -6.90625 10.296875 -6.46875 C 9.859375 -6.039062 9.320312 -5.710938 8.6875 -5.484375 C 8.050781 -5.253906 7.332031 -5.140625 6.53125 -5.140625 L 3.75 -5.140625 L 3.75 -0.75 C 3.75 -0.175781 3.460938 0.109375 2.890625 0.109375 Z M 6.53125 -6.640625 C 7.664062 -6.640625 8.539062 -6.941406 9.15625 -7.546875 C 9.769531 -8.160156 10.078125 -9.003906 10.078125 -10.078125 C 10.078125 -11.148438 9.769531 -11.988281 9.15625 -12.59375 C 8.539062 -13.195312 7.664062 -13.5 6.53125 -13.5 L 3.75 -13.5 L 3.75 -6.640625 Z M 6.53125 -6.640625 "/></g></g></g><g fill="#66bc46" fill-opacity="1"><g transform="translate(143.740951, 193.366639)"><g><path d="M 2.890625 0.109375 C 2.679688 0.109375 2.503906 0.0351562 2.359375 -0.109375 C 2.210938 -0.265625 2.140625 -0.476562 2.140625 -0.75 L 2.140625 -14.15625 C 2.140625 -14.425781 2.210938 -14.632812 2.359375 -14.78125 C 2.503906 -14.925781 2.679688 -15 2.890625 -15 L 7.078125 -15 C 8.535156 -15 9.664062 -14.601562 10.46875 -13.8125 C 11.28125 -13.019531 11.6875 -11.953125 11.6875 -10.609375 C 11.6875 -9.765625 11.539062 -9.082031 11.25 -8.5625 C 10.96875 -8.039062 10.660156 -7.628906 10.328125 -7.328125 C 9.941406 -6.972656 9.5 -6.707031 9 -6.53125 L 9 -6.4375 L 11.6875 -1.921875 C 11.820312 -1.679688 11.941406 -1.476562 12.046875 -1.3125 C 12.160156 -1.15625 12.21875 -0.96875 12.21875 -0.75 C 12.21875 -0.476562 12.144531 -0.265625 12 -0.109375 C 11.863281 0.0351562 11.6875 0.109375 11.46875 0.109375 C 11.132812 0.109375 10.894531 0.00390625 10.75 -0.203125 C 10.613281 -0.410156 10.492188 -0.59375 10.390625 -0.75 L 7.1875 -6.21875 L 3.75 -6.21875 L 3.75 -0.75 C 3.75 -0.175781 3.460938 0.109375 2.890625 0.109375 Z M 7.078125 -7.71875 C 8.046875 -7.71875 8.785156 -7.96875 9.296875 -8.46875 C 9.816406 -8.976562 10.078125 -9.691406 10.078125 -10.609375 C 10.078125 -11.523438 9.816406 -12.234375 9.296875 -12.734375 C 8.785156 -13.242188 8.046875 -13.5 7.078125 -13.5 L 3.75 -13.5 L 3.75 -7.71875 Z M 7.078125 -7.71875 "/></g></g></g><g fill="#66bc46" fill-opacity="1"><g transform="translate(156.981114, 193.366639)"><g><path d="M 6.53125 0.421875 C 5.78125 0.421875 5.085938 0.289062 4.453125 0.03125 C 3.828125 -0.226562 3.289062 -0.613281 2.84375 -1.125 C 2.394531 -1.644531 2.039062 -2.285156 1.78125 -3.046875 C 1.519531 -3.816406 1.390625 -4.695312 1.390625 -5.6875 L 1.390625 -9.328125 C 1.390625 -10.304688 1.519531 -11.175781 1.78125 -11.9375 C 2.039062 -12.707031 2.394531 -13.347656 2.84375 -13.859375 C 3.289062 -14.378906 3.828125 -14.769531 4.453125 -15.03125 C 5.085938 -15.300781 5.78125 -15.4375 6.53125 -15.4375 C 7.28125 -15.4375 7.972656 -15.300781 8.609375 -15.03125 C 9.242188 -14.769531 9.785156 -14.378906 10.234375 -13.859375 C 10.679688 -13.347656 11.035156 -12.707031 11.296875 -11.9375 C 11.554688 -11.175781 11.6875 -10.304688 11.6875 -9.328125 L 11.6875 -5.6875 C 11.6875 -4.695312 11.554688 -3.816406 11.296875 -3.046875 C 11.035156 -2.285156 10.679688 -1.644531 10.234375 -1.125 C 9.785156 -0.613281 9.242188 -0.226562 8.609375 0.03125 C 7.972656 0.289062 7.28125 0.421875 6.53125 0.421875 Z M 6.53125 -1.078125 C 7.050781 -1.078125 7.523438 -1.164062 7.953125 -1.34375 C 8.378906 -1.53125 8.75 -1.816406 9.0625 -2.203125 C 9.382812 -2.585938 9.632812 -3.066406 9.8125 -3.640625 C 9.988281 -4.222656 10.078125 -4.90625 10.078125 -5.6875 L 10.078125 -9.328125 C 10.078125 -10.097656 9.988281 -10.769531 9.8125 -11.34375 C 9.632812 -11.925781 9.382812 -12.410156 9.0625 -12.796875 C 8.75 -13.179688 8.378906 -13.46875 7.953125 -13.65625 C 7.523438 -13.84375 7.050781 -13.9375 6.53125 -13.9375 C 6.019531 -13.9375 5.550781 -13.84375 5.125 -13.65625 C 4.695312 -13.46875 4.320312 -13.179688 4 -12.796875 C 3.6875 -12.410156 3.441406 -11.925781 3.265625 -11.34375 C 3.085938 -10.769531 3 -10.097656 3 -9.328125 L 3 -5.6875 C 3 -4.90625 3.085938 -4.222656 3.265625 -3.640625 C 3.441406 -3.066406 3.6875 -2.585938 4 -2.203125 C 4.320312 -1.816406 4.695312 -1.53125 5.125 -1.34375 C 5.550781 -1.164062 6.019531 -1.078125 6.53125 -1.078125 Z M 6.53125 -1.078125 "/></g></g></g><g fill="#66bc46" fill-opacity="1"><g transform="translate(170.649725, 193.366639)"><g/></g></g><g fill="#66bc46" fill-opacity="1"><g transform="translate(175.106292, 193.366639)"><g><path d="M 2.890625 0.109375 C 2.679688 0.109375 2.503906 0.0351562 2.359375 -0.109375 C 2.210938 -0.265625 2.140625 -0.476562 2.140625 -0.75 L 2.140625 -14.25 C 2.140625 -14.519531 2.210938 -14.726562 2.359375 -14.875 C 2.503906 -15.03125 2.679688 -15.109375 2.890625 -15.109375 C 3.460938 -15.109375 3.75 -14.820312 3.75 -14.25 L 3.75 -0.75 C 3.75 -0.175781 3.460938 0.109375 2.890625 0.109375 Z M 2.890625 0.109375 "/></g></g></g><g fill="#66bc46" fill-opacity="1"><g transform="translate(181.598072, 193.366639)"><g><path d="M 2.890625 0.109375 C 2.679688 0.109375 2.503906 0.0351562 2.359375 -0.109375 C 2.210938 -0.265625 2.140625 -0.476562 2.140625 -0.75 L 2.140625 -14.25 C 2.140625 -14.519531 2.210938 -14.726562 2.359375 -14.875 C 2.503906 -15.03125 2.679688 -15.109375 2.890625 -15.109375 C 3.160156 -15.109375 3.375 -15.035156 3.53125 -14.890625 C 3.6875 -14.753906 3.832031 -14.578125 3.96875 -14.359375 L 10.390625 -3.53125 L 10.5 -3.53125 L 10.5 -14.25 C 10.5 -14.519531 10.570312 -14.726562 10.71875 -14.875 C 10.863281 -15.03125 11.039062 -15.109375 11.25 -15.109375 C 11.820312 -15.109375 12.109375 -14.820312 12.109375 -14.25 L 12.109375 -0.75 C 12.109375 -0.476562 12.035156 -0.265625 11.890625 -0.109375 C 11.753906 0.0351562 11.578125 0.109375 11.359375 0.109375 C 11.085938 0.109375 10.875 0.0351562 10.71875 -0.109375 C 10.5625 -0.253906 10.421875 -0.429688 10.296875 -0.640625 L 3.859375 -11.46875 L 3.75 -11.46875 L 3.75 -0.75 C 3.75 -0.175781 3.460938 0.109375 2.890625 0.109375 Z M 2.890625 0.109375 "/></g></g></g><g fill="#66bc46" fill-opacity="1"><g transform="translate(196.46477, 193.366639)"><g/></g></g><g fill="#66bc46" fill-opacity="1"><g transform="translate(200.921342, 193.366639)"><g/></g></g><g fill="#66bc46" fill-opacity="1"><g transform="translate(205.395628, 193.366639)"><g><path d="M 5.359375 0.109375 C 5.140625 0.109375 4.957031 0.0351562 4.8125 -0.109375 C 4.675781 -0.265625 4.609375 -0.476562 4.609375 -0.75 L 4.609375 -5.78125 L 0.421875 -13.296875 C 0.296875 -13.523438 0.191406 -13.703125 0.109375 -13.828125 C 0.0351562 -13.953125 0 -14.09375 0 -14.25 C 0 -14.519531 0.0664062 -14.726562 0.203125 -14.875 C 0.347656 -15.03125 0.53125 -15.109375 0.75 -15.109375 C 0.96875 -15.109375 1.144531 -15.054688 1.28125 -14.953125 C 1.414062 -14.859375 1.523438 -14.734375 1.609375 -14.578125 L 5.359375 -7.71875 L 5.46875 -7.71875 L 9.21875 -14.578125 C 9.300781 -14.734375 9.410156 -14.859375 9.546875 -14.953125 C 9.679688 -15.054688 9.859375 -15.109375 10.078125 -15.109375 C 10.285156 -15.109375 10.460938 -15.03125 10.609375 -14.875 C 10.753906 -14.726562 10.828125 -14.519531 10.828125 -14.25 C 10.828125 -14.09375 10.785156 -13.953125 10.703125 -13.828125 C 10.628906 -13.703125 10.523438 -13.523438 10.390625 -13.296875 L 6.21875 -5.78125 L 6.21875 -0.75 C 6.21875 -0.175781 5.929688 0.109375 5.359375 0.109375 Z M 5.359375 0.109375 "/></g></g></g><g fill="#66bc46" fill-opacity="1"><g transform="translate(216.814803, 193.366639)"><g><path d="M 6.53125 0.421875 C 5.78125 0.421875 5.085938 0.289062 4.453125 0.03125 C 3.828125 -0.226562 3.289062 -0.613281 2.84375 -1.125 C 2.394531 -1.644531 2.039062 -2.285156 1.78125 -3.046875 C 1.519531 -3.816406 1.390625 -4.695312 1.390625 -5.6875 L 1.390625 -9.328125 C 1.390625 -10.304688 1.519531 -11.175781 1.78125 -11.9375 C 2.039062 -12.707031 2.394531 -13.347656 2.84375 -13.859375 C 3.289062 -14.378906 3.828125 -14.769531 4.453125 -15.03125 C 5.085938 -15.300781 5.78125 -15.4375 6.53125 -15.4375 C 7.28125 -15.4375 7.972656 -15.300781 8.609375 -15.03125 C 9.242188 -14.769531 9.785156 -14.378906 10.234375 -13.859375 C 10.679688 -13.347656 11.035156 -12.707031 11.296875 -11.9375 C 11.554688 -11.175781 11.6875 -10.304688 11.6875 -9.328125 L 11.6875 -5.6875 C 11.6875 -4.695312 11.554688 -3.816406 11.296875 -3.046875 C 11.035156 -2.285156 10.679688 -1.644531 10.234375 -1.125 C 9.785156 -0.613281 9.242188 -0.226562 8.609375 0.03125 C 7.972656 0.289062 7.28125 0.421875 6.53125 0.421875 Z M 6.53125 -1.078125 C 7.050781 -1.078125 7.523438 -1.164062 7.953125 -1.34375 C 8.378906 -1.53125 8.75 -1.816406 9.0625 -2.203125 C 9.382812 -2.585938 9.632812 -3.066406 9.8125 -3.640625 C 9.988281 -4.222656 10.078125 -4.90625 10.078125 -5.6875 L 10.078125 -9.328125 C 10.078125 -10.097656 9.988281 -10.769531 9.8125 -11.34375 C 9.632812 -11.925781 9.382812 -12.410156 9.0625 -12.796875 C 8.75 -13.179688 8.378906 -13.46875 7.953125 -13.65625 C 7.523438 -13.84375 7.050781 -13.9375 6.53125 -13.9375 C 6.019531 -13.9375 5.550781 -13.84375 5.125 -13.65625 C 4.695312 -13.46875 4.320312 -13.179688 4 -12.796875 C 3.6875 -12.410156 3.441406 -11.925781 3.265625 -11.34375 C 3.085938 -10.769531 3 -10.097656 3 -9.328125 L 3 -5.6875 C 3 -4.90625 3.085938 -4.222656 3.265625 -3.640625 C 3.441406 -3.066406 3.6875 -2.585938 4 -2.203125 C 4.320312 -1.816406 4.695312 -1.53125 5.125 -1.34375 C 5.550781 -1.164062 6.019531 -1.078125 6.53125 -1.078125 Z M 6.53125 -1.078125 "/></g></g></g><g fill="#66bc46" fill-opacity="1"><g transform="translate(230.483419, 193.366639)"><g><path d="M 6.859375 0.421875 C 6.128906 0.421875 5.460938 0.296875 4.859375 0.046875 C 4.265625 -0.203125 3.75 -0.578125 3.3125 -1.078125 C 2.875 -1.578125 2.53125 -2.191406 2.28125 -2.921875 C 2.039062 -3.648438 1.921875 -4.5 1.921875 -5.46875 L 1.921875 -14.25 C 1.921875 -14.519531 1.992188 -14.726562 2.140625 -14.875 C 2.285156 -15.03125 2.460938 -15.109375 2.671875 -15.109375 C 3.242188 -15.109375 3.53125 -14.820312 3.53125 -14.25 L 3.53125 -5.46875 C 3.53125 -3.96875 3.84375 -2.859375 4.46875 -2.140625 C 5.09375 -1.429688 5.890625 -1.078125 6.859375 -1.078125 C 7.347656 -1.078125 7.796875 -1.164062 8.203125 -1.34375 C 8.609375 -1.519531 8.957031 -1.785156 9.25 -2.140625 C 9.539062 -2.492188 9.769531 -2.945312 9.9375 -3.5 C 10.101562 -4.050781 10.1875 -4.707031 10.1875 -5.46875 L 10.1875 -14.25 C 10.1875 -14.820312 10.472656 -15.109375 11.046875 -15.109375 C 11.253906 -15.109375 11.429688 -15.03125 11.578125 -14.875 C 11.722656 -14.726562 11.796875 -14.519531 11.796875 -14.25 L 11.796875 -5.46875 C 11.796875 -4.5 11.671875 -3.648438 11.421875 -2.921875 C 11.179688 -2.191406 10.84375 -1.578125 10.40625 -1.078125 C 9.96875 -0.578125 9.445312 -0.203125 8.84375 0.046875 C 8.25 0.296875 7.585938 0.421875 6.859375 0.421875 Z M 6.859375 0.421875 "/></g></g></g><g fill="#66bc46" fill-opacity="1"><g transform="translate(244.794742, 193.366639)"><g><path d="M 2.890625 0.109375 C 2.679688 0.109375 2.503906 0.0351562 2.359375 -0.109375 C 2.210938 -0.265625 2.140625 -0.476562 2.140625 -0.75 L 2.140625 -14.15625 C 2.140625 -14.425781 2.210938 -14.632812 2.359375 -14.78125 C 2.503906 -14.925781 2.679688 -15 2.890625 -15 L 7.078125 -15 C 8.535156 -15 9.664062 -14.601562 10.46875 -13.8125 C 11.28125 -13.019531 11.6875 -11.953125 11.6875 -10.609375 C 11.6875 -9.765625 11.539062 -9.082031 11.25 -8.5625 C 10.96875 -8.039062 10.660156 -7.628906 10.328125 -7.328125 C 9.941406 -6.972656 9.5 -6.707031 9 -6.53125 L 9 -6.4375 L 11.6875 -1.921875 C 11.820312 -1.679688 11.941406 -1.476562 12.046875 -1.3125 C 12.160156 -1.15625 12.21875 -0.96875 12.21875 -0.75 C 12.21875 -0.476562 12.144531 -0.265625 12 -0.109375 C 11.863281 0.0351562 11.6875 0.109375 11.46875 0.109375 C 11.132812 0.109375 10.894531 0.00390625 10.75 -0.203125 C 10.613281 -0.410156 10.492188 -0.59375 10.390625 -0.75 L 7.1875 -6.21875 L 3.75 -6.21875 L 3.75 -0.75 C 3.75 -0.175781 3.460938 0.109375 2.890625 0.109375 Z M 7.078125 -7.71875 C 8.046875 -7.71875 8.785156 -7.96875 9.296875 -8.46875 C 9.816406 -8.976562 10.078125 -9.691406 10.078125 -10.609375 C 10.078125 -11.523438 9.816406 -12.234375 9.296875 -12.734375 C 8.785156 -13.242188 8.046875 -13.5 7.078125 -13.5 L 3.75 -13.5 L 3.75 -7.71875 Z M 7.078125 -7.71875 "/></g></g></g><g fill="#66bc46" fill-opacity="1"><g transform="translate(258.034904, 193.366639)"><g/></g></g><g fill="#66bc46" fill-opacity="1"><g transform="translate(262.491477, 193.366639)"><g><path d="M 0.96875 0.109375 C 0.75 0.109375 0.566406 0.0351562 0.421875 -0.109375 C 0.285156 -0.265625 0.21875 -0.476562 0.21875 -0.75 C 0.21875 -0.863281 0.242188 -0.988281 0.296875 -1.125 C 0.359375 -1.257812 0.398438 -1.382812 0.421875 -1.5 L 4.828125 -14.578125 C 4.898438 -14.796875 5.03125 -14.992188 5.21875 -15.171875 C 5.414062 -15.347656 5.675781 -15.4375 6 -15.4375 C 6.332031 -15.4375 6.59375 -15.347656 6.78125 -15.171875 C 6.976562 -14.992188 7.113281 -14.796875 7.1875 -14.578125 L 11.578125 -1.5 C 11.609375 -1.382812 11.648438 -1.257812 11.703125 -1.125 C 11.765625 -0.988281 11.796875 -0.863281 11.796875 -0.75 C 11.796875 -0.476562 11.722656 -0.265625 11.578125 -0.109375 C 11.429688 0.0351562 11.253906 0.109375 11.046875 0.109375 C 10.878906 0.109375 10.742188 0.078125 10.640625 0.015625 C 10.546875 -0.0351562 10.46875 -0.101562 10.40625 -0.1875 C 10.34375 -0.28125 10.296875 -0.375 10.265625 -0.46875 C 10.234375 -0.570312 10.207031 -0.664062 10.1875 -0.75 L 9 -4.28125 L 3 -4.28125 L 1.828125 -0.75 C 1.796875 -0.664062 1.765625 -0.570312 1.734375 -0.46875 C 1.703125 -0.375 1.65625 -0.28125 1.59375 -0.1875 C 1.53125 -0.101562 1.445312 -0.0351562 1.34375 0.015625 C 1.25 0.078125 1.125 0.109375 0.96875 0.109375 Z M 8.46875 -5.78125 L 6.046875 -13.296875 L 5.953125 -13.296875 L 3.53125 -5.78125 Z M 8.46875 -5.78125 "/></g></g></g><g fill="#66bc46" fill-opacity="1"><g transform="translate(275.088931, 193.366639)"><g><path d="M 2.890625 0.109375 C 2.679688 0.109375 2.503906 0.0351562 2.359375 -0.109375 C 2.210938 -0.265625 2.140625 -0.476562 2.140625 -0.75 L 2.140625 -14.15625 C 2.140625 -14.425781 2.210938 -14.632812 2.359375 -14.78125 C 2.503906 -14.925781 2.679688 -15 2.890625 -15 L 7.078125 -15 C 8.535156 -15 9.664062 -14.601562 10.46875 -13.8125 C 11.28125 -13.019531 11.6875 -11.953125 11.6875 -10.609375 C 11.6875 -9.765625 11.539062 -9.082031 11.25 -8.5625 C 10.96875 -8.039062 10.660156 -7.628906 10.328125 -7.328125 C 9.941406 -6.972656 9.5 -6.707031 9 -6.53125 L 9 -6.4375 L 11.6875 -1.921875 C 11.820312 -1.679688 11.941406 -1.476562 12.046875 -1.3125 C 12.160156 -1.15625 12.21875 -0.96875 12.21875 -0.75 C 12.21875 -0.476562 12.144531 -0.265625 12 -0.109375 C 11.863281 0.0351562 11.6875 0.109375 11.46875 0.109375 C 11.132812 0.109375 10.894531 0.00390625 10.75 -0.203125 C 10.613281 -0.410156 10.492188 -0.59375 10.390625 -0.75 L 7.1875 -6.21875 L 3.75 -6.21875 L 3.75 -0.75 C 3.75 -0.175781 3.460938 0.109375 2.890625 0.109375 Z M 7.078125 -7.71875 C 8.046875 -7.71875 8.785156 -7.96875 9.296875 -8.46875 C 9.816406 -8.976562 10.078125 -9.691406 10.078125 -10.609375 C 10.078125 -11.523438 9.816406 -12.234375 9.296875 -12.734375 C 8.785156 -13.242188 8.046875 -13.5 7.078125 -13.5 L 3.75 -13.5 L 3.75 -7.71875 Z M 7.078125 -7.71875 "/></g></g></g><g fill="#66bc46" fill-opacity="1"><g transform="translate(288.329093, 193.366639)"><g><path d="M 2.890625 0 C 2.679688 0 2.503906 -0.0703125 2.359375 -0.21875 C 2.210938 -0.375 2.140625 -0.585938 2.140625 -0.859375 L 2.140625 -14.15625 C 2.140625 -14.425781 2.210938 -14.632812 2.359375 -14.78125 C 2.503906 -14.925781 2.679688 -15 2.890625 -15 L 10.5 -15 C 10.71875 -15 10.894531 -14.925781 11.03125 -14.78125 C 11.175781 -14.644531 11.25 -14.46875 11.25 -14.25 C 11.25 -14.039062 11.175781 -13.863281 11.03125 -13.71875 C 10.894531 -13.570312 10.71875 -13.5 10.5 -13.5 L 3.75 -13.5 L 3.75 -8.359375 L 8.46875 -8.359375 C 8.6875 -8.359375 8.863281 -8.285156 9 -8.140625 C 9.144531 -8.003906 9.21875 -7.828125 9.21875 -7.609375 C 9.21875 -7.390625 9.144531 -7.207031 9 -7.0625 C 8.863281 -6.925781 8.6875 -6.859375 8.46875 -6.859375 L 3.75 -6.859375 L 3.75 -1.5 L 10.71875 -1.5 C 10.9375 -1.5 11.113281 -1.425781 11.25 -1.28125 C 11.394531 -1.144531 11.46875 -0.96875 11.46875 -0.75 C 11.46875 -0.53125 11.394531 -0.347656 11.25 -0.203125 C 11.113281 -0.0664062 10.9375 0 10.71875 0 Z M 2.890625 0 "/></g></g></g><g fill="#66bc46" fill-opacity="1"><g transform="translate(300.819433, 193.366639)"><g><path d="M 0.96875 0.109375 C 0.75 0.109375 0.566406 0.0351562 0.421875 -0.109375 C 0.285156 -0.265625 0.21875 -0.476562 0.21875 -0.75 C 0.21875 -0.863281 0.242188 -0.988281 0.296875 -1.125 C 0.359375 -1.257812 0.398438 -1.382812 0.421875 -1.5 L 4.828125 -14.578125 C 4.898438 -14.796875 5.03125 -14.992188 5.21875 -15.171875 C 5.414062 -15.347656 5.675781 -15.4375 6 -15.4375 C 6.332031 -15.4375 6.59375 -15.347656 6.78125 -15.171875 C 6.976562 -14.992188 7.113281 -14.796875 7.1875 -14.578125 L 11.578125 -1.5 C 11.609375 -1.382812 11.648438 -1.257812 11.703125 -1.125 C 11.765625 -0.988281 11.796875 -0.863281 11.796875 -0.75 C 11.796875 -0.476562 11.722656 -0.265625 11.578125 -0.109375 C 11.429688 0.0351562 11.253906 0.109375 11.046875 0.109375 C 10.878906 0.109375 10.742188 0.078125 10.640625 0.015625 C 10.546875 -0.0351562 10.46875 -0.101562 10.40625 -0.1875 C 10.34375 -0.28125 10.296875 -0.375 10.265625 -0.46875 C 10.234375 -0.570312 10.207031 -0.664062 10.1875 -0.75 L 9 -4.28125 L 3 -4.28125 L 1.828125 -0.75 C 1.796875 -0.664062 1.765625 -0.570312 1.734375 -0.46875 C 1.703125 -0.375 1.65625 -0.28125 1.59375 -0.1875 C 1.53125 -0.101562 1.445312 -0.0351562 1.34375 0.015625 C 1.25 0.078125 1.125 0.109375 0.96875 0.109375 Z M 8.46875 -5.78125 L 6.046875 -13.296875 L 5.953125 -13.296875 L 3.53125 -5.78125 Z M 8.46875 -5.78125 "/></g></g></g></svg>