<svg xmlns="http://www.w3.org/2000/svg" xmlns:xlink="http://www.w3.org/1999/xlink" width="500" zoomAndPan="magnify" viewBox="0 0 375 374.999991" height="500" preserveAspectRatio="xMidYMid meet" version="1.0"><defs><g/></defs><rect x="-37.5" width="450" fill="#ffffff" y="-37.499999" height="449.999989" fill-opacity="1"/><rect x="-37.5" width="450" fill="#ffffff" y="-37.499999" height="449.999989" fill-opacity="1"/><g fill="#0f5da7" fill-opacity="1"><g transform="translate(65.944667, 195.092567)"><g><path d="M 13.203125 -17.65625 L 13.203125 0 L 3.46875 0 L 3.46875 -44.984375 L 23.78125 -44.984375 L 23.78125 -36.5625 L 13.203125 -36.5625 L 13.203125 -25.796875 L 23.078125 -25.796875 L 23.078125 -17.65625 Z M 13.203125 -17.65625 "/></g></g></g><g fill="#0f5da7" fill-opacity="1"><g transform="translate(91.941638, 195.092567)"><g><path d="M 13.203125 -44.984375 L 13.203125 0 L 3.46875 0 L 3.46875 -44.984375 Z M 13.203125 -44.984375 "/></g></g></g><g fill="#0f5da7" fill-opacity="1"><g transform="translate(108.902232, 195.092567)"><g><path d="M 29.265625 0 L 19.53125 0 L 19.53125 -37.328125 C 19.53125 -37.703125 19.398438 -38.023438 19.140625 -38.296875 C 18.890625 -38.578125 18.582031 -38.71875 18.21875 -38.71875 L 14.453125 -38.71875 C 14.085938 -38.71875 13.773438 -38.578125 13.515625 -38.296875 C 13.265625 -38.023438 13.140625 -37.703125 13.140625 -37.328125 L 13.140625 0 L 3.40625 0 L 3.40625 -36.5 C 3.40625 -42.613281 6.28125 -45.671875 12.03125 -45.671875 L 20.640625 -45.671875 C 26.390625 -45.671875 29.265625 -42.613281 29.265625 -36.5 Z M 29.265625 0 "/></g></g></g><g fill="#0f5da7" fill-opacity="1"><g transform="translate(141.224687, 195.092567)"><g><path d="M 21.34375 -44.984375 C 27.09375 -44.984375 29.96875 -41.921875 29.96875 -35.796875 L 29.96875 -9.171875 C 29.96875 -3.054688 27.09375 0 21.34375 0 L 3.46875 0 L 3.46875 -44.984375 Z M 20.234375 -8.0625 L 20.234375 -36.984375 C 20.234375 -37.347656 20.101562 -37.671875 19.84375 -37.953125 C 19.59375 -38.234375 19.28125 -38.375 18.90625 -38.375 L 13.203125 -38.375 L 13.203125 -6.671875 L 18.90625 -6.671875 C 19.28125 -6.671875 19.59375 -6.804688 19.84375 -7.078125 C 20.101562 -7.359375 20.234375 -7.6875 20.234375 -8.0625 Z M 20.234375 -8.0625 "/></g></g></g><g fill="#0f5da7" fill-opacity="1"><g transform="translate(174.937351, 195.092567)"><g/></g></g><g fill="#0f5da7" fill-opacity="1"><g transform="translate(188.978508, 195.092567)"><g><path d="M 6.46875 -21.6875 C 4.5625 -23.082031 3.609375 -25.585938 3.609375 -29.203125 L 3.609375 -33.78125 C 3.609375 -39.894531 6.484375 -42.953125 12.234375 -42.953125 L 19.609375 -42.953125 C 25.347656 -42.953125 28.21875 -39.894531 28.21875 -33.78125 L 28.21875 -31.84375 L 19.53125 -31.84375 L 19.53125 -34 C 19.53125 -34.363281 19.398438 -34.6875 19.140625 -34.96875 C 18.890625 -35.25 18.582031 -35.390625 18.21875 -35.390625 L 13.5625 -35.390625 C 13.1875 -35.390625 12.867188 -35.25 12.609375 -34.96875 C 12.359375 -34.6875 12.234375 -34.363281 12.234375 -34 L 12.234375 -26.625 C 12.234375 -26.25 12.359375 -25.921875 12.609375 -25.640625 C 12.867188 -25.367188 13.1875 -25.234375 13.5625 -25.234375 L 30.71875 -25.234375 L 30.71875 -17.71875 L 28.015625 -17.71875 L 28.015625 -8.484375 C 28.015625 -2.367188 25.140625 0.6875 19.390625 0.6875 L 11.8125 0.6875 C 6.070312 0.6875 3.203125 -2.367188 3.203125 -8.484375 L 3.203125 -13.828125 C 3.203125 -17.535156 4.289062 -20.15625 6.46875 -21.6875 Z M 18.625 -6.671875 C 19 -6.671875 19.3125 -6.804688 19.5625 -7.078125 C 19.820312 -7.359375 19.953125 -7.6875 19.953125 -8.0625 L 19.953125 -17.71875 L 13.140625 -17.71875 C 12.765625 -17.71875 12.445312 -17.578125 12.1875 -17.296875 C 11.9375 -17.023438 11.8125 -16.707031 11.8125 -16.34375 L 11.8125 -8.0625 C 11.8125 -7.6875 11.9375 -7.359375 12.1875 -7.078125 C 12.445312 -6.804688 12.765625 -6.671875 13.140625 -6.671875 Z M 18.625 -6.671875 "/></g></g></g><g fill="#0f5da7" fill-opacity="1"><g transform="translate(220.675356, 195.092567)"><g/></g></g><g fill="#0f5da7" fill-opacity="1"><g transform="translate(234.716513, 195.092567)"><g><path d="M 13.203125 -17.65625 L 13.203125 0 L 3.46875 0 L 3.46875 -44.984375 L 23.78125 -44.984375 L 23.78125 -36.5625 L 13.203125 -36.5625 L 13.203125 -25.796875 L 23.078125 -25.796875 L 23.078125 -17.65625 Z M 13.203125 -17.65625 "/></g></g></g><g fill="#0f5da7" fill-opacity="1"><g transform="translate(260.713484, 195.092567)"><g><path d="M 13.203125 -44.984375 L 13.203125 0 L 3.46875 0 L 3.46875 -44.984375 Z M 13.203125 -44.984375 "/></g></g></g><g fill="#0f5da7" fill-opacity="1"><g transform="translate(277.674078, 195.092567)"><g><path d="M 29.546875 -44.984375 L 22.390625 -22.515625 L 30.453125 0 L 20.296875 0 L 15.578125 -15.703125 L 10.84375 0 L 0.625 0 L 8.6875 -22.515625 L 1.671875 -44.984375 L 11.125 -44.984375 L 15.578125 -30.453125 L 20.015625 -44.984375 Z M 29.546875 -44.984375 "/></g></g></g></svg>