<svg xmlns="http://www.w3.org/2000/svg" xmlns:xlink="http://www.w3.org/1999/xlink" width="500" zoomAndPan="magnify" viewBox="0 0 375 149.999998" height="200" preserveAspectRatio="xMidYMid meet" version="1.0"><defs><g/><clipPath id="d2f1a5bed1"><path d="M 18 39.363281 L 84 39.363281 L 84 104.367188 L 18 104.367188 Z M 18 39.363281 " clip-rule="nonzero"/></clipPath><clipPath id="c1a1c5fa2b"><path d="M 27.085938 50.238281 L 60.71875 50.238281 L 60.71875 75.085938 L 27.085938 75.085938 Z M 27.085938 50.238281 " clip-rule="nonzero"/></clipPath><clipPath id="ea49260992"><path d="M 75.898438 54.378906 L 90.957031 54.378906 L 90.957031 69.4375 L 75.898438 69.4375 Z M 75.898438 54.378906 " clip-rule="nonzero"/></clipPath><clipPath id="744644a1a8"><path d="M 21.90625 90.96875 L 32.195312 90.96875 L 32.195312 101.257812 L 21.90625 101.257812 Z M 21.90625 90.96875 " clip-rule="nonzero"/></clipPath><clipPath id="ce14e223f7"><path d="M 6.082031 33.921875 L 20.636719 33.921875 L 20.636719 48.480469 L 6.082031 48.480469 Z M 6.082031 33.921875 " clip-rule="nonzero"/></clipPath></defs><g fill="#0f5da7" fill-opacity="1"><g transform="translate(97.827463, 96.655362)"><g><path d="M 14.5 -19.390625 L 14.5 0 L 3.8125 0 L 3.8125 -49.390625 L 26.109375 -49.390625 L 26.109375 -40.15625 L 14.5 -40.15625 L 14.5 -28.3125 L 25.34375 -28.3125 L 25.34375 -19.390625 Z M 14.5 -19.390625 "/></g></g></g><g fill="#0f5da7" fill-opacity="1"><g transform="translate(126.368389, 96.655362)"><g><path d="M 14.5 -49.390625 L 14.5 0 L 3.8125 0 L 3.8125 -49.390625 Z M 14.5 -49.390625 "/></g></g></g><g fill="#0f5da7" fill-opacity="1"><g transform="translate(144.988676, 96.655362)"><g><path d="M 32.140625 0 L 21.453125 0 L 21.453125 -40.984375 C 21.453125 -41.390625 21.3125 -41.742188 21.03125 -42.046875 C 20.75 -42.359375 20.40625 -42.515625 20 -42.515625 L 15.875 -42.515625 C 15.46875 -42.515625 15.125 -42.359375 14.84375 -42.046875 C 14.5625 -41.742188 14.421875 -41.390625 14.421875 -40.984375 L 14.421875 0 L 3.734375 0 L 3.734375 -40.078125 C 3.734375 -46.785156 6.890625 -50.140625 13.203125 -50.140625 L 22.671875 -50.140625 C 28.984375 -50.140625 32.140625 -46.785156 32.140625 -40.078125 Z M 32.140625 0 "/></g></g></g><g fill="#0f5da7" fill-opacity="1"><g transform="translate(180.474071, 96.655362)"><g><path d="M 23.4375 -49.390625 C 29.738281 -49.390625 32.890625 -46.03125 32.890625 -39.3125 L 32.890625 -10.078125 C 32.890625 -3.359375 29.738281 0 23.4375 0 L 3.8125 0 L 3.8125 -49.390625 Z M 22.21875 -8.859375 L 22.21875 -40.609375 C 22.21875 -41.015625 22.078125 -41.367188 21.796875 -41.671875 C 21.515625 -41.984375 21.171875 -42.140625 20.765625 -42.140625 L 14.5 -42.140625 L 14.5 -7.328125 L 20.765625 -7.328125 C 21.171875 -7.328125 21.515625 -7.476562 21.796875 -7.78125 C 22.078125 -8.09375 22.21875 -8.453125 22.21875 -8.859375 Z M 22.21875 -8.859375 "/></g></g></g><g fill="#0f5da7" fill-opacity="1"><g transform="translate(217.485716, 96.655362)"><g/></g></g><g fill="#0f5da7" fill-opacity="1"><g transform="translate(232.900882, 96.655362)"><g><path d="M 7.09375 -23.8125 C 5.007812 -25.34375 3.96875 -28.09375 3.96875 -32.0625 L 3.96875 -37.09375 C 3.96875 -43.8125 7.125 -47.171875 13.4375 -47.171875 L 21.53125 -47.171875 C 27.832031 -47.171875 30.984375 -43.8125 30.984375 -37.09375 L 30.984375 -34.953125 L 21.453125 -34.953125 L 21.453125 -37.328125 C 21.453125 -37.734375 21.3125 -38.085938 21.03125 -38.390625 C 20.75 -38.691406 20.40625 -38.84375 20 -38.84375 L 14.890625 -38.84375 C 14.472656 -38.84375 14.125 -38.691406 13.84375 -38.390625 C 13.570312 -38.085938 13.4375 -37.734375 13.4375 -37.328125 L 13.4375 -29.234375 C 13.4375 -28.828125 13.570312 -28.46875 13.84375 -28.15625 C 14.125 -27.851562 14.472656 -27.703125 14.890625 -27.703125 L 33.734375 -27.703125 L 33.734375 -19.46875 L 30.765625 -19.46875 L 30.765625 -9.3125 C 30.765625 -2.59375 27.609375 0.765625 21.296875 0.765625 L 12.96875 0.765625 C 6.664062 0.765625 3.515625 -2.59375 3.515625 -9.3125 L 3.515625 -15.1875 C 3.515625 -19.257812 4.707031 -22.132812 7.09375 -23.8125 Z M 20.453125 -7.328125 C 20.859375 -7.328125 21.203125 -7.476562 21.484375 -7.78125 C 21.765625 -8.09375 21.90625 -8.453125 21.90625 -8.859375 L 21.90625 -19.46875 L 14.421875 -19.46875 C 14.015625 -19.46875 13.671875 -19.3125 13.390625 -19 C 13.109375 -18.695312 12.96875 -18.34375 12.96875 -17.9375 L 12.96875 -8.859375 C 12.96875 -8.453125 13.109375 -8.09375 13.390625 -7.78125 C 13.671875 -7.476562 14.015625 -7.328125 14.421875 -7.328125 Z M 20.453125 -7.328125 "/></g></g></g><g fill="#0f5da7" fill-opacity="1"><g transform="translate(267.69945, 96.655362)"><g/></g></g><g fill="#0f5da7" fill-opacity="1"><g transform="translate(283.114616, 96.655362)"><g><path d="M 14.5 -19.390625 L 14.5 0 L 3.8125 0 L 3.8125 -49.390625 L 26.109375 -49.390625 L 26.109375 -40.15625 L 14.5 -40.15625 L 14.5 -28.3125 L 25.34375 -28.3125 L 25.34375 -19.390625 Z M 14.5 -19.390625 "/></g></g></g><g fill="#0f5da7" fill-opacity="1"><g transform="translate(311.655543, 96.655362)"><g><path d="M 14.5 -49.390625 L 14.5 0 L 3.8125 0 L 3.8125 -49.390625 Z M 14.5 -49.390625 "/></g></g></g><g fill="#0f5da7" fill-opacity="1"><g transform="translate(330.27583, 96.655362)"><g><path d="M 32.4375 -49.390625 L 24.578125 -24.734375 L 33.4375 0 L 22.28125 0 L 17.09375 -17.25 L 11.90625 0 L 0.6875 0 L 9.546875 -24.734375 L 1.828125 -49.390625 L 12.21875 -49.390625 L 17.09375 -33.4375 L 21.984375 -49.390625 Z M 32.4375 -49.390625 "/></g></g></g><g clip-path="url(#d2f1a5bed1)"><path fill="#0f5da7" d="M 43.742188 39.371094 C 50.128906 39.371094 56.511719 41.808594 61.386719 46.679688 C 70.472656 55.765625 71.082031 70.113281 63.226562 79.910156 L 65.960938 82.648438 C 67.410156 82.414062 68.945312 82.84375 70.0625 83.960938 L 82.359375 96.257812 C 84.203125 98.101562 84.203125 101.097656 82.359375 102.941406 C 81.433594 103.867188 80.222656 104.328125 79.015625 104.328125 C 77.804688 104.328125 76.59375 103.867188 75.671875 102.941406 L 63.375 90.644531 C 62.257812 89.53125 61.828125 87.996094 62.0625 86.546875 L 59.324219 83.8125 C 54.78125 87.453125 49.261719 89.28125 43.742188 89.28125 C 37.355469 89.28125 30.96875 86.84375 26.09375 81.972656 C 16.351562 72.226562 16.351562 56.425781 26.09375 46.679688 C 30.96875 41.808594 37.355469 39.371094 43.742188 39.371094 Z M 29.996094 78.070312 C 33.667969 81.742188 38.546875 83.765625 43.742188 83.765625 C 48.933594 83.765625 53.8125 81.742188 57.484375 78.070312 C 61.15625 74.398438 63.179688 69.519531 63.179688 64.324219 C 63.179688 59.132812 61.15625 54.253906 57.484375 50.582031 C 53.8125 46.910156 48.933594 44.886719 43.742188 44.886719 C 38.546875 44.886719 33.667969 46.910156 29.996094 50.582031 C 26.324219 54.253906 24.300781 59.132812 24.300781 64.324219 C 24.300781 69.519531 26.324219 74.398438 29.996094 78.070312 Z M 29.996094 78.070312 " fill-opacity="1" fill-rule="nonzero"/></g><g clip-path="url(#c1a1c5fa2b)"><path fill="#66bc46" d="M 60.390625 74.917969 C 58.425781 73.5625 56.019531 73.085938 53.71875 72.625 C 53.714844 70.039062 53.734375 67.449219 53.691406 64.863281 L 53.714844 64.800781 C 54.585938 64.824219 55.457031 64.808594 56.332031 64.808594 C 56.332031 64.347656 56.339844 63.882812 56.328125 63.421875 C 56.265625 63.386719 56.152344 63.316406 56.09375 63.273438 C 55.160156 62.71875 54.261719 62.113281 53.34375 61.546875 C 51.988281 60.6875 50.636719 59.816406 49.273438 58.972656 C 48.492188 58.441406 47.679688 57.953125 46.882812 57.441406 C 46.554688 57.234375 46.226562 57.027344 45.898438 56.8125 C 45.964844 56.625 46.023438 56.4375 46.097656 56.25 C 46.304688 55.792969 46.59375 55.335938 47.050781 55.097656 C 47.484375 54.828125 48.015625 54.847656 48.503906 54.863281 C 49.132812 54.960938 49.765625 55.210938 50.207031 55.691406 C 50.339844 55.875 50.460938 56.054688 50.589844 56.242188 C 51.496094 56.230469 52.398438 56.261719 53.304688 56.234375 C 53.550781 56.257812 53.699219 56 53.738281 55.785156 C 54.09375 54.210938 54.1875 52.550781 53.832031 50.960938 C 53.765625 50.679688 53.664062 50.285156 53.296875 50.304688 C 52.386719 50.269531 51.472656 50.296875 50.554688 50.296875 C 49.917969 51.253906 48.738281 51.933594 47.566406 51.710938 C 46.789062 51.582031 46.132812 51.121094 45.542969 50.640625 C 45.160156 50.285156 44.597656 50.429688 44.121094 50.402344 C 42.875 50.449219 41.59375 50.257812 40.386719 50.652344 C 38.722656 51.183594 37.222656 52.148438 35.949219 53.332031 C 34.527344 54.679688 33.175781 56.308594 32.851562 58.308594 C 32.851562 58.386719 32.859375 58.542969 32.859375 58.617188 C 33.300781 58.648438 33.742188 58.640625 34.1875 58.628906 C 34.386719 58.261719 34.59375 57.90625 34.851562 57.570312 C 35.445312 56.8125 36.21875 56.210938 37.042969 55.71875 C 38.054688 55.191406 39.207031 54.675781 40.378906 54.902344 C 41.125 55.035156 41.585938 55.691406 41.875 56.34375 C 41.902344 56.511719 41.921875 56.679688 41.949219 56.851562 C 40.207031 57.910156 38.511719 59.039062 36.78125 60.109375 C 35.085938 61.210938 33.367188 62.28125 31.660156 63.367188 L 31.546875 63.441406 C 31.503906 63.90625 31.519531 64.359375 31.519531 64.824219 C 32.390625 64.769531 33.253906 64.808594 34.125 64.789062 C 34.121094 67.363281 34.140625 69.9375 34.097656 72.503906 L 34.09375 72.578125 C 31.699219 73.148438 29.105469 73.5625 27.085938 75.105469 C 29.441406 74.292969 31.886719 73.773438 34.347656 73.429688 C 36.324219 73.148438 38.324219 73 40.3125 72.875 C 44.1875 72.707031 48.074219 72.820312 51.9375 73.234375 C 54.871094 73.597656 57.800781 74.105469 60.597656 75.085938 C 60.550781 75.046875 60.441406 74.964844 60.390625 74.917969 Z M 43.703125 57.71875 C 44.410156 57.769531 45.1875 57.542969 45.804688 57.984375 C 45.96875 58.449219 45.921875 58.949219 45.9375 59.441406 C 45.929688 60.25 45.917969 61.0625 45.9375 61.875 C 45.921875 62.871094 45.902344 63.878906 45.9375 64.875 C 45.902344 67.183594 45.929688 69.488281 45.917969 71.792969 C 45.910156 71.800781 45.898438 71.800781 45.890625 71.808594 L 45.285156 71.808594 C 45.261719 71.800781 45.226562 71.792969 45.207031 71.792969 C 45.21875 70.285156 45.199219 68.769531 45.214844 67.261719 C 44.390625 67.234375 43.5625 67.257812 42.738281 67.257812 C 42.738281 68.769531 42.734375 70.292969 42.734375 71.808594 L 41.96875 71.808594 C 41.976562 67.316406 41.960938 62.824219 41.957031 58.339844 C 42.183594 57.5625 43.082031 57.710938 43.703125 57.71875 Z M 38.449219 69.160156 C 37.894531 69.144531 37.34375 69.152344 36.789062 69.144531 C 36.789062 68.597656 36.789062 68.046875 36.789062 67.496094 C 37.34375 67.496094 37.898438 67.503906 38.457031 67.492188 C 38.476562 68.046875 38.488281 68.601562 38.449219 69.160156 Z M 38.46875 67.035156 C 37.90625 67.042969 37.335938 67.042969 36.773438 67.019531 C 36.789062 66.476562 36.789062 65.929688 36.78125 65.386719 C 37.324219 65.378906 37.875 65.367188 38.421875 65.386719 C 38.4375 65.40625 38.46875 65.445312 38.484375 65.464844 C 38.476562 65.984375 38.464844 66.503906 38.46875 67.035156 Z M 40.613281 69.144531 L 38.980469 69.144531 C 38.972656 68.597656 38.964844 68.046875 38.964844 67.496094 C 39.515625 67.496094 40.066406 67.496094 40.613281 67.496094 C 40.621094 68.046875 40.621094 68.597656 40.613281 69.144531 Z M 40.621094 67.035156 C 40.078125 67.027344 39.535156 67.027344 38.992188 67.042969 C 38.972656 66.511719 38.964844 65.976562 38.953125 65.445312 L 38.980469 65.371094 C 39.535156 65.394531 40.09375 65.394531 40.648438 65.394531 L 40.667969 65.441406 C 40.613281 65.96875 40.613281 66.503906 40.621094 67.035156 Z M 49 69.171875 L 47.269531 69.171875 L 47.269531 67.445312 L 49 67.445312 Z M 49 67.074219 L 47.269531 67.074219 L 47.269531 65.34375 L 49 65.34375 Z M 51.164062 69.171875 L 49.4375 69.171875 L 49.4375 67.445312 L 51.164062 67.445312 Z M 51.164062 67.074219 L 49.4375 67.074219 L 49.4375 65.34375 L 51.164062 65.34375 Z M 51.164062 67.074219 " fill-opacity="1" fill-rule="nonzero"/></g><g clip-path="url(#ea49260992)"><path fill="#66bc46" d="M 75.898438 61.949219 C 82.460938 62.957031 82.460938 62.957031 83.46875 69.523438 C 84.472656 62.957031 84.472656 62.957031 91.039062 61.949219 C 84.472656 60.945312 84.472656 60.945312 83.46875 54.378906 C 82.460938 60.945312 82.460938 60.945312 75.898438 61.949219 " fill-opacity="1" fill-rule="nonzero"/></g><g clip-path="url(#744644a1a8)"><path fill="#66bc46" d="M 21.90625 96.148438 C 26.398438 96.835938 26.398438 96.835938 27.085938 101.328125 C 27.773438 96.835938 27.773438 96.835938 32.265625 96.148438 C 27.773438 95.460938 27.773438 95.460938 27.085938 90.96875 C 26.398438 95.460938 26.398438 95.460938 21.90625 96.148438 " fill-opacity="1" fill-rule="nonzero"/></g><g clip-path="url(#ce14e223f7)"><path fill="#66bc46" d="M 6.082031 41.183594 C 12.378906 42.148438 12.378906 42.148438 13.34375 48.445312 C 14.304688 42.148438 14.304688 42.148438 20.601562 41.183594 C 14.304688 40.21875 14.304688 40.21875 13.34375 33.921875 C 12.378906 40.21875 12.378906 40.21875 6.082031 41.183594 " fill-opacity="1" fill-rule="nonzero"/></g></svg>