<svg xmlns="http://www.w3.org/2000/svg" xmlns:xlink="http://www.w3.org/1999/xlink" width="500" zoomAndPan="magnify" viewBox="0 0 375 374.999991" height="500" preserveAspectRatio="xMidYMid meet" version="1.0"><defs><clipPath id="d099331cdd"><path d="M 66 2 L 309.65625 2 L 309.65625 375 L 66 375 Z M 66 2 " clip-rule="nonzero"/></clipPath></defs><g clip-path="url(#d099331cdd)"><path fill="#66bc46" d="M 308.953125 310.199219 C 307.246094 287.996094 298.28125 287.75 278.78125 288.53125 C 272.378906 288.601562 265.9375 288.636719 259.640625 289.988281 C 250.28125 291.34375 240.53125 295.859375 231.105469 293.335938 C 231.105469 293.335938 231.140625 293.296875 231.140625 293.296875 C 229.503906 292.230469 228.792969 290.167969 229.039062 288.246094 C 229.929688 280.488281 231.746094 272.875 232.847656 265.191406 C 233.453125 260.921875 234.128906 256.6875 234.734375 252.417969 C 236.441406 236.226562 240.070312 220.289062 241.527344 204.0625 C 242.488281 191.929688 242.453125 179.761719 242.277344 167.59375 C 241.601562 143.21875 242.632812 118.847656 244.054688 94.511719 C 244.695312 82.304688 245.480469 70.136719 246.226562 57.96875 C 246.796875 43.167969 251.207031 14.953125 237.6875 5.203125 C 229.539062 0.078125 219.933594 3.671875 211.890625 7.195312 C 198.050781 12.996094 186.949219 23.632812 175.277344 32.8125 C 164.035156 41.78125 153.183594 51.566406 142.792969 61.597656 C 129.414062 74.550781 116.5 88 103.65625 101.484375 C 93.15625 112.230469 85.933594 123.367188 77.964844 136.816406 C 72.238281 146.671875 65.15625 157.203125 66.507812 169.121094 C 66.863281 173.464844 69.210938 177.058594 72.09375 180.222656 C 75.867188 184.707031 79.140625 189.617188 83.410156 193.671875 C 87.324219 198.050781 103.582031 208.117188 100.132812 195.878906 C 107.78125 194.667969 116.890625 176.84375 122.441406 172.679688 C 131.085938 163.429688 140.125 154.214844 151.511719 148.378906 C 148.414062 198.261719 149.019531 248.359375 147.488281 298.246094 C 127.847656 300.449219 107.460938 300.804688 88.390625 307.140625 C 71.242188 311.800781 76.328125 327.847656 77.789062 341.117188 C 80.136719 351.152344 79.246094 369.796875 89.421875 374.921875 C 97.960938 374.066406 106.5 373.175781 115.039062 372.253906 C 116 372.394531 116.996094 372.253906 117.921875 371.96875 C 150.65625 368.515625 183.53125 364.992188 216.445312 362.074219 C 219.113281 362.894531 222.03125 362.539062 225.125 361.328125 C 249.925781 359.230469 274.726562 357.484375 299.453125 356.488281 C 303.902344 357.984375 307.78125 352.46875 304.96875 348.769531 C 304.507812 348.378906 304.007812 348.023438 303.476562 347.738281 C 305.789062 347.273438 307.886719 345.425781 308.171875 342.96875 C 309.34375 332.152344 309.84375 321.085938 308.953125 310.199219 Z M 284.082031 345.03125 C 283.300781 345.03125 282.480469 344.996094 281.699219 344.996094 C 283.050781 343.929688 284.402344 342.792969 285.71875 341.6875 C 285.1875 342.792969 284.652344 343.929688 284.082031 345.03125 Z M 215.339844 345.957031 C 217.976562 343.714844 220.714844 341.011719 223.523438 338.128906 C 224.273438 338.699219 225.160156 339.089844 226.121094 339.125 C 226.335938 340.085938 226.941406 341.011719 228.1875 341.902344 C 228.472656 342.078125 228.753906 342.222656 229.074219 342.292969 C 228.257812 343.183594 227.511719 344.070312 226.761719 344.996094 C 226.621094 345.140625 226.476562 345.246094 226.335938 345.386719 C 222.636719 345.566406 219.007812 345.746094 215.339844 345.957031 Z M 191.074219 347.84375 C 189.722656 347.949219 188.335938 348.058594 186.984375 348.199219 C 187.660156 347.738281 188.371094 347.203125 189.082031 346.667969 C 189.617188 347.308594 190.328125 347.664062 191.074219 347.84375 Z M 88.960938 321.941406 C 88.996094 321.90625 89.03125 321.871094 89.03125 321.871094 C 92.125 320.445312 95.292969 319.238281 98.53125 318.242188 C 98.246094 318.882812 97.960938 319.523438 97.640625 320.125 C 97.570312 320.554688 97.464844 321.015625 97.320312 321.550781 C 97.214844 321.65625 97.109375 321.796875 97 321.90625 C 95.328125 324.183594 92.125 326.921875 89.527344 329.839844 C 89.386719 327.171875 89.171875 324.574219 88.960938 321.941406 Z M 146.921875 139.304688 C 147.488281 138.773438 148.058594 138.203125 148.664062 137.667969 C 150.335938 136.066406 152.042969 134.539062 153.75 132.972656 C 153.75 133.433594 153.824219 133.863281 153.964844 134.289062 C 152.648438 135.605469 151.367188 136.921875 150.050781 138.273438 C 149.089844 138.523438 148.058594 138.878906 146.921875 139.304688 Z M 138.914062 98.816406 C 138.132812 98.816406 137.347656 99.027344 136.671875 99.347656 C 139.164062 96.679688 141.691406 94.011719 144.214844 91.414062 C 144.429688 92.089844 144.855469 92.695312 145.53125 93.195312 C 145.960938 93.441406 146.386719 93.621094 146.8125 93.761719 C 146.742188 93.835938 146.671875 93.941406 146.566406 94.011719 C 144.75 95.792969 143.007812 97.570312 141.226562 99.382812 C 140.585938 99.066406 139.839844 98.886719 138.914062 98.816406 Z M 134.113281 102.230469 C 133.398438 102.941406 132.722656 103.691406 132.046875 104.402344 C 132.757812 103.617188 133.472656 102.835938 134.183594 102.054688 C 134.183594 102.125 134.148438 102.195312 134.113281 102.230469 Z M 228.863281 54.304688 C 228.828125 54.980469 228.792969 55.65625 228.753906 56.332031 C 225.660156 58.039062 222.671875 59.960938 219.648438 61.847656 C 216.976562 63.554688 214.34375 65.296875 211.710938 67.078125 C 210.574219 67.46875 209.613281 68.359375 208.617188 69.175781 C 205.664062 71.167969 202.746094 73.199219 199.863281 75.261719 C 198.546875 76.152344 197.230469 77.074219 195.914062 77.964844 C 202.175781 72.164062 208.511719 66.472656 214.878906 60.78125 C 219.683594 56.296875 224.769531 51.992188 229.253906 47.1875 C 229.148438 49.535156 228.96875 51.957031 228.863281 54.304688 Z M 217.050781 69.746094 C 216.941406 69.425781 216.765625 69.140625 216.585938 68.855469 C 219.148438 67.113281 221.746094 65.441406 224.378906 63.839844 C 221.960938 65.796875 219.503906 67.789062 217.050781 69.746094 Z M 229.609375 42.027344 C 225.054688 47.4375 219.328125 51.847656 214.023438 56.546875 C 215.625 54.875 217.261719 53.203125 218.863281 51.527344 C 222.457031 48.292969 226.050781 45.054688 229.609375 41.816406 C 229.609375 41.886719 229.609375 41.957031 229.609375 42.027344 Z M 202.746094 53.839844 C 199.652344 57.078125 196.589844 60.316406 193.566406 63.625 C 192.285156 64.019531 190.96875 64.410156 189.6875 64.835938 C 193.957031 61.066406 198.335938 57.398438 202.746094 53.839844 Z M 158.09375 139.804688 C 162.078125 135.890625 166.0625 131.941406 170.046875 128.027344 C 178.585938 119.664062 186.769531 110.949219 194.988281 102.265625 C 195.558594 101.699219 196.164062 101.164062 196.734375 100.59375 C 203.351562 94.15625 210.253906 88.035156 217.335938 82.09375 C 220.820312 79.28125 224.34375 76.472656 228.042969 73.910156 C 228.007812 74.871094 227.972656 75.792969 227.9375 76.753906 C 227.867188 79.210938 227.796875 81.628906 227.6875 84.085938 C 227.226562 83.800781 226.726562 83.621094 226.195312 83.550781 C 225.125 80.492188 219.183594 80.347656 218.828125 84.617188 C 199.046875 103.867188 179.015625 122.902344 159.375 142.292969 C 158.875 141.441406 158.378906 140.65625 157.808594 140.054688 C 157.878906 139.980469 157.984375 139.875 158.09375 139.804688 Z M 166.347656 215.449219 C 166.738281 215.058594 167.128906 214.664062 167.523438 214.273438 C 167.558594 215.128906 167.949219 215.945312 168.625 216.480469 C 169.085938 216.871094 169.585938 217.050781 170.117188 217.121094 C 168.910156 218.542969 167.664062 220.003906 166.417969 221.425781 C 166.382812 219.433594 166.382812 217.441406 166.347656 215.449219 Z M 165.886719 198.691406 C 165.886719 198.617188 165.886719 198.546875 165.886719 198.476562 C 165.957031 198.476562 166.027344 198.441406 166.0625 198.40625 C 166.027344 198.511719 165.957031 198.617188 165.886719 198.691406 Z M 177.980469 159.835938 C 173.820312 165.246094 169.550781 170.582031 165.246094 175.882812 C 165.171875 174.53125 165.101562 173.144531 164.996094 171.792969 C 166.5625 169.941406 168.089844 168.089844 169.65625 166.277344 C 170.332031 166.3125 171.042969 166.132812 171.542969 165.601562 C 173.429688 163.570312 175.347656 161.578125 177.269531 159.585938 C 178.621094 158.234375 179.976562 156.882812 181.328125 155.53125 C 180.222656 156.988281 179.121094 158.414062 177.980469 159.835938 Z M 163.074219 154.355469 C 167.484375 150.015625 171.96875 145.746094 176.488281 141.546875 C 183.175781 135.179688 190.078125 128.953125 196.980469 122.761719 C 190.472656 128.917969 184.171875 135.320312 178.125 141.867188 C 177.449219 142.542969 177.128906 143.46875 177.234375 144.359375 C 172.679688 149.480469 168.269531 154.675781 163.929688 159.976562 C 163.679688 158.058594 163.394531 156.171875 163.074219 154.355469 Z M 166.0625 282.125 C 167.203125 282.625 168.589844 282.480469 169.476562 281.558594 C 172.21875 278.816406 174.992188 276.148438 177.804688 273.515625 C 182.359375 269.566406 186.769531 265.402344 191.148438 261.207031 C 191.148438 261.242188 191.183594 261.242188 191.183594 261.277344 C 187.554688 265.011719 184.351562 269.105469 181.292969 273.339844 C 175.492188 279.171875 169.871094 285.1875 164.460938 291.414062 C 165.136719 288.28125 165.671875 285.222656 166.0625 282.125 Z M 105.894531 337.738281 C 105.929688 337.808594 105.96875 337.882812 106.039062 337.917969 C 105.683594 338.378906 105.328125 338.84375 104.933594 339.339844 C 105.253906 338.804688 105.539062 338.273438 105.894531 337.738281 Z M 205.484375 331.261719 C 207.871094 329.449219 210.21875 327.597656 212.566406 325.785156 C 211.960938 326.636719 211.320312 327.527344 210.75 328.417969 C 210.324219 329.09375 210.183594 329.875 210.253906 330.621094 C 207.476562 332.011719 204.738281 333.433594 202 334.855469 C 203.246094 333.648438 204.382812 332.4375 205.484375 331.261719 Z M 280.097656 317.246094 C 280.167969 317.101562 280.207031 316.925781 280.242188 316.78125 C 280.417969 316.710938 280.632812 316.675781 280.808594 316.605469 C 280.597656 316.816406 280.347656 317.03125 280.097656 317.246094 Z M 190.007812 309.84375 C 188.871094 310.699219 187.730469 311.550781 186.59375 312.40625 C 186.523438 312.15625 186.484375 311.90625 186.378906 311.660156 C 184.136719 308.136719 181.292969 307.566406 178.230469 308.667969 C 179.9375 307.566406 181.613281 306.320312 183.285156 305.433594 C 183.320312 305.394531 183.355469 305.394531 183.390625 305.359375 C 183.460938 305.394531 183.496094 305.46875 183.53125 305.503906 C 184.671875 306.179688 186.238281 305.789062 186.878906 304.613281 C 187.410156 303.652344 187.980469 302.761719 188.585938 301.875 C 189.046875 301.554688 189.476562 301.269531 189.9375 300.984375 C 187.980469 304.398438 187.589844 307.601562 190.007812 309.84375 Z M 218.367188 118.632812 C 219.042969 118.027344 219.71875 117.386719 220.394531 116.785156 C 221.175781 116.285156 221.851562 115.539062 221.710938 114.542969 C 220.074219 109.132812 211.675781 118.777344 209.328125 120.304688 C 208.652344 120.945312 207.941406 121.585938 207.265625 122.191406 C 207.265625 122.191406 207.300781 122.15625 207.300781 122.15625 C 213.597656 116.144531 220.003906 110.203125 226.65625 104.613281 C 226.796875 104.578125 226.90625 104.507812 227.046875 104.472656 C 226.90625 109.203125 226.761719 113.902344 226.621094 118.632812 C 224.058594 119.808594 220.855469 123.117188 219.042969 124.574219 C 219.183594 124.433594 219.292969 124.292969 219.433594 124.148438 C 220.75 122.015625 219.933594 119.808594 218.367188 118.632812 Z M 227.261719 98.105469 C 225.480469 98.460938 224.058594 99.847656 222.566406 100.878906 C 219.292969 103.371094 216.125 105.929688 212.957031 108.527344 C 212.921875 108.492188 212.851562 108.492188 212.816406 108.457031 C 217.726562 103.976562 222.601562 99.421875 227.367188 94.757812 C 227.332031 95.933594 227.296875 97.035156 227.261719 98.105469 Z M 228.007812 17.796875 C 228.683594 20.359375 229.113281 22.957031 229.394531 25.554688 C 229.039062 26.019531 228.683594 26.480469 228.292969 26.90625 C 224.34375 23.703125 210.964844 31.53125 197.90625 40.710938 C 207.371094 32.566406 217.15625 24.699219 227.546875 17.835938 C 227.722656 17.835938 227.867188 17.796875 228.007812 17.796875 Z M 98.105469 162.859375 C 105.753906 153.503906 113.046875 143.894531 120.414062 134.324219 C 120.804688 133.792969 121.230469 133.257812 121.65625 132.722656 C 128.242188 125.535156 134.789062 118.3125 141.40625 111.160156 C 142.082031 110.414062 142.792969 109.632812 143.503906 108.882812 C 155.886719 96.429688 168.375 84.050781 181.363281 72.238281 C 183.710938 71.203125 186.023438 70.207031 188.40625 69.246094 C 184.207031 73.875 179.976562 78.5 175.777344 83.125 C 165.886719 92.945312 156.242188 102.976562 146.742188 113.15625 C 138.308594 122.015625 130.269531 131.230469 122.476562 140.621094 C 120.484375 142.972656 118.527344 145.355469 116.535156 147.703125 C 109.488281 153.679688 102.445312 159.730469 95.472656 165.8125 C 96.253906 164.640625 97.144531 163.609375 98.105469 162.859375 Z M 92.199219 183.25 C 92.410156 183.070312 92.589844 182.890625 92.800781 182.714844 C 92.800781 182.714844 92.839844 182.75 92.839844 182.75 C 92.660156 182.929688 92.445312 183.140625 92.269531 183.320312 C 92.269531 183.285156 92.234375 183.25 92.199219 183.25 Z M 91.378906 350.726562 C 91.414062 350.726562 91.414062 350.761719 91.449219 350.761719 C 92.410156 351.046875 93.265625 351.117188 94.082031 350.976562 C 94.191406 351.046875 94.296875 351.152344 94.402344 351.222656 C 94.757812 351.4375 95.113281 351.542969 95.507812 351.617188 C 94.332031 353.179688 93.15625 354.746094 92.019531 356.3125 C 91.804688 354.460938 91.59375 352.613281 91.378906 350.726562 Z M 96.039062 363.214844 C 102.089844 354.960938 108.566406 346.988281 114.96875 339.019531 C 115.003906 339.875 115.21875 340.65625 115.574219 341.367188 C 115.46875 341.902344 115.539062 342.472656 115.859375 343.148438 C 115.894531 343.183594 115.929688 343.183594 115.929688 343.21875 C 115.429688 343.789062 114.933594 344.390625 114.433594 344.960938 C 111.910156 349.660156 100.417969 355.421875 104.863281 361.792969 C 107.605469 363.75 109.953125 362.859375 112.085938 360.9375 C 111.765625 361.507812 111.445312 362.074219 111.199219 362.644531 C 105.613281 363.710938 99.988281 364.707031 94.332031 365.527344 C 94.902344 364.78125 95.472656 363.996094 96.039062 363.214844 Z M 137.953125 350.121094 C 138.558594 349.941406 139.234375 349.730469 139.875 349.515625 C 138.023438 352.46875 137.277344 355.066406 138.808594 356.808594 C 135.996094 357.414062 133.222656 358.054688 130.410156 358.660156 C 132.9375 355.777344 135.429688 352.933594 137.953125 350.121094 Z M 146.421875 354.746094 C 148.023438 354.425781 149.800781 353.644531 151.652344 352.574219 C 151.792969 352.789062 151.9375 353.003906 152.152344 353.253906 C 152.363281 353.464844 152.613281 353.679688 152.863281 353.820312 C 150.585938 354.285156 148.308594 354.78125 146.03125 355.246094 C 146.136719 355.066406 146.28125 354.925781 146.421875 354.746094 Z M 162.328125 349.125 C 162.363281 349.445312 162.433594 349.765625 162.574219 350.085938 C 162.859375 350.726562 163.324219 351.257812 163.890625 351.6875 C 162.042969 352.042969 160.191406 352.363281 158.339844 352.753906 C 159.695312 351.507812 161.011719 350.296875 162.328125 349.125 Z M 173.144531 349.195312 C 173.179688 349.445312 173.25 349.730469 173.320312 350.015625 C 172.429688 350.15625 171.578125 350.296875 170.6875 350.441406 C 171.507812 350.050781 172.324219 349.621094 173.144531 349.195312 Z M 200.96875 346.953125 C 200.824219 346.953125 200.71875 346.988281 200.574219 346.988281 C 200.933594 346.632812 201.25 346.242188 201.609375 345.886719 C 201.359375 346.277344 201.144531 346.632812 200.96875 346.953125 Z M 253.304688 336.742188 C 253.199219 337.917969 253.519531 339.019531 254.445312 339.980469 C 254.730469 340.195312 255.050781 340.300781 255.335938 340.40625 C 253.839844 341.902344 252.382812 343.359375 250.886719 344.820312 C 249.25 344.820312 247.578125 344.855469 245.941406 344.890625 C 248.46875 342.257812 250.957031 339.480469 253.304688 336.742188 Z M 293.582031 303.191406 C 294.863281 307.105469 295.398438 311.160156 295.648438 315.253906 C 295.574219 315.289062 295.46875 315.324219 295.398438 315.359375 C 295.078125 314.933594 294.757812 314.539062 294.4375 314.21875 C 294.402344 314.007812 294.367188 313.792969 294.296875 313.617188 C 294.542969 312.441406 294.257812 311.125 293.371094 310.199219 C 291.519531 308.492188 289.917969 308.988281 288.386719 310.09375 C 287.285156 310.234375 286.253906 310.625 285.433594 311.300781 C 285.078125 310.023438 284.046875 308.917969 282.304688 308.632812 C 281.273438 308.5625 280.097656 308.707031 278.816406 309.023438 C 278.925781 307.351562 278.390625 305.679688 277.429688 304.292969 C 282.800781 303.867188 288.210938 303.367188 293.582031 303.191406 Z M 261.488281 305.539062 C 259.710938 306.535156 257.933594 307.566406 256.1875 308.597656 C 254.445312 307.746094 251.953125 308.136719 250.78125 310.519531 C 249.464844 311.835938 248.074219 313.117188 246.722656 314.398438 C 246.511719 313.542969 246.046875 312.726562 245.441406 312.050781 C 247.578125 309.203125 249.144531 306.925781 249.925781 305.609375 C 249.925781 305.574219 249.890625 305.539062 249.890625 305.503906 C 253.769531 305.753906 257.613281 305.714844 261.488281 305.539062 Z M 234.304688 303.226562 C 234.234375 303.332031 234.128906 303.4375 234.058594 303.511719 C 230.535156 306.960938 226.691406 310.449219 222.957031 314.042969 C 222.8125 313.296875 222.492188 312.582031 222.03125 311.941406 C 222.03125 311.941406 221.996094 311.90625 221.996094 311.90625 C 220.75 307.851562 215.660156 304.613281 210.609375 309.097656 C 209.007812 310.34375 207.515625 311.660156 206.019531 312.976562 C 205.238281 312.796875 204.347656 312.832031 203.351562 313.222656 C 202.25 313.828125 201.179688 314.46875 200.113281 315.144531 C 207.160156 309.273438 213.882812 303.046875 219.859375 296.074219 C 224.664062 291.023438 221.425781 286.183594 217.796875 285.1875 C 217.441406 284.226562 216.835938 283.371094 216.054688 282.730469 C 216.585938 282.339844 217.15625 281.949219 217.691406 281.558594 C 218.933594 280.382812 219.328125 278.851562 219.148438 277.429688 C 221.320312 275.046875 222.136719 272.484375 220.074219 269.78125 C 219.253906 269.105469 218.472656 268.710938 217.691406 268.5 C 217.976562 268.285156 218.222656 268.035156 218.4375 267.753906 C 221.140625 264.335938 219.398438 260.246094 216.339844 258.679688 C 216.585938 258.5 216.835938 258.289062 217.085938 258.109375 C 218.792969 257.71875 220.214844 256.257812 220.679688 254.621094 C 222.28125 248.894531 214.273438 245.691406 211.429688 250.851562 C 207.835938 253.449219 204.382812 256.257812 201.039062 259.175781 C 201.109375 258.714844 201.179688 258.324219 201.144531 257.96875 C 201.429688 257.613281 201.75 257.292969 202 256.933594 C 203.246094 255.015625 200.574219 252.664062 198.832031 254.160156 C 198.40625 254.621094 197.835938 255.015625 197.230469 255.40625 C 203.207031 249.75 209.257812 244.160156 215.734375 239.109375 C 219.042969 238.539062 219.042969 233.703125 216.054688 233.023438 C 218.4375 230.535156 220.785156 228.042969 223.027344 225.410156 C 223.667969 224.058594 223.5625 222.636719 223.027344 221.425781 C 223.132812 221.320312 223.242188 221.25 223.382812 221.140625 C 226.121094 217.050781 222.136719 212.105469 217.9375 212.496094 C 219.042969 211.675781 220.144531 210.894531 221.285156 210.148438 C 227.046875 206.339844 223.882812 196.769531 217.085938 196.839844 C 214.0625 196.660156 202.925781 205.34375 191.359375 216.339844 C 186.769531 220.324219 182.289062 224.378906 177.769531 228.433594 C 174.175781 231.636719 170.582031 234.804688 166.988281 237.972656 C 166.917969 236.085938 166.84375 234.234375 166.773438 232.347656 C 166.988281 232.136719 167.164062 231.921875 167.34375 231.746094 C 169.121094 229.824219 170.972656 227.902344 172.824219 225.945312 C 173.640625 226.265625 174.566406 226.085938 175.171875 225.375 C 177.128906 223.167969 179.085938 220.964844 181.007812 218.722656 C 183.53125 215.875 186.023438 212.992188 188.515625 210.113281 C 192.535156 206.125 196.519531 202.175781 200.503906 198.191406 C 207.265625 191.394531 213.777344 184.316406 221 178.019531 C 223.632812 176.808594 224.878906 173.464844 223.808594 170.796875 C 223.027344 168.625 221.035156 167.378906 218.933594 167.203125 C 220.75 165.492188 223.597656 164.570312 223.882812 161.757812 C 224.238281 159.054688 222.316406 157.382812 220.179688 157.097656 C 220.214844 156.703125 220.144531 156.3125 220.003906 155.886719 C 219.933594 155.636719 219.789062 155.460938 219.683594 155.246094 C 220.855469 153.503906 221.570312 151.582031 221.390625 149.375 C 221.140625 148.164062 220.535156 147.242188 219.753906 146.527344 C 220.609375 145.816406 221.425781 145.105469 222.28125 144.394531 C 223.632812 142.402344 222.992188 140.019531 221.460938 138.59375 C 220.890625 137.347656 219.96875 136.316406 218.722656 135.710938 C 219.859375 134.75 221 133.613281 220.214844 132.226562 C 219.71875 131.476562 218.652344 131.40625 217.9375 131.871094 C 217.261719 132.296875 217.085938 133.078125 216.445312 133.507812 C 215.660156 134.253906 214.878906 135 214.097656 135.75 C 213.347656 136.03125 212.601562 136.351562 211.890625 136.707031 C 216.585938 132.296875 221.425781 128.0625 226.550781 124.078125 C 225.839844 151.15625 225.480469 178.230469 226.585938 205.308594 C 228.113281 221.355469 227.476562 237.4375 226.015625 253.484375 C 225.125 265.046875 224.699219 276.539062 223.488281 288.070312 C 222.601562 296.609375 227.511719 301.160156 234.304688 303.226562 Z M 77.714844 168.839844 C 84.296875 160.511719 91.058594 152.292969 97.890625 144.144531 C 91.519531 152.542969 85.722656 161.332031 79.851562 170.046875 C 79.566406 170.476562 79.386719 170.972656 79.246094 171.472656 C 78.996094 171.257812 78.746094 171.042969 78.5 170.792969 C 78 170.226562 77.75 169.585938 77.714844 168.839844 Z M 159.265625 304.222656 C 159.660156 304.222656 160.050781 304.078125 160.441406 303.902344 C 160.40625 304.042969 160.371094 304.152344 160.371094 304.292969 C 160.296875 306.429688 162.113281 308.027344 164.105469 308.3125 C 161.011719 309.34375 157.523438 311.941406 153.964844 315.214844 C 152.328125 312.226562 148.449219 310.378906 144.964844 313.617188 C 142.972656 315.214844 141.085938 316.886719 139.199219 318.597656 C 138.0625 319.128906 137.101562 320.160156 136.210938 321.015625 C 135.785156 321.40625 135.390625 321.835938 134.964844 322.261719 C 134.289062 321.441406 133.363281 320.839844 132.367188 320.480469 C 135.179688 319.128906 134.359375 314.363281 130.660156 314.433594 C 130.054688 314.539062 129.519531 314.71875 128.953125 314.933594 C 127.707031 314.113281 126.035156 313.757812 124.042969 314.253906 C 122.832031 314.613281 121.730469 315.214844 120.734375 315.929688 C 120.769531 315.144531 120.625 314.363281 120.304688 313.6875 C 127.847656 312.546875 135.464844 311.585938 142.792969 310.199219 C 150.195312 310.199219 155.601562 308.277344 159.265625 304.222656 Z M 88.996094 321.90625 C 88.960938 321.90625 88.960938 321.90625 88.996094 321.90625 C 88.960938 321.90625 88.960938 321.90625 88.996094 321.90625 C 88.960938 321.90625 88.960938 321.90625 88.996094 321.90625 C 88.960938 321.90625 88.960938 321.90625 88.996094 321.90625 Z M 193.105469 347.628906 C 193.246094 347.558594 193.425781 347.523438 193.566406 347.417969 C 193.957031 347.203125 194.3125 347.027344 194.703125 346.8125 C 194.527344 347.0625 194.386719 347.273438 194.242188 347.523438 C 193.921875 347.558594 193.636719 347.558594 193.316406 347.59375 C 193.246094 347.628906 193.175781 347.628906 193.105469 347.628906 Z M 292.445312 345.351562 C 293.832031 342.257812 295.078125 339.125 294.757812 335.710938 C 294.6875 335.035156 294.507812 334.429688 294.222656 333.894531 C 294.863281 333.253906 295.503906 332.617188 296.109375 332.011719 C 296.253906 335.53125 296.359375 339.054688 296.535156 342.578125 C 296.609375 343.789062 297.140625 344.890625 297.925781 345.78125 C 296.144531 345.53125 294.296875 345.425781 292.445312 345.351562 Z M 292.445312 345.351562 " fill-opacity="1" fill-rule="nonzero"/></g></svg>