<svg xmlns="http://www.w3.org/2000/svg" xmlns:xlink="http://www.w3.org/1999/xlink" width="500" zoomAndPan="magnify" viewBox="0 0 375 374.999991" height="500" preserveAspectRatio="xMidYMid meet" version="1.0"><defs><g/><clipPath id="bd8a56effb"><path d="M 50 159.335938 L 115.523438 159.335938 L 115.523438 224.339844 L 50 224.339844 Z M 50 159.335938 " clip-rule="nonzero"/></clipPath><clipPath id="edf700e5f3"><path d="M 58.503906 170.214844 L 92.136719 170.214844 L 92.136719 195.058594 L 58.503906 195.058594 Z M 58.503906 170.214844 " clip-rule="nonzero"/></clipPath><clipPath id="bd3ed9391d"><path d="M 107.316406 174.351562 L 122.375 174.351562 L 122.375 189.410156 L 107.316406 189.410156 Z M 107.316406 174.351562 " clip-rule="nonzero"/></clipPath><clipPath id="69ad49e892"><path d="M 53.324219 210.941406 L 63.613281 210.941406 L 63.613281 221.230469 L 53.324219 221.230469 Z M 53.324219 210.941406 " clip-rule="nonzero"/></clipPath><clipPath id="8b06ff0f3b"><path d="M 37.5 153.894531 L 52.058594 153.894531 L 52.058594 168.453125 L 37.5 168.453125 Z M 37.5 153.894531 " clip-rule="nonzero"/></clipPath></defs><g fill="#0f5da7" fill-opacity="1"><g transform="translate(132.035424, 208.441091)"><g><path d="M 11.3125 -15.125 L 11.3125 0 L 2.96875 0 L 2.96875 -38.515625 L 20.359375 -38.515625 L 20.359375 -31.3125 L 11.3125 -31.3125 L 11.3125 -22.09375 L 19.765625 -22.09375 L 19.765625 -15.125 Z M 11.3125 -15.125 "/></g></g></g><g fill="#0f5da7" fill-opacity="1"><g transform="translate(154.297849, 208.441091)"><g><path d="M 11.3125 -38.515625 L 11.3125 0 L 2.96875 0 L 2.96875 -38.515625 Z M 11.3125 -38.515625 "/></g></g></g><g fill="#0f5da7" fill-opacity="1"><g transform="translate(168.822001, 208.441091)"><g><path d="M 25.0625 0 L 16.734375 0 L 16.734375 -31.96875 C 16.734375 -32.28125 16.625 -32.554688 16.40625 -32.796875 C 16.1875 -33.035156 15.914062 -33.15625 15.59375 -33.15625 L 12.375 -33.15625 C 12.0625 -33.15625 11.796875 -33.035156 11.578125 -32.796875 C 11.359375 -32.554688 11.25 -32.28125 11.25 -31.96875 L 11.25 0 L 2.921875 0 L 2.921875 -31.25 C 2.921875 -36.488281 5.378906 -39.109375 10.296875 -39.109375 L 17.6875 -39.109375 C 22.601562 -39.109375 25.0625 -36.488281 25.0625 -31.25 Z M 25.0625 0 "/></g></g></g><g fill="#0f5da7" fill-opacity="1"><g transform="translate(196.501232, 208.441091)"><g><path d="M 18.28125 -38.515625 C 23.195312 -38.515625 25.65625 -35.894531 25.65625 -30.65625 L 25.65625 -7.859375 C 25.65625 -2.617188 23.195312 0 18.28125 0 L 2.96875 0 L 2.96875 -38.515625 Z M 17.328125 -6.90625 L 17.328125 -31.671875 C 17.328125 -31.984375 17.21875 -32.257812 17 -32.5 C 16.78125 -32.738281 16.507812 -32.859375 16.1875 -32.859375 L 11.3125 -32.859375 L 11.3125 -5.71875 L 16.1875 -5.71875 C 16.507812 -5.71875 16.78125 -5.832031 17 -6.0625 C 17.21875 -6.300781 17.328125 -6.582031 17.328125 -6.90625 Z M 17.328125 -6.90625 "/></g></g></g><g fill="#0f5da7" fill-opacity="1"><g transform="translate(225.370967, 208.441091)"><g/></g></g><g fill="#0f5da7" fill-opacity="1"><g transform="translate(237.395067, 208.441091)"><g><path d="M 5.53125 -18.578125 C 3.90625 -19.765625 3.09375 -21.90625 3.09375 -25 L 3.09375 -28.9375 C 3.09375 -34.175781 5.554688 -36.796875 10.484375 -36.796875 L 16.78125 -36.796875 C 21.707031 -36.796875 24.171875 -34.175781 24.171875 -28.9375 L 24.171875 -27.265625 L 16.734375 -27.265625 L 16.734375 -29.109375 C 16.734375 -29.429688 16.625 -29.707031 16.40625 -29.9375 C 16.1875 -30.175781 15.914062 -30.296875 15.59375 -30.296875 L 11.609375 -30.296875 C 11.285156 -30.296875 11.015625 -30.175781 10.796875 -29.9375 C 10.585938 -29.707031 10.484375 -29.429688 10.484375 -29.109375 L 10.484375 -22.796875 C 10.484375 -22.484375 10.585938 -22.207031 10.796875 -21.96875 C 11.015625 -21.726562 11.285156 -21.609375 11.609375 -21.609375 L 26.3125 -21.609375 L 26.3125 -15.1875 L 23.984375 -15.1875 L 23.984375 -7.265625 C 23.984375 -2.023438 21.523438 0.59375 16.609375 0.59375 L 10.125 0.59375 C 5.195312 0.59375 2.734375 -2.023438 2.734375 -7.265625 L 2.734375 -11.84375 C 2.734375 -15.019531 3.664062 -17.265625 5.53125 -18.578125 Z M 15.953125 -5.71875 C 16.273438 -5.71875 16.539062 -5.832031 16.75 -6.0625 C 16.96875 -6.300781 17.078125 -6.582031 17.078125 -6.90625 L 17.078125 -15.1875 L 11.25 -15.1875 C 10.9375 -15.1875 10.671875 -15.066406 10.453125 -14.828125 C 10.234375 -14.585938 10.125 -14.304688 10.125 -13.984375 L 10.125 -6.90625 C 10.125 -6.582031 10.234375 -6.300781 10.453125 -6.0625 C 10.671875 -5.832031 10.9375 -5.71875 11.25 -5.71875 Z M 15.953125 -5.71875 "/></g></g></g><g fill="#0f5da7" fill-opacity="1"><g transform="translate(264.538563, 208.441091)"><g/></g></g><g fill="#0f5da7" fill-opacity="1"><g transform="translate(276.562664, 208.441091)"><g><path d="M 11.3125 -15.125 L 11.3125 0 L 2.96875 0 L 2.96875 -38.515625 L 20.359375 -38.515625 L 20.359375 -31.3125 L 11.3125 -31.3125 L 11.3125 -22.09375 L 19.765625 -22.09375 L 19.765625 -15.125 Z M 11.3125 -15.125 "/></g></g></g><g fill="#0f5da7" fill-opacity="1"><g transform="translate(298.825089, 208.441091)"><g><path d="M 11.3125 -38.515625 L 11.3125 0 L 2.96875 0 L 2.96875 -38.515625 Z M 11.3125 -38.515625 "/></g></g></g><g fill="#0f5da7" fill-opacity="1"><g transform="translate(313.34924, 208.441091)"><g><path d="M 25.296875 -38.515625 L 19.171875 -19.28125 L 26.078125 0 L 17.390625 0 L 13.328125 -13.453125 L 9.28125 0 L 0.53125 0 L 7.4375 -19.28125 L 1.421875 -38.515625 L 9.53125 -38.515625 L 13.328125 -26.078125 L 17.140625 -38.515625 Z M 25.296875 -38.515625 "/></g></g></g><g clip-path="url(#bd8a56effb)"><path fill="#0f5da7" d="M 75.160156 159.34375 C 81.546875 159.34375 87.929688 161.78125 92.804688 166.652344 C 101.890625 175.738281 102.5 190.085938 94.644531 199.886719 L 97.378906 202.621094 C 98.828125 202.386719 100.363281 202.816406 101.480469 203.933594 L 113.777344 216.230469 C 115.621094 218.078125 115.621094 221.070312 113.777344 222.917969 C 112.851562 223.839844 111.640625 224.300781 110.433594 224.300781 C 109.222656 224.300781 108.011719 223.839844 107.089844 222.917969 L 94.792969 210.621094 C 93.675781 209.503906 93.246094 207.96875 93.480469 206.519531 L 90.746094 203.785156 C 86.199219 207.429688 80.679688 209.253906 75.160156 209.253906 C 68.773438 209.253906 62.386719 206.816406 57.511719 201.945312 C 47.769531 192.199219 47.769531 176.398438 57.511719 166.65625 C 62.386719 161.78125 68.773438 159.34375 75.160156 159.34375 Z M 61.414062 198.042969 C 65.085938 201.714844 69.964844 203.738281 75.160156 203.738281 C 80.351562 203.738281 85.230469 201.714844 88.902344 198.042969 C 92.574219 194.371094 94.597656 189.492188 94.597656 184.300781 C 94.597656 179.105469 92.574219 174.226562 88.902344 170.554688 C 85.230469 166.882812 80.351562 164.863281 75.160156 164.863281 C 69.964844 164.863281 65.085938 166.882812 61.414062 170.554688 C 57.742188 174.226562 55.71875 179.105469 55.71875 184.300781 C 55.71875 189.492188 57.742188 194.371094 61.414062 198.042969 Z M 61.414062 198.042969 " fill-opacity="1" fill-rule="nonzero"/></g><g clip-path="url(#edf700e5f3)"><path fill="#66bc46" d="M 91.808594 194.890625 C 89.84375 193.539062 87.4375 193.0625 85.136719 192.597656 C 85.132812 190.011719 85.152344 187.425781 85.109375 184.835938 L 85.132812 184.777344 C 86.003906 184.796875 86.875 184.78125 87.75 184.78125 C 87.75 184.320312 87.757812 183.859375 87.746094 183.394531 C 87.683594 183.363281 87.570312 183.289062 87.511719 183.246094 C 86.578125 182.691406 85.679688 182.089844 84.761719 181.519531 C 83.410156 180.660156 82.054688 179.789062 80.695312 178.945312 C 79.910156 178.414062 79.097656 177.925781 78.300781 177.417969 C 77.972656 177.207031 77.644531 177 77.316406 176.785156 C 77.382812 176.597656 77.441406 176.410156 77.515625 176.222656 C 77.722656 175.765625 78.011719 175.3125 78.46875 175.070312 C 78.902344 174.800781 79.433594 174.820312 79.921875 174.835938 C 80.550781 174.9375 81.183594 175.183594 81.625 175.667969 C 81.757812 175.847656 81.878906 176.027344 82.007812 176.214844 C 82.914062 176.203125 83.816406 176.234375 84.722656 176.210938 C 84.96875 176.230469 85.117188 175.976562 85.15625 175.761719 C 85.511719 174.183594 85.605469 172.523438 85.25 170.933594 C 85.183594 170.652344 85.085938 170.257812 84.714844 170.277344 C 83.804688 170.242188 82.890625 170.269531 81.972656 170.269531 C 81.335938 171.230469 80.15625 171.90625 78.984375 171.683594 C 78.207031 171.558594 77.550781 171.09375 76.960938 170.613281 C 76.578125 170.257812 76.015625 170.40625 75.539062 170.378906 C 74.292969 170.425781 73.011719 170.230469 71.804688 170.625 C 70.144531 171.15625 68.640625 172.121094 67.367188 173.308594 C 65.945312 174.65625 64.59375 176.285156 64.269531 178.28125 C 64.269531 178.359375 64.277344 178.515625 64.277344 178.589844 C 64.71875 178.621094 65.160156 178.617188 65.605469 178.601562 C 65.804688 178.234375 66.011719 177.878906 66.269531 177.542969 C 66.863281 176.785156 67.636719 176.183594 68.460938 175.695312 C 69.472656 175.164062 70.625 174.648438 71.796875 174.875 C 72.542969 175.007812 73.003906 175.667969 73.292969 176.316406 C 73.320312 176.484375 73.339844 176.652344 73.367188 176.828125 C 71.625 177.886719 69.929688 179.011719 68.199219 180.082031 C 66.503906 181.183594 64.785156 182.253906 63.078125 183.339844 L 62.964844 183.414062 C 62.921875 183.878906 62.9375 184.332031 62.9375 184.796875 C 63.808594 184.742188 64.671875 184.78125 65.542969 184.761719 C 65.539062 187.335938 65.558594 189.910156 65.515625 192.476562 L 65.511719 192.550781 C 63.117188 193.121094 60.523438 193.539062 58.503906 195.078125 C 60.859375 194.269531 63.304688 193.746094 65.765625 193.402344 C 67.742188 193.121094 69.742188 192.972656 71.730469 192.847656 C 75.605469 192.679688 79.492188 192.792969 83.355469 193.207031 C 86.289062 193.570312 89.21875 194.082031 92.015625 195.058594 C 91.96875 195.019531 91.859375 194.9375 91.808594 194.890625 Z M 75.125 177.691406 C 75.828125 177.746094 76.605469 177.515625 77.222656 177.960938 C 77.390625 178.421875 77.34375 178.925781 77.355469 179.414062 C 77.347656 180.226562 77.335938 181.035156 77.355469 181.847656 C 77.34375 182.84375 77.320312 183.851562 77.355469 184.851562 C 77.320312 187.15625 77.347656 189.460938 77.335938 191.769531 C 77.328125 191.773438 77.316406 191.773438 77.308594 191.78125 L 76.703125 191.78125 C 76.679688 191.773438 76.644531 191.769531 76.625 191.769531 C 76.636719 190.257812 76.617188 188.746094 76.632812 187.234375 C 75.808594 187.210938 74.980469 187.230469 74.15625 187.230469 C 74.15625 188.746094 74.152344 190.265625 74.152344 191.78125 L 73.386719 191.78125 C 73.394531 187.289062 73.378906 182.796875 73.375 178.3125 C 73.601562 177.535156 74.5 177.683594 75.125 177.691406 Z M 69.867188 189.132812 C 69.3125 189.121094 68.761719 189.125 68.207031 189.121094 C 68.207031 188.570312 68.207031 188.019531 68.207031 187.472656 C 68.761719 187.472656 69.316406 187.476562 69.875 187.464844 C 69.894531 188.019531 69.90625 188.578125 69.867188 189.132812 Z M 69.886719 187.007812 C 69.324219 187.015625 68.753906 187.015625 68.191406 186.996094 C 68.207031 186.453125 68.207031 185.902344 68.199219 185.359375 C 68.742188 185.351562 69.292969 185.339844 69.839844 185.359375 C 69.855469 185.378906 69.886719 185.417969 69.902344 185.441406 C 69.894531 185.957031 69.882812 186.480469 69.886719 187.007812 Z M 72.03125 189.121094 L 70.398438 189.121094 C 70.390625 188.570312 70.382812 188.019531 70.382812 187.472656 C 70.933594 187.472656 71.484375 187.472656 72.03125 187.472656 C 72.039062 188.019531 72.039062 188.570312 72.03125 189.121094 Z M 72.039062 187.007812 C 71.496094 187 70.953125 187 70.410156 187.015625 C 70.390625 186.484375 70.382812 185.949219 70.371094 185.417969 L 70.398438 185.347656 C 70.953125 185.367188 71.511719 185.367188 72.066406 185.367188 L 72.085938 185.414062 C 72.03125 185.941406 72.03125 186.480469 72.039062 187.007812 Z M 80.417969 189.148438 L 78.6875 189.148438 L 78.6875 187.417969 L 80.417969 187.417969 Z M 80.417969 187.046875 L 78.6875 187.046875 L 78.6875 185.320312 L 80.417969 185.320312 Z M 82.582031 189.148438 L 80.855469 189.148438 L 80.855469 187.417969 L 82.582031 187.417969 Z M 82.582031 187.046875 L 80.855469 187.046875 L 80.855469 185.320312 L 82.582031 185.320312 Z M 82.582031 187.046875 " fill-opacity="1" fill-rule="nonzero"/></g><g clip-path="url(#bd3ed9391d)"><path fill="#66bc46" d="M 107.316406 181.921875 C 113.878906 182.929688 113.878906 182.929688 114.886719 189.496094 C 115.890625 182.929688 115.890625 182.929688 122.457031 181.921875 C 115.890625 180.917969 115.890625 180.917969 114.886719 174.351562 C 113.878906 180.917969 113.878906 180.917969 107.316406 181.921875 " fill-opacity="1" fill-rule="nonzero"/></g><g clip-path="url(#69ad49e892)"><path fill="#66bc46" d="M 53.324219 216.121094 C 57.816406 216.808594 57.816406 216.808594 58.507812 221.300781 C 59.191406 216.808594 59.191406 216.808594 63.683594 216.121094 C 59.191406 215.433594 59.191406 215.433594 58.507812 210.941406 C 57.816406 215.433594 57.816406 215.433594 53.324219 216.121094 " fill-opacity="1" fill-rule="nonzero"/></g><g clip-path="url(#8b06ff0f3b)"><path fill="#66bc46" d="M 37.5 161.15625 C 43.796875 162.121094 43.796875 162.121094 44.761719 168.417969 C 45.722656 162.121094 45.722656 162.121094 52.019531 161.15625 C 45.722656 160.191406 45.722656 160.191406 44.761719 153.898438 C 43.796875 160.191406 43.796875 160.191406 37.5 161.15625 " fill-opacity="1" fill-rule="nonzero"/></g></svg>