<svg xmlns="http://www.w3.org/2000/svg" xmlns:xlink="http://www.w3.org/1999/xlink" width="500" zoomAndPan="magnify" viewBox="0 0 375 374.999991" height="500" preserveAspectRatio="xMidYMid meet" version="1.0"><path fill="#66bc46" d="M 329.648438 35.648438 C 327.027344 21.09375 310.035156 16.398438 297.1875 15.742188 C 288.34375 15.015625 279.464844 14.6875 270.621094 15.632812 C 266.542969 16.035156 262.140625 15.597656 258.5 17.671875 C 249.328125 24.332031 243.105469 45.730469 238.738281 61.816406 C 237.574219 63.234375 236.847656 64.765625 237.539062 66.328125 C 236.738281 69.277344 236.011719 71.933594 235.355469 74.152344 C 231.207031 89.546875 227.203125 105.015625 224.292969 120.699219 C 222.433594 123.394531 221.742188 125.796875 223.125 127.46875 C 222.652344 130.382812 222.21875 133.257812 221.816406 136.167969 C 220.90625 139.589844 221.417969 143.699219 219.269531 146.648438 C 213.484375 149.925781 206.351562 150.140625 199.871094 150.90625 C 194.15625 151.234375 188.445312 151.34375 182.730469 151.453125 C 173.960938 151.5625 164.863281 152.542969 156.308594 150.070312 C 154.707031 148.6875 152.925781 148.832031 151.6875 149.707031 C 151.613281 149.558594 151.613281 149.449219 151.542969 149.304688 C 150.742188 147.8125 149.578125 147.011719 148.230469 146.722656 C 151.613281 143.664062 153.578125 139.296875 155.945312 135.441406 C 158.964844 130.089844 161.804688 124.632812 164.714844 119.246094 C 170.613281 108.4375 176.582031 97.628906 182.183594 86.671875 C 189.0625 73.242188 197.507812 60.6875 204.347656 47.222656 C 206.496094 43.148438 209.117188 39.035156 209.988281 34.449219 C 212.535156 19.199219 203.4375 7.519531 188.296875 5.371094 C 175.816406 3.113281 153.980469 0.0195312 144.480469 10.101562 C 130.6875 23.929688 119.808594 40.234375 109.214844 56.539062 C 89.199219 87.582031 72.023438 120.519531 56.554688 154.074219 C 51.859375 165.609375 44.21875 188.027344 47.347656 199.929688 C 49.460938 205.859375 53.71875 210.882812 58.59375 214.777344 C 63.507812 218.414062 69.695312 219.980469 75.589844 221.183594 C 88.074219 223.765625 100.917969 224.09375 113.621094 223.109375 C 114.492188 223.039062 115.367188 223 116.242188 222.964844 C 117.367188 223.257812 118.570312 223.148438 119.84375 222.746094 C 124.246094 222.492188 128.652344 222.238281 133.054688 221.980469 C 133.199219 222.308594 133.34375 222.636719 133.5625 222.964844 C 136.585938 225.148438 139.3125 223.800781 141.96875 221.472656 C 150.339844 221.035156 158.710938 220.671875 167.082031 220.308594 C 167.15625 220.417969 167.226562 220.5625 167.335938 220.671875 C 168.5 221.945312 170.503906 222.019531 171.777344 220.890625 C 172.140625 220.5625 172.503906 220.273438 172.867188 219.945312 C 176.144531 219.726562 179.417969 219.472656 182.695312 219.214844 C 183.894531 219.542969 185.167969 219.472656 186.296875 218.925781 C 188.773438 218.742188 191.320312 218.5625 193.574219 219.835938 C 195.105469 236.175781 190.554688 251.679688 187.535156 267.691406 C 183.277344 287.855469 179.78125 309.214844 175.78125 329.960938 C 174.289062 338.074219 173.230469 346.300781 172.503906 354.527344 C 170.285156 369.265625 183.675781 372.976562 195.503906 374.394531 C 201.875 374.980469 208.207031 373.996094 214.539062 373.160156 C 231.277344 370.757812 247.363281 370.613281 256.9375 354.160156 C 259.046875 350.050781 260.976562 345.863281 262.796875 341.679688 C 263.851562 340.949219 264.796875 340.113281 265.597656 339.167969 C 266.433594 337.492188 266.507812 335.636719 265.960938 333.925781 C 265.996094 333.816406 266.070312 333.671875 266.105469 333.5625 C 271.054688 333.054688 273.386719 326.210938 270.148438 322.644531 C 288.78125 268.417969 290.5625 209.390625 304.390625 153.601562 C 307.160156 141.191406 310.105469 128.851562 313.054688 116.480469 C 317.785156 96.644531 320.914062 76.664062 325.792969 56.832031 C 327.175781 49.808594 330.777344 43 329.648438 35.648438 Z M 251.402344 313.800781 C 251.367188 313.800781 251.367188 313.839844 251.332031 313.839844 C 251.914062 313.472656 252.53125 313.109375 253.113281 312.746094 C 253.078125 312.855469 253.078125 312.964844 253.042969 313.074219 C 252.421875 313.363281 251.878906 313.621094 251.402344 313.800781 Z M 54.371094 194.578125 C 54.84375 193.269531 55.355469 191.996094 55.902344 190.722656 C 60.304688 190.902344 64.34375 184.277344 68.128906 182.277344 C 68.894531 181.660156 69.695312 181.078125 70.457031 180.496094 C 64.707031 185.480469 60.339844 190.320312 62.085938 193.304688 C 59.722656 195.304688 57.355469 197.34375 55.027344 199.382812 C 54.226562 197.890625 53.828125 196.289062 54.371094 194.578125 Z M 92.003906 124.886719 C 92.402344 125.175781 92.875 125.394531 93.347656 125.539062 C 92.367188 126.378906 91.3125 127.214844 90.257812 128.089844 C 90.839844 127.03125 91.421875 125.941406 92.003906 124.886719 Z M 162.859375 22.839844 C 163.878906 22.65625 164.644531 22.332031 165.226562 21.855469 C 165.296875 21.855469 165.371094 21.894531 165.40625 21.894531 C 164.644531 22.585938 163.878906 23.238281 163.152344 23.785156 C 160.3125 26.40625 148.085938 36.777344 136.402344 47.949219 C 136.4375 47.914062 136.4375 47.878906 136.476562 47.84375 C 144.992188 39.179688 153.578125 30.191406 162.859375 22.839844 Z M 183.785156 51.300781 C 180.074219 51.625 176.433594 52.9375 172.90625 54.648438 C 178.800781 49.480469 184.730469 44.382812 190.808594 39.433594 C 188.515625 43.402344 186.152344 47.367188 183.785156 51.300781 Z M 151.871094 122.664062 C 151.285156 122.230469 150.632812 121.902344 149.941406 121.71875 C 150.886719 121.136719 151.871094 120.589844 152.851562 119.972656 C 152.523438 120.882812 152.195312 121.792969 151.871094 122.664062 Z M 69.585938 164.554688 C 71.769531 162.660156 73.953125 160.769531 76.171875 158.914062 C 72.933594 161.96875 70.203125 164.773438 68.09375 167.175781 C 68.601562 166.335938 69.074219 165.464844 69.585938 164.554688 Z M 157.035156 108.871094 C 156.417969 108.910156 155.761719 109.019531 155.035156 109.199219 C 154.960938 108.472656 154.746094 107.746094 154.269531 107.054688 C 153.871094 103.195312 144.480469 107.527344 131.925781 115.570312 C 140.734375 108.617188 149.757812 101.957031 159.546875 96.570312 C 160.605469 96.246094 161.476562 95.625 162.132812 94.824219 C 160.457031 99.519531 158.746094 104.179688 157.035156 108.871094 Z M 165.734375 85.328125 C 165.296875 85.472656 164.863281 85.652344 164.535156 85.800781 C 163.332031 86.273438 162.167969 86.820312 161.003906 87.363281 C 158.203125 85.363281 154.378906 86.746094 150.523438 89.148438 C 157 84.054688 163.625 79.210938 170.539062 74.734375 C 168.792969 78.195312 167.226562 81.722656 165.734375 85.328125 Z M 189.316406 27.0625 C 189.355469 26.914062 189.390625 26.808594 189.390625 26.660156 C 189.5 26.699219 189.609375 26.734375 189.71875 26.769531 C 189.609375 26.878906 189.464844 26.988281 189.316406 27.0625 Z M 179.527344 25.351562 C 179.671875 25.167969 179.78125 24.988281 179.929688 24.804688 C 180.074219 24.839844 180.183594 24.839844 180.328125 24.878906 C 180.074219 25.058594 179.820312 25.207031 179.527344 25.351562 Z M 116.457031 80.886719 C 116.933594 80.960938 117.40625 80.960938 117.878906 80.886719 C 116.675781 82.125 115.476562 83.398438 114.3125 84.636719 C 114.273438 84.671875 114.238281 84.707031 114.238281 84.746094 C 114.964844 83.507812 115.695312 82.195312 116.457031 80.886719 Z M 133.453125 77.246094 C 138.914062 72.117188 144.226562 66.875 149.578125 61.707031 C 142.953125 68.367188 136.402344 75.136719 129.707031 81.6875 C 128.324219 82.996094 126.976562 84.34375 125.59375 85.652344 C 128.359375 82.414062 130.980469 78.777344 133.453125 77.246094 Z M 65.4375 199.527344 C 74.753906 191.957031 85.125 185.84375 94.878906 178.855469 C 102.957031 173.035156 110.890625 166.992188 118.824219 160.988281 C 126.359375 155.382812 133.855469 149.707031 141.714844 144.539062 C 144.371094 143.300781 145.535156 140.171875 144.554688 137.550781 C 145.320312 137.113281 146.082031 136.675781 146.847656 136.277344 C 146.59375 136.96875 146.335938 137.625 146.121094 138.316406 C 145.136719 140.972656 144.773438 143.917969 144.84375 146.722656 C 144.84375 146.757812 144.882812 146.792969 144.882812 146.832031 C 144.082031 147.011719 143.28125 147.304688 142.40625 147.667969 C 139.277344 145.375 136.476562 148.359375 133.890625 150.507812 C 124.792969 157.785156 114.894531 165.792969 105.722656 173.652344 C 90.109375 184.933594 66.78125 202.113281 67.183594 208.878906 C 64.269531 208.007812 61.613281 206.589844 59.285156 204.550781 C 61.542969 203.203125 63.652344 200.582031 65.4375 199.527344 Z M 95.605469 206.113281 C 95.097656 207.460938 95.097656 208.878906 95.898438 210.300781 C 95.898438 210.335938 95.933594 210.335938 95.933594 210.371094 C 94.40625 210.371094 92.839844 210.371094 91.3125 210.371094 C 92.765625 208.988281 94.1875 207.425781 95.605469 206.113281 Z M 108.742188 206.769531 C 128.941406 193.414062 148.375 178.746094 169.011719 166.082031 C 163.078125 170.742188 157.472656 175.691406 154.746094 177.183594 C 147.648438 182.75 140.84375 188.683594 133.964844 194.503906 C 131.488281 197.78125 120.863281 204.296875 115.257812 210.007812 C 111.582031 210.117188 107.90625 210.191406 104.230469 210.265625 C 105.867188 209.0625 107.398438 207.644531 108.742188 206.769531 Z M 245.910156 93.804688 C 249.621094 90.457031 253.261719 86.128906 256.355469 84.636719 C 258.246094 83.144531 260.175781 81.652344 262.105469 80.160156 C 254.570312 87.328125 248.675781 94.171875 248.09375 98.574219 C 246.929688 99.703125 245.398438 101.011719 243.726562 102.429688 C 244.453125 99.59375 245.179688 96.71875 245.910156 93.804688 Z M 230.152344 156.691406 C 230.113281 156.691406 230.042969 156.691406 230.003906 156.691406 C 231.714844 155.492188 233.390625 154.253906 235.101562 153.089844 C 237.867188 151.34375 240.632812 149.558594 243.359375 147.777344 C 240.160156 150.179688 234.992188 153.382812 230.152344 156.691406 Z M 175.597656 161.277344 C 175.671875 161.167969 175.742188 161.023438 175.816406 160.914062 C 175.925781 160.914062 175.996094 160.953125 176.105469 160.953125 C 175.925781 161.058594 175.742188 161.167969 175.597656 161.277344 Z M 149.03125 203.53125 C 147.976562 204.476562 146.882812 205.460938 145.828125 206.40625 C 145.320312 207.097656 144.628906 207.753906 143.789062 208.445312 C 142.699219 208.554688 141.644531 208.664062 140.550781 208.773438 C 143.390625 207.0625 146.226562 205.3125 149.03125 203.53125 Z M 174.324219 205.460938 C 189.535156 194.25 204.929688 182.714844 220.871094 172.378906 C 221.597656 172.597656 222.363281 172.632812 223.089844 172.453125 C 220.980469 173.871094 218.90625 175.363281 216.792969 176.746094 C 206.3125 184.171875 196.449219 192.394531 186.515625 200.511719 C 184.550781 202.113281 182.621094 203.675781 180.65625 205.277344 C 178.546875 205.277344 176.433594 205.351562 174.324219 205.460938 Z M 282.046875 171.796875 C 282.011719 170.921875 281.757812 170.011719 281.210938 169.25 C 279.679688 167.066406 276.625 166.519531 274.441406 168.046875 C 271.601562 170.011719 268.582031 171.722656 265.632812 173.542969 C 254.824219 180.019531 243.433594 187.847656 234.007812 196.542969 C 227.785156 202.039062 221.34375 207.316406 215.15625 212.847656 C 214.027344 213.867188 213.957031 215.648438 214.976562 216.777344 C 215.738281 217.613281 216.902344 217.871094 217.921875 217.542969 C 215.011719 219.796875 212.101562 222.054688 209.1875 224.382812 C 208.898438 221.253906 208.316406 218.378906 207.441406 215.941406 C 208.023438 215.648438 208.570312 215.214844 209.007812 214.703125 C 215.847656 207.679688 223.636719 200.945312 231.605469 194.46875 C 240.230469 187.773438 249.003906 181.296875 257.480469 174.417969 C 265.125 168.375 273.929688 161.023438 282.882812 156.21875 C 284.375 155.710938 285.394531 154.835938 286.050781 153.78125 C 285.90625 154.402344 285.757812 155.019531 285.613281 155.601562 C 284.339844 160.988281 283.175781 166.410156 282.046875 171.796875 Z M 232.769531 205.933594 C 230.550781 207.679688 228.332031 209.425781 226.109375 211.171875 C 224.507812 212.410156 222.945312 213.648438 221.34375 214.886719 C 222.945312 213.539062 224.546875 212.191406 226.183594 210.882812 C 228.332031 209.136719 230.550781 207.535156 232.769531 205.933594 Z M 271.746094 218.453125 C 271.382812 218.671875 270.984375 218.890625 270.621094 219.105469 C 270.839844 218.160156 270.839844 217.214844 270.621094 216.304688 C 271.636719 215.578125 272.695312 214.847656 273.714844 214.121094 C 273.457031 215.429688 273.203125 216.777344 272.984375 218.089844 C 272.585938 218.160156 272.183594 218.269531 271.746094 218.453125 Z M 255.40625 303.792969 C 255.226562 303.683594 255.078125 303.574219 254.898438 303.503906 C 253.042969 302.703125 250.785156 303.066406 249.476562 304.703125 C 247.945312 305.503906 246.382812 306.339844 244.890625 307.179688 C 237.609375 311.21875 230.441406 315.511719 223.710938 320.351562 C 217.304688 324.972656 210.824219 329.488281 204.058594 333.527344 C 203.910156 333.671875 203.730469 333.78125 203.546875 333.925781 C 203.472656 333.417969 203.328125 333.015625 203.148438 332.761719 C 204.238281 330.289062 206.894531 327.15625 208.898438 323.992188 C 210.863281 322.972656 212.863281 322.027344 214.867188 321.117188 C 225.964844 316.132812 236.8125 310.671875 247.472656 304.847656 C 250.167969 303.429688 252.859375 302.011719 255.589844 300.699219 C 255.808594 300.589844 256.027344 300.480469 256.246094 300.371094 C 255.953125 301.5 255.699219 302.664062 255.40625 303.792969 Z M 257.738281 294.148438 C 256.789062 293.457031 255.554688 293.238281 254.386719 293.820312 C 245.035156 296.371094 236.300781 300.664062 227.675781 305.066406 C 221.851562 308.125 216.210938 311.472656 210.679688 315.039062 C 210.351562 314.492188 209.953125 313.984375 209.371094 313.472656 C 210.425781 311.980469 211.554688 310.488281 212.683594 309 C 218.25 306.160156 224.109375 303.902344 229.714844 301.136719 C 239.832031 296.152344 249.621094 290.511719 259.703125 285.488281 C 259.046875 288.328125 258.390625 291.238281 257.738281 294.148438 Z M 262.394531 272.894531 C 261.703125 272.785156 261.011719 272.785156 260.175781 272.933594 C 257.261719 273.769531 254.386719 274.644531 251.621094 275.84375 C 248.382812 277.191406 245.144531 278.644531 241.976562 280.175781 C 248.128906 276.171875 253.953125 271.585938 260.175781 267.765625 C 261.996094 267.363281 263.269531 266.308594 264.03125 265.035156 C 263.488281 267.65625 262.941406 270.277344 262.394531 272.894531 Z M 218.324219 255.136719 C 217.304688 255.972656 216.285156 256.808594 215.230469 257.648438 C 213.445312 259.941406 208.714844 262.414062 205.074219 265.21875 C 205.148438 264.925781 205.183594 264.636719 205.257812 264.34375 C 207.839844 262.015625 210.609375 259.722656 213.375 257.464844 C 215.8125 255.683594 218.285156 253.898438 220.726562 252.117188 C 219.925781 253.136719 219.125 254.117188 218.324219 255.136719 Z M 202.710938 275.625 C 202.890625 275.734375 203.074219 275.808594 203.257812 275.84375 C 202.929688 276.246094 202.636719 276.609375 202.382812 276.9375 C 202.492188 276.5 202.601562 276.0625 202.710938 275.625 Z M 264.796875 261.140625 C 264.578125 259.140625 263.414062 257.285156 261.449219 256.375 C 263.011719 255.390625 264.578125 254.445312 266.253906 253.71875 C 265.78125 256.191406 265.304688 258.667969 264.796875 261.140625 Z M 275.058594 207.0625 C 274.660156 206.769531 274.222656 206.550781 273.714844 206.480469 C 274.257812 206.1875 274.804688 205.933594 275.3125 205.679688 C 275.207031 206.113281 275.132812 206.589844 275.058594 207.0625 Z M 250.3125 220.164062 C 246.929688 222.492188 243.542969 224.820312 240.195312 227.148438 C 230.804688 233.917969 222 241.527344 213.335938 249.203125 C 211.226562 251.058594 209.152344 252.917969 207.042969 254.773438 C 207.332031 253.027344 207.625 251.277344 207.878906 249.496094 C 210.171875 248.839844 212.355469 246.257812 214.210938 244.875 C 226.183594 236.574219 238.085938 227.949219 250.386719 219.980469 C 250.421875 220.089844 250.386719 220.125 250.3125 220.164062 Z M 210.0625 203.53125 C 207.914062 205.605469 205.804688 207.714844 203.730469 209.863281 C 203.21875 209.390625 202.675781 208.953125 202.089844 208.589844 C 204.75 206.84375 207.40625 205.167969 210.0625 203.53125 Z M 201.074219 282.105469 C 201.109375 282.105469 201.109375 282.140625 201.144531 282.140625 C 201.074219 282.285156 201 282.46875 200.925781 282.613281 C 201 282.46875 201.035156 282.285156 201.074219 282.105469 Z M 268.144531 243.890625 C 264.03125 243.964844 258.429688 247.820312 255.335938 249.09375 C 252.277344 250.660156 249.257812 252.296875 246.273438 253.972656 C 252.53125 249.894531 258.828125 245.890625 265.195312 242.035156 C 268.835938 239.960938 269.636719 237.160156 268.800781 234.9375 C 269.199219 234.71875 269.601562 234.464844 270 234.246094 C 269.382812 237.414062 268.761719 240.652344 268.144531 243.890625 Z M 277.933594 192.066406 C 276.332031 191.484375 274.40625 191.628906 272.402344 192.941406 C 252.605469 203.75 233.535156 215.941406 217.121094 231.554688 C 215.667969 233.589844 212.28125 235.738281 209.226562 238.066406 C 209.332031 236.574219 209.40625 235.121094 209.441406 233.664062 C 210.207031 233.046875 210.972656 232.355469 211.625 231.808594 C 215.847656 228.460938 220.214844 225.113281 224.65625 221.910156 C 236.664062 213.320312 249.148438 205.386719 261.304688 197.054688 C 267.089844 193.339844 272.765625 189.335938 278.988281 186.390625 C 278.664062 188.28125 278.296875 190.175781 277.933594 192.066406 Z M 286.886719 150.25 C 286.777344 148.796875 286.160156 147.375 285.140625 146.359375 C 286.195312 145.667969 287.214844 145.011719 288.269531 144.355469 C 287.796875 146.285156 287.359375 148.25 286.886719 150.25 Z M 290.453125 134.859375 C 288.414062 133.730469 285.722656 133.800781 284.011719 136.09375 C 268.035156 144.867188 253.042969 155.347656 239.140625 167.175781 C 238.195312 166.011719 236.628906 165.355469 234.992188 165.972656 C 232.878906 166.703125 230.84375 167.683594 228.914062 168.8125 C 230.367188 167.574219 231.789062 166.375 233.097656 165.753906 C 252.714844 152.617188 271.855469 138.425781 292.347656 126.667969 C 291.691406 129.398438 291.074219 132.128906 290.453125 134.859375 Z M 299.042969 97.554688 C 298.023438 97.664062 296.96875 97.992188 296.023438 98.683594 C 294.09375 100.03125 292.019531 101.195312 290.015625 102.429688 C 289.144531 102.976562 288.269531 103.558594 287.433594 104.105469 C 291.289062 101.414062 295.222656 98.828125 299.296875 96.5 C 299.222656 96.863281 299.152344 97.191406 299.042969 97.554688 Z M 258.902344 108.070312 C 253.734375 112.585938 248.601562 117.171875 243.433594 121.71875 C 241.324219 123.574219 239.210938 125.46875 237.101562 127.359375 C 237.757812 125.140625 238.375 122.957031 238.992188 120.738281 C 261.667969 101.703125 282.921875 79.792969 308.175781 64.363281 C 307.160156 67.601562 306.175781 70.84375 305.230469 74.082031 C 288.890625 84.015625 273.347656 95.40625 258.902344 108.070312 Z M 315.457031 37.617188 C 313.636719 37.871094 311.707031 38.890625 309.742188 40.308594 C 308.867188 23.457031 266.617188 63.601562 260.722656 67.09375 C 259.445312 68.730469 256.390625 71.132812 252.75 73.9375 C 266.652344 61.707031 280.15625 48.167969 295.804688 38.707031 C 299.078125 35.867188 297.039062 30.082031 292.710938 29.9375 C 281.683594 33.683594 272.730469 43.039062 263.742188 50.390625 C 262.320312 52.425781 258.5 55.558594 254.425781 59.015625 C 254.714844 57.777344 255.007812 56.503906 255.296875 55.265625 C 262.90625 47.804688 270.765625 40.382812 278.625 33.285156 C 280.554688 31.828125 282.410156 30.300781 284.523438 29.136719 C 284.847656 29.0625 285.175781 28.917969 285.46875 28.773438 C 286.304688 28.84375 287.140625 28.917969 287.980469 28.953125 C 296.605469 30.265625 310.140625 29.425781 315.457031 37.617188 Z M 263.960938 27.316406 C 267.5625 27.023438 271.203125 27.28125 274.804688 27.644531 C 269.492188 31.757812 264.6875 36.632812 259.703125 41.109375 C 259.191406 41.582031 258.71875 42.054688 258.210938 42.527344 C 259.375 37.179688 260.828125 31.828125 263.960938 27.316406 Z M 157.65625 158.402344 C 156.671875 159.058594 155.691406 159.75 154.746094 160.476562 C 152.5625 152.324219 135.929688 166.738281 130.871094 168.957031 C 130.144531 169.46875 129.015625 170.230469 127.59375 171.140625 C 132.472656 167.503906 137.386719 163.933594 142.515625 160.695312 C 145.027344 159.058594 148.996094 157.53125 150.960938 155.164062 C 151.105469 155.308594 151.25 155.492188 151.394531 155.636719 C 153.214844 157.09375 155.398438 157.894531 157.65625 158.402344 Z M 113.582031 85.910156 C 112.964844 87.546875 113.4375 89.585938 114.820312 90.75 C 116.894531 91.988281 118.898438 91.550781 120.863281 90.238281 C 118.859375 92.167969 116.824219 94.097656 114.820312 96.027344 C 114.058594 96.753906 113.65625 97.738281 113.621094 98.71875 C 111.363281 101.230469 105.757812 105.089844 100.589844 109.199219 C 104.847656 101.414062 109.144531 93.625 113.582031 85.910156 Z M 74.972656 210.117188 C 76.898438 208.554688 78.753906 206.40625 80.503906 205.3125 C 84.179688 202.402344 88 199.671875 91.820312 196.945312 C 85.925781 202.113281 81.667969 206.914062 81.339844 210.226562 C 79.191406 210.226562 77.082031 210.191406 74.972656 210.117188 Z M 178.800781 358.164062 C 179.964844 353.46875 181.09375 348.8125 182.332031 344.117188 C 186.769531 328.796875 191.9375 313.691406 196.632812 298.480469 C 197.03125 297.0625 197.542969 295.242188 198.089844 293.167969 C 197.941406 295.496094 198.269531 297.570312 199.105469 299.28125 C 197.90625 300.300781 197.542969 302.011719 198.378906 303.394531 C 194.265625 310.488281 192.410156 317.296875 195.539062 322.753906 C 191.101562 327.777344 179.929688 342.117188 192.449219 343.789062 C 192.230469 344.953125 191.71875 346.265625 191.066406 347.648438 C 190.882812 347.902344 190.738281 348.191406 190.628906 348.484375 C 188.625 352.34375 185.679688 356.710938 184.621094 360.601562 C 184.332031 360.675781 184.039062 360.75 183.75 360.820312 C 181.128906 361.621094 178.144531 361.476562 178.800781 358.164062 Z M 197.871094 358.054688 C 199.144531 355.144531 200.308594 351.941406 201.21875 348.777344 C 208.023438 345.210938 214.792969 341.605469 221.632812 338.148438 C 231.644531 333.382812 241.140625 327.703125 250.601562 322.027344 C 250.167969 323.589844 249.730469 325.191406 249.257812 326.757812 C 242.453125 330.25 235.863281 334.65625 229.386719 337.96875 C 226.875 340.113281 221.34375 341.242188 218.46875 343.679688 C 213.917969 344.808594 208.496094 346.554688 209.699219 352.304688 C 210.425781 354.527344 211.734375 355.835938 213.410156 356.492188 C 208.167969 356.746094 203 357.253906 197.871094 358.054688 Z M 222.035156 356.234375 C 228.148438 354.636719 234.992188 351.175781 239.25 350.59375 C 238.449219 351.433594 237.539062 352.160156 236.519531 352.777344 C 232.261719 355.980469 227.128906 356.164062 222.035156 356.234375 Z M 222.035156 356.234375 " fill-opacity="1" fill-rule="nonzero"/></svg>