<svg xmlns="http://www.w3.org/2000/svg" xmlns:xlink="http://www.w3.org/1999/xlink" width="1000" zoomAndPan="magnify" viewBox="0 0 750 112.499997" height="150" preserveAspectRatio="xMidYMid meet" version="1.0"><defs><g/><clipPath id="0f02e3440b"><path d="M 21 6.832031 L 126 6.832031 L 126 110.636719 L 21 110.636719 Z M 21 6.832031 " clip-rule="nonzero"/></clipPath><clipPath id="2904ea5bbf"><path d="M 35.203125 24.199219 L 88.910156 24.199219 L 88.910156 63.878906 L 35.203125 63.878906 Z M 35.203125 24.199219 " clip-rule="nonzero"/></clipPath><clipPath id="4fd8a6ff6e"><path d="M 113.144531 30.808594 L 137.191406 30.808594 L 137.191406 54.855469 L 113.144531 54.855469 Z M 113.144531 30.808594 " clip-rule="nonzero"/></clipPath><clipPath id="95f47f7a34"><path d="M 26.929688 89.238281 L 43.363281 89.238281 L 43.363281 105.671875 L 26.929688 105.671875 Z M 26.929688 89.238281 " clip-rule="nonzero"/></clipPath><clipPath id="0fc5a32072"><path d="M 1.660156 0 L 24.90625 0 L 24.90625 21.390625 L 1.660156 21.390625 Z M 1.660156 0 " clip-rule="nonzero"/></clipPath></defs><g fill="#0f5da7" fill-opacity="1"><g transform="translate(149.908241, 104.154383)"><g><path d="M 27.453125 -36.703125 L 27.453125 0 L 7.21875 0 L 7.21875 -93.484375 L 49.40625 -93.484375 L 49.40625 -76 L 27.453125 -76 L 27.453125 -53.609375 L 47.96875 -53.609375 L 47.96875 -36.703125 Z M 27.453125 -36.703125 "/></g></g></g><g fill="#0f5da7" fill-opacity="1"><g transform="translate(203.936141, 104.154383)"><g><path d="M 27.453125 -93.484375 L 27.453125 0 L 7.21875 0 L 7.21875 -93.484375 Z M 27.453125 -93.484375 "/></g></g></g><g fill="#0f5da7" fill-opacity="1"><g transform="translate(239.184296, 104.154383)"><g><path d="M 60.828125 0 L 40.59375 0 L 40.59375 -77.59375 C 40.59375 -78.363281 40.328125 -79.035156 39.796875 -79.609375 C 39.273438 -80.191406 38.628906 -80.484375 37.859375 -80.484375 L 30.046875 -80.484375 C 29.273438 -80.484375 28.625 -80.191406 28.09375 -79.609375 C 27.570312 -79.035156 27.3125 -78.363281 27.3125 -77.59375 L 27.3125 0 L 7.078125 0 L 7.078125 -75.859375 C 7.078125 -88.566406 13.050781 -94.921875 25 -94.921875 L 42.90625 -94.921875 C 54.851562 -94.921875 60.828125 -88.566406 60.828125 -75.859375 Z M 60.828125 0 "/></g></g></g><g fill="#0f5da7" fill-opacity="1"><g transform="translate(306.358056, 104.154383)"><g><path d="M 44.359375 -93.484375 C 56.296875 -93.484375 62.265625 -87.125 62.265625 -74.40625 L 62.265625 -19.078125 C 62.265625 -6.359375 56.296875 0 44.359375 0 L 7.21875 0 L 7.21875 -93.484375 Z M 42.046875 -16.765625 L 42.046875 -76.859375 C 42.046875 -77.628906 41.78125 -78.300781 41.25 -78.875 C 40.71875 -79.457031 40.066406 -79.75 39.296875 -79.75 L 27.453125 -79.75 L 27.453125 -13.875 L 39.296875 -13.875 C 40.066406 -13.875 40.71875 -14.160156 41.25 -14.734375 C 41.78125 -15.316406 42.046875 -15.992188 42.046875 -16.765625 Z M 42.046875 -16.765625 "/></g></g></g><g fill="#0f5da7" fill-opacity="1"><g transform="translate(376.421004, 104.154383)"><g/></g></g><g fill="#0f5da7" fill-opacity="1"><g transform="translate(405.601873, 104.154383)"><g><path d="M 13.4375 -45.078125 C 9.488281 -47.960938 7.515625 -53.164062 7.515625 -60.6875 L 7.515625 -70.21875 C 7.515625 -82.9375 13.484375 -89.296875 25.421875 -89.296875 L 40.75 -89.296875 C 52.6875 -89.296875 58.65625 -82.9375 58.65625 -70.21875 L 58.65625 -66.171875 L 40.59375 -66.171875 L 40.59375 -70.65625 C 40.59375 -71.425781 40.328125 -72.097656 39.796875 -72.671875 C 39.273438 -73.253906 38.628906 -73.546875 37.859375 -73.546875 L 28.171875 -73.546875 C 27.398438 -73.546875 26.75 -73.253906 26.21875 -72.671875 C 25.6875 -72.097656 25.421875 -71.425781 25.421875 -70.65625 L 25.421875 -55.34375 C 25.421875 -54.570312 25.6875 -53.894531 26.21875 -53.3125 C 26.75 -52.738281 27.398438 -52.453125 28.171875 -52.453125 L 63.859375 -52.453125 L 63.859375 -36.84375 L 58.234375 -36.84375 L 58.234375 -17.625 C 58.234375 -4.914062 52.257812 1.4375 40.3125 1.4375 L 24.5625 1.4375 C 12.613281 1.4375 6.640625 -4.914062 6.640625 -17.625 L 6.640625 -28.75 C 6.640625 -36.457031 8.90625 -41.898438 13.4375 -45.078125 Z M 38.71875 -13.875 C 39.488281 -13.875 40.140625 -14.160156 40.671875 -14.734375 C 41.203125 -15.316406 41.46875 -15.992188 41.46875 -16.765625 L 41.46875 -36.84375 L 27.3125 -36.84375 C 26.539062 -36.84375 25.890625 -36.550781 25.359375 -35.96875 C 24.828125 -35.394531 24.5625 -34.722656 24.5625 -33.953125 L 24.5625 -16.765625 C 24.5625 -15.992188 24.828125 -15.316406 25.359375 -14.734375 C 25.890625 -14.160156 26.539062 -13.875 27.3125 -13.875 Z M 38.71875 -13.875 "/></g></g></g><g fill="#0f5da7" fill-opacity="1"><g transform="translate(471.475473, 104.154383)"><g/></g></g><g fill="#0f5da7" fill-opacity="1"><g transform="translate(500.656342, 104.154383)"><g><path d="M 27.453125 -36.703125 L 27.453125 0 L 7.21875 0 L 7.21875 -93.484375 L 49.40625 -93.484375 L 49.40625 -76 L 27.453125 -76 L 27.453125 -53.609375 L 47.96875 -53.609375 L 47.96875 -36.703125 Z M 27.453125 -36.703125 "/></g></g></g><g fill="#0f5da7" fill-opacity="1"><g transform="translate(554.684242, 104.154383)"><g><path d="M 27.453125 -93.484375 L 27.453125 0 L 7.21875 0 L 7.21875 -93.484375 Z M 27.453125 -93.484375 "/></g></g></g><g fill="#0f5da7" fill-opacity="1"><g transform="translate(589.932397, 104.154383)"><g><path d="M 61.40625 -93.484375 L 46.53125 -46.8125 L 63.28125 0 L 42.1875 0 L 32.359375 -32.65625 L 22.546875 0 L 1.296875 0 L 18.0625 -46.8125 L 3.46875 -93.484375 L 23.125 -93.484375 L 32.359375 -63.28125 L 41.609375 -93.484375 Z M 61.40625 -93.484375 "/></g></g></g><g clip-path="url(#0f02e3440b)"><path fill="#0f5da7" d="M 61.796875 6.84375 C 71.996094 6.84375 82.191406 10.734375 89.972656 18.515625 C 104.484375 33.023438 105.457031 55.9375 92.914062 71.582031 L 97.28125 75.949219 C 99.59375 75.578125 102.046875 76.261719 103.828125 78.046875 L 123.464844 97.683594 C 126.414062 100.632812 126.414062 105.414062 123.464844 108.359375 C 121.992188 109.835938 120.058594 110.574219 118.125 110.574219 C 116.195312 110.574219 114.261719 109.835938 112.789062 108.359375 L 93.148438 88.722656 C 91.367188 86.941406 90.679688 84.492188 91.054688 82.179688 L 86.683594 77.8125 C 79.429688 83.628906 70.613281 86.542969 61.796875 86.542969 C 51.597656 86.542969 41.398438 82.652344 33.617188 74.871094 C 18.054688 59.308594 18.054688 34.078125 33.617188 18.515625 C 41.398438 10.734375 51.597656 6.84375 61.796875 6.84375 Z M 39.847656 68.644531 C 45.710938 74.503906 53.503906 77.734375 61.796875 77.734375 C 70.085938 77.734375 77.882812 74.503906 83.746094 68.644531 C 89.609375 62.78125 92.835938 54.984375 92.835938 46.695312 C 92.835938 38.402344 89.609375 30.605469 83.746094 24.746094 C 77.882812 18.882812 70.085938 15.652344 61.796875 15.652344 C 53.503906 15.652344 45.710938 18.882812 39.847656 24.746094 C 33.984375 30.605469 30.753906 38.402344 30.753906 46.695312 C 30.753906 54.984375 33.984375 62.78125 39.847656 68.644531 Z M 39.847656 68.644531 " fill-opacity="1" fill-rule="nonzero"/></g><g clip-path="url(#2904ea5bbf)"><path fill="#66bc46" d="M 88.382812 63.609375 C 85.246094 61.445312 81.402344 60.6875 77.730469 59.945312 C 77.722656 55.816406 77.753906 51.683594 77.6875 47.550781 L 77.722656 47.457031 C 79.113281 47.488281 80.503906 47.464844 81.90625 47.464844 C 81.90625 46.726562 81.917969 45.988281 81.894531 45.25 C 81.800781 45.195312 81.617188 45.078125 81.519531 45.015625 C 80.035156 44.125 78.597656 43.164062 77.132812 42.253906 C 74.96875 40.882812 72.808594 39.492188 70.636719 38.140625 C 69.382812 37.296875 68.085938 36.515625 66.8125 35.703125 C 66.289062 35.371094 65.765625 35.039062 65.238281 34.695312 C 65.347656 34.394531 65.441406 34.097656 65.5625 33.796875 C 65.894531 33.070312 66.351562 32.339844 67.082031 31.957031 C 67.777344 31.527344 68.621094 31.558594 69.402344 31.582031 C 70.410156 31.742188 71.417969 32.136719 72.121094 32.90625 C 72.335938 33.195312 72.53125 33.484375 72.734375 33.785156 C 74.179688 33.765625 75.621094 33.816406 77.066406 33.773438 C 77.464844 33.808594 77.699219 33.398438 77.765625 33.058594 C 78.332031 30.542969 78.480469 27.886719 77.914062 25.351562 C 77.808594 24.902344 77.644531 24.269531 77.058594 24.300781 C 75.601562 24.25 74.144531 24.289062 72.679688 24.289062 C 71.664062 25.820312 69.777344 26.902344 67.90625 26.550781 C 66.664062 26.347656 65.613281 25.609375 64.671875 24.835938 C 64.0625 24.269531 63.164062 24.503906 62.402344 24.460938 C 60.414062 24.535156 58.367188 24.226562 56.441406 24.859375 C 53.785156 25.703125 51.386719 27.246094 49.355469 29.140625 C 47.085938 31.292969 44.921875 33.894531 44.410156 37.082031 C 44.410156 37.210938 44.417969 37.457031 44.417969 37.574219 C 45.125 37.628906 45.832031 37.617188 46.539062 37.597656 C 46.859375 37.007812 47.191406 36.441406 47.597656 35.90625 C 48.550781 34.695312 49.78125 33.730469 51.097656 32.949219 C 52.714844 32.105469 54.558594 31.28125 56.429688 31.644531 C 57.617188 31.859375 58.355469 32.90625 58.816406 33.945312 C 58.859375 34.214844 58.890625 34.480469 58.933594 34.757812 C 56.152344 36.449219 53.445312 38.25 50.683594 39.960938 C 47.972656 41.71875 45.234375 43.429688 42.503906 45.164062 L 42.320312 45.28125 C 42.257812 46.019531 42.277344 46.75 42.277344 47.488281 C 43.671875 47.402344 45.050781 47.464844 46.441406 47.433594 C 46.433594 51.542969 46.464844 55.65625 46.398438 59.753906 L 46.390625 59.871094 C 42.566406 60.78125 38.425781 61.445312 35.203125 63.90625 C 38.960938 62.613281 42.867188 61.777344 46.796875 61.230469 C 49.953125 60.78125 53.144531 60.546875 56.324219 60.34375 C 62.511719 60.074219 68.71875 60.257812 74.882812 60.921875 C 79.574219 61.5 84.25 62.3125 88.714844 63.875 C 88.640625 63.8125 88.46875 63.683594 88.382812 63.609375 Z M 61.738281 36.140625 C 62.863281 36.226562 64.105469 35.863281 65.089844 36.570312 C 65.359375 37.308594 65.28125 38.109375 65.304688 38.890625 C 65.292969 40.1875 65.273438 41.480469 65.304688 42.777344 C 65.28125 44.371094 65.25 45.976562 65.304688 47.574219 C 65.25 51.253906 65.292969 54.9375 65.273438 58.621094 C 65.261719 58.628906 65.238281 58.628906 65.230469 58.640625 L 64.265625 58.640625 C 64.222656 58.628906 64.167969 58.621094 64.136719 58.621094 C 64.160156 56.210938 64.125 53.792969 64.148438 51.382812 C 62.832031 51.339844 61.515625 51.371094 60.199219 51.371094 C 60.199219 53.792969 60.1875 56.222656 60.1875 58.640625 L 58.96875 58.640625 C 58.976562 51.46875 58.957031 44.296875 58.945312 37.136719 C 59.308594 35.894531 60.742188 36.128906 61.738281 36.140625 Z M 53.347656 54.414062 C 52.457031 54.390625 51.582031 54.402344 50.691406 54.390625 C 50.691406 53.515625 50.691406 52.636719 50.691406 51.757812 C 51.582031 51.757812 52.46875 51.769531 53.359375 51.746094 C 53.390625 52.636719 53.410156 53.523438 53.347656 54.414062 Z M 53.378906 51.019531 C 52.480469 51.03125 51.570312 51.03125 50.671875 51 C 50.691406 50.132812 50.691406 49.253906 50.683594 48.386719 C 51.550781 48.375 52.425781 48.355469 53.304688 48.386719 C 53.324219 48.417969 53.378906 48.484375 53.402344 48.515625 C 53.390625 49.339844 53.367188 50.175781 53.378906 51.019531 Z M 56.804688 54.390625 L 54.191406 54.390625 C 54.183594 53.515625 54.171875 52.636719 54.171875 51.757812 C 55.050781 51.757812 55.925781 51.757812 56.804688 51.757812 C 56.816406 52.636719 56.816406 53.515625 56.804688 54.390625 Z M 56.816406 51.019531 C 55.949219 51.007812 55.082031 51.007812 54.214844 51.03125 C 54.183594 50.183594 54.171875 49.328125 54.148438 48.484375 L 54.191406 48.363281 C 55.082031 48.398438 55.96875 48.398438 56.859375 48.398438 L 56.890625 48.472656 C 56.804688 49.316406 56.804688 50.175781 56.816406 51.019531 Z M 70.195312 54.433594 L 67.433594 54.433594 L 67.433594 51.671875 L 70.195312 51.671875 Z M 70.195312 51.082031 L 67.433594 51.082031 L 67.433594 48.320312 L 70.195312 48.320312 Z M 73.652344 54.433594 L 70.890625 54.433594 L 70.890625 51.671875 L 73.652344 51.671875 Z M 73.652344 51.082031 L 70.890625 51.082031 L 70.890625 48.320312 L 73.652344 48.320312 Z M 73.652344 51.082031 " fill-opacity="1" fill-rule="nonzero"/></g><g clip-path="url(#4fd8a6ff6e)"><path fill="#66bc46" d="M 113.144531 42.898438 C 123.632812 44.507812 123.632812 44.507812 125.238281 54.992188 C 126.84375 44.507812 126.84375 44.507812 137.328125 42.898438 C 126.84375 41.296875 126.84375 41.296875 125.238281 30.808594 C 123.632812 41.296875 123.632812 41.296875 113.144531 42.898438 " fill-opacity="1" fill-rule="nonzero"/></g><g clip-path="url(#95f47f7a34)"><path fill="#66bc46" d="M 26.929688 97.507812 C 34.101562 98.609375 34.101562 98.609375 35.203125 105.78125 C 36.300781 98.609375 36.300781 98.609375 43.472656 97.507812 C 36.300781 96.410156 36.300781 96.410156 35.203125 89.238281 C 34.101562 96.410156 34.101562 96.410156 26.929688 97.507812 " fill-opacity="1" fill-rule="nonzero"/></g><g clip-path="url(#0fc5a32072)"><path fill="#66bc46" d="M 1.660156 9.734375 C 11.714844 11.277344 11.714844 11.277344 13.253906 21.332031 C 14.792969 11.277344 14.792969 11.277344 24.847656 9.734375 C 14.792969 8.199219 14.792969 8.199219 13.253906 -1.855469 C 11.714844 8.199219 11.714844 8.199219 1.660156 9.734375 " fill-opacity="1" fill-rule="nonzero"/></g></svg>