<svg xmlns="http://www.w3.org/2000/svg" xmlns:xlink="http://www.w3.org/1999/xlink" width="500" zoomAndPan="magnify" viewBox="0 0 375 374.999991" height="500" preserveAspectRatio="xMidYMid meet" version="1.0"><defs><clipPath id="98b0559920"><path d="M 58.050781 74 L 243.902344 74 L 243.902344 211.277344 L 58.050781 211.277344 Z M 58.050781 74 " clip-rule="nonzero"/></clipPath></defs><path fill="#0f5da7" d="M 151.421875 8.011719 C 186.714844 8.011719 222.003906 21.472656 248.929688 48.402344 C 299.140625 98.613281 302.515625 177.894531 259.101562 232.042969 L 274.214844 247.15625 C 282.21875 245.863281 290.703125 248.238281 296.867188 254.410156 L 364.824219 322.363281 C 375.03125 332.566406 375.03125 349.109375 364.824219 359.3125 C 359.726562 364.414062 353.035156 366.96875 346.351562 366.96875 C 339.664062 366.96875 332.976562 364.414062 327.878906 359.3125 L 259.921875 291.359375 C 253.753906 285.191406 251.378906 276.714844 252.667969 268.714844 L 237.550781 253.59375 C 212.441406 273.726562 181.9375 283.8125 151.421875 283.8125 C 116.128906 283.8125 80.839844 270.351562 53.910156 243.421875 C 0.0585938 189.570312 0.0585938 102.257812 53.910156 48.402344 C 80.835938 21.472656 116.128906 8.011719 151.421875 8.011719 Z M 75.464844 221.867188 C 95.753906 242.15625 122.730469 253.328125 151.421875 253.328125 C 180.113281 253.328125 207.089844 242.15625 227.378906 221.867188 C 247.664062 201.578125 258.839844 174.601562 258.839844 145.910156 C 258.839844 117.21875 247.664062 90.246094 227.378906 69.957031 C 207.089844 49.667969 180.113281 38.496094 151.421875 38.496094 C 122.730469 38.496094 95.753906 49.667969 75.464844 69.957031 C 55.179688 90.246094 44.003906 117.21875 44.003906 145.910156 C 44.003906 174.605469 55.179688 201.578125 75.464844 221.867188 Z M 75.464844 221.867188 " fill-opacity="1" fill-rule="nonzero"/><g clip-path="url(#98b0559920)"><path fill="#66bc46" d="M 242.082031 210.34375 C 231.226562 202.863281 217.929688 200.230469 205.222656 197.675781 C 205.1875 183.378906 205.296875 169.078125 205.074219 154.78125 L 205.1875 154.445312 C 210 154.558594 214.816406 154.484375 219.667969 154.484375 C 219.667969 151.925781 219.707031 149.371094 219.632812 146.816406 C 219.300781 146.628906 218.667969 146.222656 218.335938 146 C 213.1875 142.925781 208.222656 139.59375 203.148438 136.445312 C 195.664062 131.703125 188.183594 126.886719 180.664062 122.21875 C 176.328125 119.292969 171.847656 116.589844 167.4375 113.773438 C 165.625 112.625 163.808594 111.476562 161.992188 110.292969 C 162.363281 109.253906 162.699219 108.21875 163.105469 107.179688 C 164.253906 104.660156 165.847656 102.140625 168.367188 100.808594 C 170.773438 99.328125 173.699219 99.4375 176.402344 99.511719 C 179.886719 100.066406 183.367188 101.4375 185.8125 104.105469 C 186.554688 105.105469 187.21875 106.105469 187.925781 107.144531 C 192.925781 107.070312 197.925781 107.253906 202.925781 107.105469 C 204.296875 107.21875 205.113281 105.808594 205.332031 104.625 C 207.296875 95.917969 207.816406 86.730469 205.851562 77.953125 C 205.480469 76.398438 204.925781 74.210938 202.890625 74.324219 C 197.851562 74.136719 192.8125 74.285156 187.738281 74.285156 C 184.21875 79.582031 177.699219 83.324219 171.21875 82.101562 C 166.921875 81.398438 163.289062 78.84375 160.03125 76.175781 C 157.917969 74.210938 154.808594 75.027344 152.175781 74.878906 C 145.289062 75.136719 138.210938 74.0625 131.542969 76.25 C 122.359375 79.175781 114.058594 84.507812 107.023438 91.066406 C 99.167969 98.511719 91.6875 107.511719 89.910156 118.550781 C 89.910156 118.996094 89.945312 119.847656 89.945312 120.257812 C 92.390625 120.441406 94.835938 120.402344 97.28125 120.332031 C 98.390625 118.292969 99.539062 116.328125 100.949219 114.476562 C 104.246094 110.292969 108.503906 106.957031 113.058594 104.253906 C 118.652344 101.328125 125.023438 98.476562 131.507812 99.734375 C 135.621094 100.476562 138.175781 104.105469 139.769531 107.699219 C 139.917969 108.625 140.027344 109.550781 140.175781 110.515625 C 130.542969 116.367188 121.171875 122.589844 111.617188 128.515625 C 102.242188 134.589844 92.761719 140.519531 83.316406 146.519531 L 82.683594 146.925781 C 82.464844 149.484375 82.535156 152 82.535156 154.558594 C 87.351562 154.261719 92.132812 154.484375 96.945312 154.371094 C 96.910156 168.597656 97.019531 182.820312 96.796875 197.007812 L 96.761719 197.417969 C 83.539062 200.566406 69.203125 202.863281 58.050781 211.382812 C 71.054688 206.898438 84.574219 204.011719 98.167969 202.121094 C 109.097656 200.566406 120.136719 199.75 131.136719 199.046875 C 152.546875 198.121094 174.03125 198.75 195.371094 201.046875 C 211.59375 203.046875 227.78125 205.863281 243.230469 211.269531 C 242.96875 211.046875 242.375 210.601562 242.082031 210.34375 Z M 149.882812 115.292969 C 153.769531 115.589844 158.066406 114.328125 161.476562 116.773438 C 162.402344 119.328125 162.140625 122.109375 162.214844 124.8125 C 162.179688 129.292969 162.105469 133.777344 162.214844 138.257812 C 162.140625 143.777344 162.03125 149.335938 162.214844 154.855469 C 162.03125 167.597656 162.179688 180.339844 162.105469 193.082031 C 162.066406 193.121094 161.992188 193.121094 161.957031 193.15625 L 158.621094 193.15625 C 158.476562 193.121094 158.289062 193.082031 158.179688 193.082031 C 158.253906 184.746094 158.140625 176.375 158.214844 168.042969 C 153.660156 167.894531 149.101562 168.003906 144.546875 168.003906 C 144.546875 176.375 144.507812 184.785156 144.507812 193.15625 L 140.285156 193.15625 C 140.324219 168.335938 140.25 143.519531 140.210938 118.738281 C 141.472656 114.441406 146.4375 115.253906 149.882812 115.292969 Z M 120.839844 178.523438 C 117.765625 178.449219 114.726562 178.488281 111.652344 178.449219 C 111.652344 175.414062 111.652344 172.375 111.652344 169.335938 C 114.726562 169.335938 117.800781 169.375 120.875 169.300781 C 120.988281 172.375 121.0625 175.449219 120.839844 178.523438 Z M 120.949219 166.78125 C 117.839844 166.820312 114.691406 166.820312 111.578125 166.707031 C 111.652344 163.707031 111.652344 160.667969 111.617188 157.667969 C 114.617188 157.632812 117.652344 157.558594 120.691406 157.667969 C 120.765625 157.78125 120.949219 158.003906 121.023438 158.113281 C 120.988281 160.964844 120.914062 163.855469 120.949219 166.78125 Z M 132.804688 178.449219 L 123.765625 178.449219 C 123.730469 175.414062 123.691406 172.375 123.691406 169.335938 C 126.730469 169.335938 129.765625 169.335938 132.804688 169.335938 C 132.839844 172.375 132.839844 175.414062 132.804688 178.449219 Z M 132.839844 166.78125 C 129.839844 166.746094 126.839844 166.746094 123.839844 166.820312 C 123.730469 163.890625 123.691406 160.929688 123.617188 158.003906 L 123.765625 157.59375 C 126.839844 157.707031 129.914062 157.707031 132.988281 157.707031 L 133.101562 157.964844 C 132.804688 160.890625 132.804688 163.855469 132.839844 166.78125 Z M 179.144531 178.597656 L 169.585938 178.597656 L 169.585938 169.042969 L 179.144531 169.042969 Z M 179.144531 167.003906 L 169.585938 167.003906 L 169.585938 157.445312 L 179.144531 157.445312 Z M 191.109375 178.597656 L 181.550781 178.597656 L 181.550781 169.042969 L 191.109375 169.042969 Z M 191.109375 167.003906 L 181.550781 167.003906 L 181.550781 157.445312 L 191.109375 157.445312 Z M 191.109375 167.003906 " fill-opacity="1" fill-rule="nonzero"/></g></svg>