<svg xmlns="http://www.w3.org/2000/svg" xmlns:xlink="http://www.w3.org/1999/xlink" width="500" zoomAndPan="magnify" viewBox="0 0 375 374.999991" height="500" preserveAspectRatio="xMidYMid meet" version="1.0"><path fill="#66bc46" d="M 305.566406 293.066406 C 302.570312 290.488281 298.515625 290.558594 294.773438 290.523438 C 281.796875 289.46875 268.78125 289.289062 255.765625 289.960938 C 224.515625 290.488281 193.550781 296.0625 163.570312 304.84375 C 163.355469 304.667969 163.144531 304.527344 162.933594 304.421875 C 173.023438 295.179688 181.378906 284.351562 190.234375 273.949219 C 202.789062 259.382812 215.945312 245.34375 228.464844 230.707031 C 255.484375 200.902344 281.125 169.230469 297.207031 132.019531 C 302.5 119.464844 306.484375 106.203125 308.777344 92.761719 C 311.527344 72.023438 305.816406 50.402344 293.683594 33.402344 C 273.859375 7.65625 253.085938 4.550781 222.683594 1.589844 C 209.171875 0.179688 195.523438 0.00390625 181.980469 1.09375 C 168.1875 2.4375 154.855469 6.5625 141.808594 11.007812 C 122.480469 18.097656 103.398438 27.476562 89.113281 42.644531 C 79.273438 53.050781 68.550781 63.664062 63.613281 77.421875 C 61.109375 84.933594 59.0625 93.785156 63.4375 100.980469 C 69.996094 110.785156 75.429688 121.96875 84.351562 130.078125 C 96.730469 141.191406 100.789062 134.242188 110.875 125.246094 C 122.9375 114.417969 133.484375 102.144531 145.863281 91.671875 C 148.753906 89.378906 151.789062 87.085938 154.925781 84.863281 C 155.070312 84.96875 155.210938 85.039062 155.351562 85.144531 C 157.996094 86.414062 161.347656 85.285156 162.652344 82.605469 C 163.25 81.335938 163.886719 80.101562 164.519531 78.867188 C 169.566406 76.046875 174.855469 73.683594 180.324219 72.128906 C 185.964844 70.929688 192.773438 68.179688 198.308594 71.105469 C 207.058594 75.867188 213.652344 84.085938 215.875 93.855469 C 215.875 97.808594 215.804688 101.722656 215.488281 105.671875 C 208.996094 113.75 204.976562 120.519531 208.046875 122.53125 C 208.960938 123.308594 210.195312 123.589844 211.359375 123.449219 C 210.195312 126.234375 208.855469 128.949219 207.375 131.597656 C 202.4375 141.261719 196.828125 150.570312 191.042969 159.742188 C 175.207031 186.300781 153.976562 209.085938 133.800781 232.328125 C 111.757812 258.003906 84.914062 280.789062 71.6875 312.746094 C 67.949219 320.929688 68.339844 330.027344 68.410156 338.84375 C 68.128906 351.859375 68.65625 370.660156 84.140625 374.609375 C 138.808594 374.996094 193.054688 365.511719 247.792969 365.828125 C 259.082031 365.722656 271.109375 365.863281 282.5 365.582031 C 285.289062 365.367188 288.53125 365.617188 291.175781 364.523438 C 291.425781 364.59375 291.636719 364.664062 291.882812 364.734375 C 298.515625 365.6875 298.585938 357.644531 299.820312 353.09375 C 301.371094 346.992188 303.523438 340.292969 305.355469 333.484375 C 307.894531 321.988281 315.9375 302.199219 305.566406 293.066406 Z M 157.890625 355.632812 C 158.488281 355.175781 159.019531 354.613281 159.441406 353.976562 C 164.945312 347.769531 170.695312 341.773438 176.40625 335.777344 C 180.289062 331.863281 183.886719 327.699219 187.554688 323.574219 C 188.046875 323.113281 188.46875 322.65625 188.824219 322.128906 C 190.445312 320.328125 192.03125 318.53125 193.691406 316.765625 C 193.867188 316.589844 194.042969 316.378906 194.21875 316.203125 C 195.03125 316.132812 195.839844 316.097656 196.6875 316.027344 C 192.914062 320.046875 188.964844 323.925781 185.542969 328.230469 C 180.675781 334.085938 176.054688 340.117188 171.433594 346.148438 C 170.375 347.382812 170.515625 349.355469 171.785156 350.414062 C 172.984375 351.4375 175.066406 351.402344 176.054688 350.0625 C 179.125 346.003906 182.191406 341.984375 185.296875 337.964844 C 185.507812 338.457031 185.789062 338.988281 186.246094 339.480469 C 186.988281 340.117188 187.730469 340.539062 188.46875 340.75 C 185.507812 344.628906 182.578125 348.511719 179.757812 352.496094 C 172.421875 353.484375 165.15625 354.503906 157.890625 355.632812 Z M 137.046875 349.746094 C 137.222656 349.992188 137.433594 350.238281 137.714844 350.449219 C 138.84375 352.105469 141.417969 351.332031 144.59375 349.25 C 143.21875 352.105469 141.878906 355.105469 141.207031 357.925781 C 137.714844 358.316406 134.222656 358.667969 130.695312 358.984375 C 132.636719 355.777344 134.789062 352.707031 137.046875 349.746094 Z M 202.789062 315.53125 C 200.390625 318.070312 198.132812 320.644531 196.195312 322.761719 C 197.816406 320.292969 199.472656 317.859375 201.414062 315.671875 C 201.871094 315.601562 202.332031 315.566406 202.789062 315.53125 Z M 245.113281 313.0625 C 245.183594 312.992188 245.253906 312.921875 245.359375 312.851562 C 245.75 312.746094 246.101562 312.570312 246.417969 312.359375 C 246.066406 312.570312 245.75 312.746094 245.398438 312.886719 C 245.324219 312.921875 245.21875 312.992188 245.113281 313.0625 Z M 248.113281 310.277344 C 248.78125 310.207031 249.453125 310.101562 250.085938 310.03125 C 248.816406 310.734375 247.582031 311.652344 246.417969 312.320312 C 247.195312 311.863281 247.757812 311.125 248.113281 310.277344 Z M 196.546875 338.808594 C 197.957031 339.902344 199.507812 339.972656 200.957031 339.410156 C 200.425781 339.867188 199.933594 340.363281 199.402344 340.820312 C 197.851562 342.265625 197.710938 344.734375 199.15625 346.289062 C 200.566406 347.839844 203.070312 347.945312 204.625 346.535156 C 206.105469 345.195312 207.621094 343.890625 209.136719 342.585938 C 208.679688 344.207031 208.996094 346.039062 210.160156 347.3125 C 210.621094 347.839844 211.183594 348.226562 211.785156 348.472656 C 211.605469 348.792969 211.464844 349.109375 211.359375 349.460938 C 203.566406 349.992188 195.804688 350.695312 188.046875 351.542969 C 190.902344 347.347656 193.726562 343.113281 196.546875 338.808594 Z M 229.59375 345.160156 C 228.679688 346.289062 228.042969 347.453125 227.796875 348.652344 C 227.160156 348.6875 226.527344 348.6875 225.890625 348.722656 C 227.160156 347.417969 228.394531 346.183594 229.59375 345.160156 Z M 267.6875 309.996094 C 267.371094 309.289062 266.875 308.617188 266.3125 308.054688 C 268.039062 307.84375 269.769531 307.632812 271.460938 307.417969 C 270.191406 308.265625 268.921875 309.113281 267.6875 309.996094 Z M 257.246094 309.183594 C 256.683594 309.535156 256.152344 309.886719 255.625 310.277344 C 255.519531 310.171875 255.414062 310.03125 255.308594 309.925781 C 255.097656 309.746094 254.917969 309.640625 254.707031 309.535156 C 255.519531 309.394531 256.402344 309.289062 257.246094 309.183594 Z M 179.511719 273.59375 C 173.058594 282.414062 166.144531 290.878906 159.441406 299.519531 C 157.433594 302.164062 155.28125 304.667969 153.09375 307.171875 C 149.53125 309.746094 145.582031 313.628906 141.664062 318.175781 C 142.195312 316.308594 142.195312 314.792969 141.3125 313.910156 C 140.679688 313.273438 140.007812 312.957031 139.375 312.886719 C 141.207031 310.699219 143.042969 308.476562 144.910156 306.328125 C 144.839844 306.398438 144.769531 306.433594 144.699219 306.503906 C 144.558594 306.574219 144.417969 306.679688 144.277344 306.75 C 147.203125 304.949219 148.015625 302.410156 147.554688 300.082031 C 149.285156 297.898438 151.011719 295.710938 152.742188 293.523438 C 161.382812 284.601562 170.339844 275.992188 179.230469 267.351562 C 184.976562 261.886719 190.445312 256.03125 196.546875 250.917969 C 190.515625 258.148438 185.011719 265.871094 179.511719 273.59375 Z M 277.070312 140.660156 C 276.292969 142.460938 275.480469 144.222656 274.671875 145.988281 C 270.828125 149.476562 267.050781 153.039062 263.453125 156.742188 C 260.140625 160.128906 256.929688 163.621094 253.753906 167.148438 C 252.699219 166.550781 251.320312 166.550781 250.085938 167.609375 C 249.875 167.785156 249.628906 167.996094 249.417969 168.171875 C 256.367188 159.707031 263.207031 151.171875 270.085938 142.671875 C 274 137.769531 278.234375 133.042969 282.5 128.351562 C 280.808594 132.511719 279.007812 136.605469 277.070312 140.660156 Z M 206.386719 180.375 C 204.976562 182.527344 203.566406 184.679688 202.191406 186.863281 C 201.308594 188.242188 200.425781 189.617188 199.542969 190.992188 C 198.558594 190.460938 197.429688 190.355469 196.230469 190.535156 C 197.605469 189.050781 198.945312 187.570312 200.320312 186.089844 C 202.367188 184.183594 204.375 182.28125 206.386719 180.375 Z M 171.328125 259.804688 C 170.695312 258.921875 169.566406 258.359375 168.472656 258.464844 C 175.949219 249.539062 183.460938 240.792969 191.996094 232.644531 C 187.765625 237.832031 183.601562 243.050781 179.652344 248.449219 C 176.902344 252.257812 174.113281 256.03125 171.328125 259.804688 Z M 188.859375 220.019531 C 188.859375 220.019531 188.824219 220.054688 188.824219 220.054688 C 188.824219 220.054688 188.859375 220.019531 188.859375 220.019531 Z M 156.550781 235.960938 C 156.445312 235.960938 156.304688 235.960938 156.199219 235.960938 C 156.761719 235.292969 157.324219 234.65625 157.890625 233.988281 C 157.433594 234.65625 156.972656 235.292969 156.550781 235.960938 Z M 223.140625 203.796875 C 222.578125 203.125 221.871094 202.597656 221.058594 202.3125 C 225.363281 198.292969 229.699219 194.308594 234.039062 190.355469 C 230.40625 194.835938 226.773438 199.316406 223.140625 203.796875 Z M 290.296875 105.953125 C 282.5 111.28125 276.257812 119.25 269.414062 125.988281 C 272.660156 121.898438 275.941406 117.804688 279.222656 113.75 C 283.488281 108.601562 287.722656 103.308594 292.199219 98.300781 C 291.601562 100.839844 290.964844 103.414062 290.296875 105.953125 Z M 223.667969 167.925781 C 217.992188 175.964844 212.347656 184.007812 206.667969 192.015625 C 205.574219 193.53125 204.519531 195.046875 203.425781 196.601562 C 203.25 196.070312 203.070312 195.613281 202.894531 195.152344 C 207.199219 188.664062 211.679688 182.28125 216.402344 176.035156 C 216.367188 176.074219 216.367188 176.109375 216.332031 176.144531 C 220.671875 170.429688 224.90625 164.679688 229.136719 158.859375 C 230.441406 157.625 231.746094 156.355469 233.015625 155.121094 C 229.878906 159.390625 226.773438 163.65625 223.667969 167.925781 Z M 135.316406 273.101562 C 135.351562 273.136719 135.386719 273.207031 135.457031 273.242188 C 135.847656 273.523438 136.199219 273.738281 136.550781 273.914062 C 135.988281 274.160156 135.492188 274.511719 135.070312 275.007812 C 132.460938 277.050781 130.203125 279.554688 127.945312 281.953125 C 127.558594 282.378906 127.167969 282.835938 126.78125 283.292969 C 129.640625 279.910156 132.496094 276.523438 135.316406 273.101562 Z M 205.1875 241.429688 C 204.941406 239.558594 203.636719 237.867188 201.871094 237.195312 C 205.328125 233.28125 208.820312 229.332031 212.277344 225.449219 C 229.207031 207.003906 245.253906 187.710938 262.113281 169.195312 C 253.015625 184.078125 242.539062 198.152344 231.746094 211.835938 C 223.847656 222.558594 214.324219 231.835938 205.1875 241.429688 Z M 294.175781 86.132812 C 293.789062 86.378906 293.398438 86.625 293.082031 86.875 C 291.035156 88.601562 288.992188 90.328125 287.015625 92.128906 C 286.417969 91.246094 285.535156 90.542969 284.371094 90.328125 C 282.324219 89.976562 280.277344 91.386719 279.785156 93.292969 C 279.503906 93.820312 279.148438 94.316406 278.796875 94.808594 C 271.992188 103.519531 264.691406 111.773438 257.140625 119.816406 C 259.363281 116.746094 261.585938 113.714844 263.84375 110.679688 C 267.511719 105.671875 271.109375 100.628906 274.707031 95.585938 C 280.386719 88 285.179688 79.574219 292.199219 73.117188 C 294.667969 70.859375 291.210938 67.15625 288.777344 69.34375 C 275.023438 82.640625 264.832031 99.429688 253.542969 114.84375 C 246.242188 125.175781 238.800781 135.40625 231.324219 145.632812 C 230.792969 146.164062 230.230469 146.691406 229.699219 147.1875 C 229.171875 146.585938 228.5 146.128906 227.691406 145.84375 C 224.726562 144.824219 222.542969 146.9375 221.269531 149.230469 C 216.792969 153.746094 212.171875 158.121094 207.65625 162.632812 C 210.019531 158.332031 212.242188 153.957031 214.324219 149.515625 C 215.347656 148.949219 216.296875 148.242188 217.039062 147.363281 C 217.074219 147.328125 217.109375 147.257812 217.144531 147.222656 C 218.0625 147.222656 218.945312 146.832031 219.542969 146.09375 C 224.445312 140.132812 229.277344 134.101562 234.109375 128.070312 C 235.097656 126.835938 236.085938 125.636719 237.039062 124.402344 C 233.933594 129.304688 230.792969 134.171875 227.621094 139.003906 C 226.632812 140.519531 227.089844 142.601562 228.574219 143.589844 C 230.089844 144.574219 232.171875 144.152344 233.15625 142.636719 C 237.390625 136.179688 241.65625 129.726562 246.066406 123.34375 C 255.378906 110.222656 264.9375 97.242188 273.507812 83.59375 C 278.550781 75.902344 283.347656 68.179688 289.027344 60.914062 C 289.871094 60.386719 290.402344 59.503906 290.613281 58.550781 C 293.433594 67.121094 294.5625 76.503906 294.175781 86.132812 Z M 87.066406 111.738281 C 87.84375 109.765625 88.65625 107.824219 89.464844 105.847656 C 89.996094 104.648438 90.523438 103.484375 91.054688 102.285156 C 90.136719 105.917969 89.148438 109.515625 88.089844 113.113281 C 87.773438 112.65625 87.421875 112.199219 87.066406 111.738281 Z M 177.675781 30.546875 C 176.726562 32.203125 175.738281 33.828125 174.785156 35.484375 C 175.527344 34.039062 176.265625 32.628906 176.972656 31.179688 C 177.21875 30.96875 177.429688 30.757812 177.675781 30.546875 Z M 192.949219 21.375 C 192.773438 20.035156 192.066406 18.765625 190.902344 17.988281 C 191.078125 17.320312 191.152344 16.683594 191.078125 16.050781 C 192.914062 15.875 194.75 15.699219 196.582031 15.554688 C 195.664062 17.003906 194.394531 19.011719 192.949219 21.375 Z M 156.585938 50.050781 C 156.269531 50.6875 155.949219 51.320312 155.632812 51.957031 C 155.878906 51.390625 156.164062 50.792969 156.410156 50.226562 C 156.480469 50.15625 156.515625 50.121094 156.585938 50.050781 Z M 190.761719 53.121094 C 190.304688 54.320312 189.917969 55.484375 189.667969 56.574219 C 189.457031 56.609375 189.28125 56.683594 189.070312 56.71875 C 189.597656 55.519531 190.164062 54.320312 190.761719 53.121094 Z M 233.085938 104.4375 C 239.367188 105.074219 243.140625 91.386719 247.300781 87.507812 C 250.191406 83.3125 253.015625 79.042969 255.800781 74.742188 C 256.683594 73.789062 257.601562 72.835938 258.480469 71.882812 C 257.460938 73.894531 256.542969 75.550781 255.765625 76.609375 C 250.6875 86.695312 246.277344 97.136719 241.375 107.332031 C 241.09375 107.964844 240.953125 108.636719 240.988281 109.304688 C 240.246094 110.257812 239.507812 111.210938 238.765625 112.164062 C 235.589844 116.183594 232.417969 120.167969 229.242188 124.152344 C 231.148438 117.734375 232.277344 111.035156 233.085938 104.4375 Z M 272.273438 32.519531 C 262.785156 43.5625 254.917969 56.046875 247.125 68.355469 C 245.925781 70.332031 244.796875 72.269531 243.632812 74.246094 C 240.742188 77.632812 236.4375 82.253906 231.746094 87.296875 C 231.605469 86.839844 231.464844 86.378906 231.289062 85.921875 C 241.164062 70.261719 252.203125 55.234375 263.066406 40.316406 C 266.3125 36.71875 263.171875 30.546875 258.339844 31.074219 C 248.921875 35.378906 242.152344 51.636719 236.015625 60.207031 C 235.027344 63.03125 230.511719 69.132812 226.421875 75.375 C 226.03125 74.742188 225.644531 74.070312 225.222656 73.46875 C 228.429688 68.355469 231.957031 63.207031 235.625 58.199219 C 241.164062 50.96875 245.855469 43.136719 251.144531 35.695312 C 253.648438 34.109375 254.144531 30.476562 252.167969 28.253906 C 250.828125 26.949219 249.347656 26.667969 247.832031 27.054688 C 249.804688 25.042969 249.980469 22.292969 249.03125 20 C 258.800781 22.152344 266.910156 26.277344 273.472656 31.886719 C 273.082031 32.027344 272.660156 32.238281 272.273438 32.519531 Z M 205.539062 57.667969 C 204.449219 57.246094 203.355469 56.859375 202.261719 56.609375 C 203.53125 54.355469 204.800781 51.851562 205.964844 49.378906 C 204.625 52.976562 204.304688 55.941406 205.539062 57.667969 Z M 218.0625 65.183594 C 222.46875 59.75 226.597656 54.105469 230.652344 48.429688 C 229.558594 50.261719 228.609375 51.777344 227.902344 52.695312 C 225.222656 57.421875 222.46875 62.078125 219.71875 66.734375 C 219.191406 66.203125 218.625 65.675781 218.0625 65.183594 Z M 289.378906 54.8125 C 287.652344 53.507812 285.144531 54 283.984375 55.765625 C 282.785156 57.140625 281.621094 58.515625 280.457031 59.890625 C 281.300781 58.621094 282.148438 57.351562 283.066406 56.117188 C 285.640625 53.824219 285.710938 49.488281 283.417969 46.945312 C 280.347656 44.089844 277.246094 44.511719 274.28125 46.804688 C 276.1875 44.019531 278.128906 41.269531 280.066406 38.550781 C 283.984375 43.386719 287.085938 48.851562 289.378906 54.8125 Z M 227.125 16.261719 C 222.222656 22.328125 214.324219 32.875 209.351562 42.007812 C 210.515625 39.503906 211.570312 37.425781 212.453125 36.261719 C 214.003906 30.476562 224.445312 20.601562 220.8125 16.121094 C 220.601562 15.945312 220.425781 15.769531 220.25 15.589844 C 222.507812 15.804688 224.832031 16.015625 227.125 16.261719 Z M 213.089844 15.273438 C 211.464844 16.332031 209.914062 18.023438 208.46875 20.070312 C 208.679688 18.90625 208.539062 17.847656 207.972656 16.898438 C 207.9375 16.863281 207.902344 16.824219 207.832031 16.753906 C 207.726562 16.191406 207.515625 15.664062 207.269531 15.167969 C 209.207031 15.203125 211.148438 15.203125 213.089844 15.273438 Z M 157.574219 23.457031 C 161.875 21.976562 166.214844 20.707031 170.585938 19.648438 C 170.058594 20.175781 169.496094 20.742188 168.929688 21.375 C 166.917969 23.105469 164.945312 24.867188 162.96875 26.632812 C 160.289062 23.984375 155.316406 23.914062 154.117188 29.59375 C 153.621094 30.265625 152.988281 31.179688 152.210938 32.308594 C 152.421875 31.214844 152.246094 30.125 151.402344 29.066406 C 148.191406 25.820312 145.085938 29.734375 143.394531 32.484375 C 140.429688 37 137.855469 41.761719 135.492188 46.628906 C 136.65625 43.808594 137.855469 40.988281 139.160156 38.199219 C 141.558594 35.273438 141.101562 32.308594 139.375 30.265625 C 145.300781 27.652344 151.402344 25.363281 157.574219 23.457031 Z M 105.867188 50.15625 C 108.019531 48.429688 110.203125 46.804688 112.460938 45.21875 C 110.523438 49.523438 108.863281 54.070312 107.59375 57.070312 C 107.3125 57.5625 106.996094 58.058594 106.714844 58.585938 C 106.359375 58.550781 105.972656 58.550781 105.550781 58.65625 C 102.621094 59.609375 101.386719 63.347656 99.695312 65.746094 C 97.929688 68.957031 96.414062 72.234375 94.96875 75.585938 C 95.355469 74.070312 95.8125 72.589844 96.167969 71.070312 C 97.191406 68.074219 96.34375 63.628906 92.394531 63.839844 C 91.722656 63.949219 91.125 64.195312 90.628906 64.582031 C 95.53125 59.574219 100.574219 54.742188 105.867188 50.15625 Z M 89.253906 65.992188 C 89.289062 65.957031 89.359375 65.886719 89.394531 65.851562 C 89.007812 66.382812 88.691406 66.980469 88.40625 67.617188 C 88.300781 67.511719 88.230469 67.367188 88.125 67.261719 C 88.476562 66.839844 88.867188 66.417969 89.253906 65.992188 Z M 95.460938 121.863281 C 95.851562 121.402344 96.203125 120.875 96.378906 120.238281 C 99.023438 112.234375 102.515625 104.507812 105.621094 96.644531 C 106.042969 95.585938 106.429688 94.492188 106.820312 93.398438 C 107.066406 93.433594 107.277344 93.46875 107.523438 93.503906 C 105.902344 99.007812 104.984375 104.402344 109.003906 106.09375 C 104.421875 111.351562 100.082031 116.851562 95.992188 122.425781 C 95.8125 122.25 95.636719 122.039062 95.460938 121.863281 Z M 117.929688 96.503906 C 119.234375 92.835938 120.539062 89.09375 121.773438 85.390625 C 122.335938 86.804688 123.5 88 125.019531 88.496094 C 125.371094 88.601562 125.757812 88.707031 126.113281 88.742188 C 123.324219 91.210938 120.574219 93.820312 117.929688 96.503906 Z M 132.390625 83.417969 C 133.164062 81.160156 133.941406 78.9375 134.789062 76.679688 C 135.351562 77.878906 136.269531 78.796875 137.609375 79.289062 C 137.644531 79.289062 137.679688 79.324219 137.75 79.324219 C 135.917969 80.664062 134.152344 82.042969 132.390625 83.417969 Z M 177.675781 54.140625 C 178.136719 53.261719 178.558594 52.378906 179.015625 51.496094 C 178.277344 54.777344 178.242188 57.527344 179.195312 59.292969 C 177.5 59.785156 175.773438 60.28125 174.078125 60.808594 C 175.277344 58.585938 176.476562 56.363281 177.675781 54.140625 Z M 105.265625 287.914062 C 102.585938 291.441406 99.90625 294.933594 97.226562 298.460938 C 99.484375 295.285156 101.808594 292.183594 104.242188 289.148438 C 104.597656 288.726562 104.949219 288.339844 105.265625 287.914062 Z M 83.75 321.914062 C 84.175781 319.058594 85.691406 316.554688 86.960938 313.980469 C 90.03125 308.902344 93.308594 303.929688 96.765625 299.097656 C 95.886719 300.4375 95.957031 302.234375 97.261719 303.363281 C 98.53125 304.421875 100.683594 304.386719 101.703125 303.011719 C 105.40625 298.144531 109.183594 293.3125 112.957031 288.515625 C 109.570312 293.347656 106.183594 298.179688 102.621094 302.90625 C 98.953125 307.773438 95.039062 312.886719 91.089844 318.035156 C 90.171875 319.234375 90.207031 320.964844 91.40625 321.988281 C 94.15625 324.136719 96.027344 320.824219 97.507812 318.882812 C 102.304688 312.675781 107.136719 306.503906 112.179688 300.507812 C 115.460938 296.734375 118.703125 292.921875 121.949219 289.078125 C 117.1875 295.039062 112.816406 301.316406 108.722656 307.703125 C 104.242188 314.683594 99.484375 321.457031 94.6875 328.230469 C 94.015625 329.179688 94.050781 330.417969 94.578125 331.402344 C 92.214844 334.4375 89.855469 337.46875 87.527344 340.539062 C 86.363281 342.054688 86.398438 344.171875 87.914062 345.476562 C 88.265625 345.757812 88.691406 346.003906 89.113281 346.148438 C 87.949219 347.59375 88.125 349.78125 89.570312 351.015625 C 90.277344 351.613281 91.125 351.859375 92.003906 351.824219 C 91.546875 352.425781 91.089844 352.988281 90.59375 353.589844 C 89.042969 355.457031 89.359375 358.351562 91.230469 359.867188 C 91.546875 360.113281 91.863281 360.289062 92.179688 360.429688 C 90.945312 360.429688 89.675781 360.394531 88.441406 360.394531 C 84.457031 348.050781 83.539062 334.789062 83.75 321.914062 Z M 95.601562 360.394531 C 98.847656 358.984375 101.421875 353.871094 103.644531 351.296875 C 106.890625 352.496094 109.605469 349.285156 111.261719 346.570312 C 115.917969 341.136719 120.503906 335.636719 125.054688 330.097656 C 124.382812 331.296875 123.714844 332.496094 123.042969 333.695312 C 120.539062 338.070312 117.894531 342.441406 115.179688 346.78125 C 114.121094 348.4375 114.578125 350.625 116.199219 351.71875 C 117.578125 352.636719 119.480469 352.390625 120.644531 351.261719 C 119.304688 354.683594 118.527344 357.609375 118.5625 359.761719 C 110.875 360.21875 103.1875 360.429688 95.601562 360.394531 Z M 240.917969 348.261719 C 245.820312 343.605469 250.96875 339.164062 256.1875 334.859375 C 264.761719 328.125 272.273438 319.871094 281.511719 314.15625 C 284.054688 312.003906 283.769531 308.40625 281.9375 306.183594 C 286.699219 305.621094 291.460938 305.019531 296.1875 304.457031 C 296.1875 305.480469 296.152344 306.46875 296.082031 307.453125 C 295.902344 307.3125 295.796875 307.171875 295.585938 307.03125 C 293.011719 305.269531 289.132812 306.714844 288.355469 309.746094 C 281.476562 315.847656 274.28125 321.597656 268.144531 328.476562 C 265.078125 331.613281 261.902344 334.683594 258.695312 337.683594 C 257.351562 338.917969 257.210938 341.066406 258.480469 342.441406 C 259.714844 343.820312 261.867188 343.925781 263.242188 342.691406 C 265.960938 340.222656 268.710938 337.824219 271.566406 335.53125 C 279.785156 329.359375 287.4375 322.550781 294.882812 315.496094 C 294.667969 316.554688 294.421875 317.648438 294.175781 318.707031 C 290.367188 322.09375 286.417969 325.371094 282.640625 328.828125 C 278.691406 334.226562 261.832031 342.230469 265.394531 349.53125 C 257.28125 348.546875 249.101562 348.15625 240.917969 348.261719 Z M 279.820312 351.894531 C 277.84375 351.472656 275.90625 351.085938 273.929688 350.730469 C 279.960938 347.203125 286.839844 338.210938 290.929688 335.847656 C 290.964844 335.8125 291 335.777344 291.035156 335.742188 C 290.542969 339.023438 290.121094 342.335938 289.660156 345.617188 C 289.273438 348.296875 288.816406 350.945312 288.320312 353.625 C 285.535156 352.882812 282.535156 352.601562 279.820312 351.894531 Z M 279.820312 351.894531 " fill-opacity="1" fill-rule="nonzero"/></svg>