<svg xmlns="http://www.w3.org/2000/svg" xmlns:xlink="http://www.w3.org/1999/xlink" width="500" zoomAndPan="magnify" viewBox="0 0 375 374.999991" height="500" preserveAspectRatio="xMidYMid meet" version="1.0"><defs><clipPath id="c4754e1788"><path d="M 56 50.71875 L 343 50.71875 L 343 337.621094 L 56 337.621094 Z M 56 50.71875 " clip-rule="nonzero"/></clipPath><clipPath id="2836dde94b"><path d="M 92.714844 98.722656 L 241 98.722656 L 241 208.386719 L 92.714844 208.386719 Z M 92.714844 98.722656 " clip-rule="nonzero"/></clipPath><clipPath id="5b836696b3"><path d="M 308.140625 116.992188 L 374.605469 116.992188 L 374.605469 183.453125 L 308.140625 183.453125 Z M 308.140625 116.992188 " clip-rule="nonzero"/></clipPath><clipPath id="582cc7b546"><path d="M 69.847656 278.484375 L 115.265625 278.484375 L 115.265625 323.898438 L 69.847656 323.898438 Z M 69.847656 278.484375 " clip-rule="nonzero"/></clipPath><clipPath id="5164ae2d80"><path d="M 0 26.703125 L 64.25 26.703125 L 64.25 90.953125 L 0 90.953125 Z M 0 26.703125 " clip-rule="nonzero"/></clipPath></defs><rect x="-37.5" width="450" fill="#ffffff" y="-37.499999" height="449.999989" fill-opacity="1"/><rect x="-37.5" width="450" fill="#ffffff" y="-37.499999" height="449.999989" fill-opacity="1"/><g clip-path="url(#c4754e1788)"><path fill="#0f5da7" d="M 166.214844 50.75 C 194.402344 50.75 222.589844 61.503906 244.09375 83.011719 C 284.195312 123.113281 286.894531 186.4375 252.21875 229.683594 L 264.289062 241.757812 C 270.683594 240.726562 277.457031 242.621094 282.382812 247.550781 L 336.65625 301.824219 C 344.808594 309.972656 344.808594 323.1875 336.65625 331.335938 C 332.585938 335.410156 327.242188 337.449219 321.902344 337.449219 C 316.5625 337.449219 311.21875 335.410156 307.148438 331.335938 L 252.875 277.0625 C 247.945312 272.132812 246.050781 265.363281 247.078125 258.972656 L 235.003906 246.898438 C 214.949219 262.976562 190.585938 271.035156 166.214844 271.035156 C 138.027344 271.035156 109.839844 260.28125 88.332031 238.773438 C 45.320312 195.761719 45.320312 126.023438 88.332031 83.011719 C 109.839844 61.503906 138.027344 50.75 166.214844 50.75 Z M 105.546875 221.558594 C 121.753906 237.761719 143.296875 246.6875 166.214844 246.6875 C 189.128906 246.6875 210.675781 237.761719 226.878906 221.558594 C 243.082031 205.355469 252.007812 183.808594 252.007812 160.894531 C 252.007812 137.976562 243.082031 116.429688 226.878906 100.226562 C 210.675781 84.023438 189.128906 75.097656 166.214844 75.097656 C 143.296875 75.097656 121.753906 84.023438 105.546875 100.226562 C 89.34375 116.429688 80.421875 137.976562 80.421875 160.894531 C 80.421875 183.808594 89.34375 205.355469 105.546875 221.558594 Z M 105.546875 221.558594 " fill-opacity="1" fill-rule="nonzero"/></g><g clip-path="url(#2836dde94b)"><path fill="#66bc46" d="M 239.695312 207.640625 C 231.027344 201.664062 220.40625 199.566406 210.257812 197.523438 C 210.230469 186.105469 210.316406 174.683594 210.140625 163.261719 L 210.230469 162.996094 C 214.074219 163.085938 217.921875 163.027344 221.796875 163.027344 C 221.796875 160.984375 221.828125 158.945312 221.765625 156.902344 C 221.5 156.753906 220.996094 156.429688 220.730469 156.25 C 216.617188 153.796875 212.65625 151.132812 208.601562 148.617188 C 202.625 144.832031 196.648438 140.984375 190.644531 137.257812 C 187.179688 134.921875 183.601562 132.761719 180.082031 130.511719 C 178.628906 129.59375 177.179688 128.675781 175.730469 127.730469 C 176.027344 126.902344 176.292969 126.074219 176.617188 125.246094 C 177.535156 123.234375 178.808594 121.222656 180.820312 120.15625 C 182.742188 118.972656 185.082031 119.0625 187.242188 119.121094 C 190.019531 119.566406 192.800781 120.660156 194.753906 122.789062 C 195.347656 123.589844 195.878906 124.386719 196.441406 125.214844 C 200.4375 125.15625 204.429688 125.304688 208.421875 125.1875 C 209.519531 125.273438 210.167969 124.152344 210.347656 123.203125 C 211.914062 116.25 212.328125 108.914062 210.761719 101.902344 C 210.464844 100.660156 210.019531 98.914062 208.394531 99.003906 C 204.371094 98.855469 200.347656 98.972656 196.292969 98.972656 C 193.484375 103.203125 188.277344 106.191406 183.097656 105.214844 C 179.667969 104.652344 176.765625 102.613281 174.164062 100.480469 C 172.476562 98.914062 169.992188 99.566406 167.890625 99.445312 C 162.386719 99.652344 156.738281 98.796875 151.410156 100.542969 C 144.074219 102.878906 137.445312 107.140625 131.824219 112.375 C 125.554688 118.324219 119.578125 125.511719 118.15625 134.328125 C 118.15625 134.683594 118.1875 135.363281 118.1875 135.6875 C 120.140625 135.835938 122.09375 135.808594 124.042969 135.75 C 124.933594 134.121094 125.847656 132.554688 126.972656 131.074219 C 129.605469 127.730469 133.007812 125.066406 136.648438 122.90625 C 141.117188 120.570312 146.203125 118.292969 151.382812 119.296875 C 154.667969 119.890625 156.707031 122.789062 157.980469 125.660156 C 158.097656 126.398438 158.1875 127.140625 158.304688 127.90625 C 150.613281 132.582031 143.128906 137.554688 135.496094 142.285156 C 128.007812 147.140625 120.433594 151.871094 112.890625 156.664062 L 112.386719 156.992188 C 112.210938 159.03125 112.269531 161.042969 112.269531 163.085938 C 116.117188 162.847656 119.933594 163.027344 123.777344 162.9375 C 123.75 174.300781 123.835938 185.660156 123.660156 196.992188 L 123.628906 197.316406 C 113.066406 199.832031 101.617188 201.664062 92.714844 208.472656 C 103.097656 204.890625 113.898438 202.582031 124.753906 201.074219 C 133.484375 199.832031 142.300781 199.179688 151.085938 198.617188 C 168.1875 197.878906 185.347656 198.382812 202.386719 200.214844 C 215.347656 201.8125 228.277344 204.0625 240.613281 208.382812 C 240.40625 208.203125 239.933594 207.847656 239.695312 207.640625 Z M 166.058594 131.726562 C 169.164062 131.960938 172.59375 130.957031 175.316406 132.910156 C 176.058594 134.949219 175.851562 137.167969 175.910156 139.328125 C 175.878906 142.910156 175.820312 146.488281 175.910156 150.066406 C 175.851562 154.476562 175.761719 158.914062 175.910156 163.324219 C 175.761719 173.5 175.878906 183.675781 175.820312 193.855469 C 175.789062 193.886719 175.730469 193.886719 175.703125 193.914062 L 173.039062 193.914062 C 172.921875 193.886719 172.773438 193.855469 172.683594 193.855469 C 172.742188 187.199219 172.65625 180.511719 172.714844 173.855469 C 169.074219 173.738281 165.433594 173.824219 161.796875 173.824219 C 161.796875 180.511719 161.765625 187.226562 161.765625 193.914062 L 158.394531 193.914062 C 158.421875 174.09375 158.363281 154.269531 158.335938 134.476562 C 159.339844 131.042969 163.304688 131.695312 166.058594 131.726562 Z M 142.863281 182.226562 C 140.40625 182.167969 137.980469 182.199219 135.523438 182.167969 C 135.523438 179.742188 135.523438 177.316406 135.523438 174.890625 C 137.980469 174.890625 140.433594 174.921875 142.890625 174.859375 C 142.980469 177.316406 143.039062 179.773438 142.863281 182.226562 Z M 142.949219 172.847656 C 140.464844 172.878906 137.949219 172.878906 135.464844 172.789062 C 135.523438 170.394531 135.523438 167.96875 135.496094 165.570312 C 137.890625 165.542969 140.316406 165.480469 142.742188 165.570312 C 142.800781 165.660156 142.949219 165.835938 143.007812 165.925781 C 142.980469 168.203125 142.921875 170.511719 142.949219 172.847656 Z M 152.417969 182.167969 L 145.199219 182.167969 C 145.167969 179.742188 145.140625 177.316406 145.140625 174.890625 C 147.566406 174.890625 149.992188 174.890625 152.417969 174.890625 C 152.445312 177.316406 152.445312 179.742188 152.417969 182.167969 Z M 152.445312 172.847656 C 150.050781 172.820312 147.652344 172.820312 145.257812 172.878906 C 145.167969 170.542969 145.140625 168.175781 145.082031 165.835938 L 145.199219 165.511719 C 147.652344 165.601562 150.109375 165.601562 152.566406 165.601562 L 152.652344 165.808594 C 152.417969 168.144531 152.417969 170.511719 152.445312 172.847656 Z M 189.429688 182.289062 L 181.796875 182.289062 L 181.796875 174.652344 L 189.429688 174.652344 Z M 189.429688 173.027344 L 181.796875 173.027344 L 181.796875 165.394531 L 189.429688 165.394531 Z M 198.984375 182.289062 L 191.351562 182.289062 L 191.351562 174.652344 L 198.984375 174.652344 Z M 198.984375 173.027344 L 191.351562 173.027344 L 191.351562 165.394531 L 198.984375 165.394531 Z M 198.984375 173.027344 " fill-opacity="1" fill-rule="nonzero"/></g><g clip-path="url(#5b836696b3)"><path fill="#66bc46" d="M 308.140625 150.40625 C 337.121094 154.851562 337.121094 154.851562 341.566406 183.832031 C 346 154.851562 346 154.851562 374.980469 150.40625 C 346 145.972656 346 145.972656 341.566406 116.992188 C 337.121094 145.972656 337.121094 145.972656 308.140625 150.40625 " fill-opacity="1" fill-rule="nonzero"/></g><g clip-path="url(#582cc7b546)"><path fill="#66bc46" d="M 69.847656 301.34375 C 89.671875 304.382812 89.671875 304.382812 92.714844 324.210938 C 95.746094 304.382812 95.746094 304.382812 115.570312 301.34375 C 95.746094 298.308594 95.746094 298.308594 92.714844 278.484375 C 89.671875 298.308594 89.671875 298.308594 69.847656 301.34375 " fill-opacity="1" fill-rule="nonzero"/></g><g clip-path="url(#5164ae2d80)"><path fill="#66bc46" d="M 0 58.742188 C 27.789062 63.003906 27.789062 63.003906 32.050781 90.792969 C 36.300781 63.003906 36.300781 63.003906 64.089844 58.742188 C 36.300781 54.492188 36.300781 54.492188 32.050781 26.703125 C 27.789062 54.492188 27.789062 54.492188 0 58.742188 " fill-opacity="1" fill-rule="nonzero"/></g></svg>