<svg xmlns="http://www.w3.org/2000/svg" xmlns:xlink="http://www.w3.org/1999/xlink" width="1366" zoomAndPan="magnify" viewBox="0 0 1024.5 576" height="768" preserveAspectRatio="xMidYMid meet" version="1.0"><defs><g/><clipPath id="507910b9f4"><path d="M 0 0.140625 L 1024 0.140625 L 1024 575.859375 L 0 575.859375 Z M 0 0.140625 " clip-rule="nonzero"/></clipPath></defs><g clip-path="url(#507910b9f4)"><path fill="#ffffff" d="M 0 0.140625 L 1024 0.140625 L 1024 575.859375 L 0 575.859375 Z M 0 0.140625 " fill-opacity="1" fill-rule="nonzero"/><path fill="#ffffff" d="M 0 0.140625 L 1024 0.140625 L 1024 575.859375 L 0 575.859375 Z M 0 0.140625 " fill-opacity="1" fill-rule="nonzero"/></g><path fill="#0f5da6" d="M 575.933594 520.667969 C 574.214844 520.667969 572.761719 519.347656 572.613281 517.609375 C 572.460938 515.773438 573.828125 514.160156 575.667969 514.015625 C 580.992188 513.582031 586.273438 512.601562 591.351562 511.109375 C 593.117188 510.589844 594.972656 511.601562 595.492188 513.367188 C 596.011719 515.132812 594.996094 516.988281 593.230469 517.507812 C 587.71875 519.128906 581.992188 520.1875 576.214844 520.660156 C 576.121094 520.667969 576.027344 520.675781 575.941406 520.675781 Z M 607.683594 511.320312 C 606.496094 511.320312 605.34375 510.683594 604.742188 509.5625 C 603.871094 507.941406 604.484375 505.921875 606.101562 505.050781 C 610.78125 502.535156 615.226562 499.523438 619.308594 496.097656 C 620.714844 494.910156 622.820312 495.097656 624 496.511719 C 625.179688 497.921875 625 500.023438 623.585938 501.203125 C 619.15625 504.921875 614.335938 508.1875 609.25 510.921875 C 608.75 511.1875 608.210938 511.320312 607.675781 511.320312 Z M 633.027344 490.039062 C 632.304688 490.039062 631.578125 489.804688 630.964844 489.324219 C 629.519531 488.183594 629.265625 486.09375 630.40625 484.644531 C 633.710938 480.445312 636.566406 475.90625 638.890625 471.160156 C 639.703125 469.507812 641.699219 468.828125 643.351562 469.632812 C 645.003906 470.449219 645.683594 472.441406 644.878906 474.09375 C 642.34375 479.257812 639.238281 484.191406 635.644531 488.765625 C 634.984375 489.597656 634.011719 490.039062 633.027344 490.039062 Z M 647.539062 460.324219 C 647.277344 460.324219 647.015625 460.296875 646.757812 460.230469 C 644.964844 459.800781 643.863281 458.003906 644.292969 456.210938 C 645.539062 451.023438 646.175781 445.730469 646.199219 440.472656 C 646.203125 438.640625 647.695312 437.152344 649.53125 437.152344 L 649.542969 437.152344 C 651.382812 437.160156 652.871094 438.660156 652.863281 440.5 C 652.84375 446.269531 652.136719 452.078125 650.777344 457.761719 C 650.410156 459.289062 649.042969 460.316406 647.539062 460.316406 Z M 647.625 427.300781 C 646.117188 427.300781 644.746094 426.265625 644.382812 424.734375 C 643.171875 419.621094 641.351562 414.601562 638.980469 409.816406 C 638.160156 408.167969 638.832031 406.171875 640.476562 405.351562 C 642.125 404.53125 644.125 405.203125 644.945312 406.851562 C 647.542969 412.089844 649.535156 417.589844 650.871094 423.195312 C 651.296875 424.988281 650.183594 426.78125 648.398438 427.207031 C 648.136719 427.265625 647.878906 427.300781 647.625 427.300781 Z M 632.984375 397.679688 C 632.011719 397.679688 631.046875 397.25 630.386719 396.4375 C 627.066406 392.320312 623.28125 388.527344 619.140625 385.152344 C 617.714844 383.992188 617.496094 381.894531 618.660156 380.46875 C 619.820312 379.039062 621.921875 378.828125 623.347656 379.988281 C 627.847656 383.648438 631.964844 387.78125 635.578125 392.257812 C 636.730469 393.691406 636.511719 395.792969 635.078125 396.945312 C 634.464844 397.445312 633.726562 397.683594 632.984375 397.683594 Z M 607.335938 376.792969 C 606.824219 376.792969 606.296875 376.675781 605.808594 376.421875 C 601.082031 373.980469 596.089844 372.023438 590.964844 370.601562 C 589.191406 370.109375 588.152344 368.269531 588.644531 366.496094 C 589.140625 364.722656 590.972656 363.683594 592.75 364.175781 C 598.316406 365.722656 603.742188 367.847656 608.875 370.496094 C 610.507812 371.339844 611.15625 373.347656 610.308594 374.988281 C 609.714844 376.132812 608.550781 376.792969 607.34375 376.792969 Z M 429.65625 365.300781 C 429.359375 365.300781 429.054688 365.261719 428.761719 365.183594 C 423.195312 363.636719 417.777344 361.496094 412.644531 358.84375 C 411.011719 357.996094 410.371094 355.984375 411.21875 354.351562 C 412.0625 352.71875 414.078125 352.078125 415.710938 352.925781 C 420.429688 355.371094 425.421875 357.335938 430.546875 358.761719 C 432.320312 359.257812 433.359375 361.097656 432.867188 362.871094 C 432.453125 364.34375 431.121094 365.308594 429.660156 365.308594 Z M 400.273438 350.078125 C 399.53125 350.078125 398.785156 349.832031 398.164062 349.332031 C 393.6875 345.679688 389.574219 341.550781 385.941406 337.074219 C 384.78125 335.640625 385 333.546875 386.433594 332.386719 C 387.867188 331.226562 389.960938 331.445312 391.121094 332.878906 C 394.460938 337.007812 398.253906 340.804688 402.378906 344.171875 C 403.804688 345.339844 404.019531 347.433594 402.851562 348.863281 C 402.191406 349.671875 401.230469 350.089844 400.265625 350.089844 Z M 379.46875 324.363281 C 378.253906 324.363281 377.082031 323.695312 376.496094 322.542969 C 373.84375 317.335938 371.777344 311.875 370.351562 306.3125 C 369.890625 304.53125 370.960938 302.710938 372.75 302.25 C 374.527344 301.792969 376.347656 302.863281 376.808594 304.652344 C 378.113281 309.742188 380.007812 314.742188 382.441406 319.515625 C 383.273438 321.15625 382.621094 323.160156 380.980469 323.996094 C 380.496094 324.242188 379.980469 324.355469 379.476562 324.355469 Z M 371.308594 292.347656 C 369.503906 292.347656 368.015625 290.898438 367.976562 289.078125 C 367.964844 288.578125 367.964844 288.078125 367.964844 287.578125 C 367.964844 285.414062 368.0625 283.21875 368.25 281.066406 C 368.53125 277.953125 369.011719 274.820312 369.683594 271.753906 C 370.078125 269.957031 371.855469 268.824219 373.65625 269.214844 C 375.457031 269.609375 376.589844 271.390625 376.195312 273.1875 C 375.582031 275.980469 375.140625 278.828125 374.894531 281.660156 C 374.722656 283.621094 374.636719 285.613281 374.636719 287.585938 C 374.636719 288.039062 374.636719 288.5 374.648438 288.953125 C 374.6875 290.792969 373.222656 292.3125 371.382812 292.351562 C 371.363281 292.351562 371.335938 292.351562 371.316406 292.351562 Z M 378.347656 260.082031 C 377.867188 260.082031 377.375 259.976562 376.914062 259.757812 C 375.253906 258.964844 374.550781 256.976562 375.34375 255.3125 C 377.816406 250.125 380.894531 245.160156 384.488281 240.558594 C 385.621094 239.113281 387.714844 238.855469 389.167969 239.988281 C 390.621094 241.121094 390.875 243.214844 389.738281 244.667969 C 386.449219 248.886719 383.621094 253.429688 381.355469 258.183594 C 380.78125 259.382812 379.589844 260.082031 378.34375 260.082031 Z M 398.6875 233.996094 C 397.734375 233.996094 396.785156 233.585938 396.125 232.800781 C 394.945312 231.386719 395.132812 229.289062 396.539062 228.109375 C 400.964844 224.402344 405.796875 221.144531 410.898438 218.410156 C 412.523438 217.542969 414.535156 218.15625 415.410156 219.777344 C 416.277344 221.402344 415.664062 223.414062 414.042969 224.289062 C 409.34375 226.800781 404.898438 229.800781 400.824219 233.214844 C 400.199219 233.734375 399.4375 233.996094 398.6875 233.996094 Z M 427.875 218.390625 C 426.433594 218.390625 425.101562 217.449219 424.675781 215.988281 C 424.15625 214.222656 425.167969 212.371094 426.933594 211.855469 C 432.460938 210.238281 438.1875 209.179688 443.953125 208.710938 C 445.792969 208.566406 447.398438 209.929688 447.546875 211.765625 C 447.691406 213.597656 446.324219 215.210938 444.492188 215.355469 C 439.171875 215.789062 433.894531 216.761719 428.808594 218.257812 C 428.496094 218.351562 428.179688 218.390625 427.867188 218.390625 Z M 575.847656 199.984375 C 574.386719 199.984375 573.046875 199.019531 572.640625 197.546875 C 572.148438 195.773438 573.1875 193.933594 574.960938 193.441406 C 580.085938 192.011719 585.074219 190.046875 589.796875 187.601562 C 591.433594 186.753906 593.445312 187.394531 594.292969 189.027344 C 595.136719 190.660156 594.5 192.671875 592.863281 193.519531 C 587.738281 196.179688 582.3125 198.3125 576.746094 199.859375 C 576.449219 199.9375 576.148438 199.980469 575.855469 199.980469 Z M 605.230469 184.761719 C 604.261719 184.761719 603.304688 184.339844 602.644531 183.535156 C 601.476562 182.109375 601.695312 180.007812 603.125 178.847656 C 607.25 175.484375 611.042969 171.683594 614.382812 167.558594 C 615.542969 166.128906 617.640625 165.910156 619.066406 167.0625 C 620.5 168.222656 620.722656 170.324219 619.5625 171.75 C 615.929688 176.230469 611.816406 180.355469 607.335938 184.007812 C 606.714844 184.515625 605.96875 184.753906 605.230469 184.753906 Z M 626.035156 159.050781 C 625.527344 159.050781 625.007812 158.929688 624.527344 158.683594 C 622.886719 157.851562 622.234375 155.84375 623.066406 154.207031 C 625.492188 149.433594 627.394531 144.433594 628.699219 139.339844 C 629.160156 137.554688 630.972656 136.480469 632.757812 136.941406 C 634.539062 137.402344 635.617188 139.214844 635.160156 141 C 633.734375 146.566406 631.660156 152.027344 629.011719 157.230469 C 628.425781 158.386719 627.253906 159.050781 626.039062 159.050781 Z M 634.191406 127.035156 C 634.191406 127.035156 634.144531 127.035156 634.125 127.035156 C 632.285156 126.996094 630.828125 125.476562 630.859375 123.636719 C 630.867188 123.183594 630.871094 122.722656 630.871094 122.269531 C 630.871094 120.296875 630.785156 118.304688 630.613281 116.34375 C 630.359375 113.511719 629.925781 110.664062 629.3125 107.871094 C 628.917969 106.070312 630.054688 104.300781 631.851562 103.898438 C 633.652344 103.507812 635.425781 104.644531 635.824219 106.4375 C 636.5 109.503906 636.980469 112.636719 637.257812 115.75 C 637.453125 117.902344 637.546875 120.097656 637.546875 122.261719 C 637.546875 122.761719 637.546875 123.261719 637.53125 123.761719 C 637.492188 125.582031 636.011719 127.027344 634.199219 127.027344 Z M 627.152344 94.773438 C 625.90625 94.773438 624.714844 94.074219 624.140625 92.875 C 621.875 88.121094 619.054688 83.574219 615.753906 79.355469 C 614.621094 77.902344 614.875 75.808594 616.328125 74.675781 C 617.78125 73.542969 619.875 73.804688 621.007812 75.25 C 624.601562 79.847656 627.679688 84.808594 630.152344 90 C 630.945312 91.660156 630.238281 93.652344 628.578125 94.445312 C 628.121094 94.667969 627.625 94.773438 627.148438 94.773438 Z M 606.816406 68.683594 C 606.0625 68.683594 605.304688 68.429688 604.675781 67.902344 C 600.605469 64.492188 596.15625 61.492188 591.457031 58.980469 C 589.832031 58.113281 589.226562 56.09375 590.09375 54.464844 C 590.957031 52.839844 592.976562 52.234375 594.605469 53.101562 C 599.703125 55.824219 604.535156 59.085938 608.960938 62.792969 C 610.375 63.972656 610.5625 66.078125 609.375 67.484375 C 608.714844 68.269531 607.769531 68.675781 606.816406 68.675781 Z M 577.628906 53.078125 C 577.3125 53.078125 577 53.03125 576.6875 52.945312 C 571.59375 51.453125 566.320312 50.480469 561.003906 50.046875 C 559.167969 49.898438 557.804688 48.285156 557.949219 46.453125 C 558.097656 44.621094 559.703125 43.253906 561.542969 43.402344 C 567.316406 43.867188 573.042969 44.925781 578.558594 46.546875 C 580.328125 47.066406 581.339844 48.914062 580.820312 50.679688 C 580.394531 52.132812 579.066406 53.078125 577.621094 53.078125 Z M 577.628906 53.078125 " fill-opacity="1" fill-rule="nonzero"/><path fill="#66bc46" d="M 567.367188 102.078125 C 547.292969 125.644531 509.738281 119.496094 406.617188 119.65625 C 310.285156 119.804688 271.363281 125.277344 252.253906 102.078125 C 241.347656 88.835938 240.675781 70.84375 240.648438 69.945312 C 240.09375 48.082031 253.960938 30.722656 262.992188 22.738281 C 288.542969 0.160156 320.617188 12.640625 413.582031 12.191406 C 499.816406 11.777344 531.914062 0.765625 557.789062 22.738281 C 578.414062 40.25 580.132812 63.410156 580.132812 63.410156 C 581.304688 79.257812 574.566406 93.628906 567.367188 102.078125 Z M 567.367188 102.078125 " fill-opacity="1" fill-rule="nonzero"/><path fill="#66bc46" d="M 770.578125 252.152344 C 751.390625 275.714844 715.496094 269.570312 616.941406 269.730469 C 524.867188 269.875 487.667969 275.347656 469.402344 252.152344 C 458.96875 238.90625 458.332031 220.910156 458.3125 220.015625 C 457.785156 198.152344 471.027344 180.796875 479.667969 172.816406 C 504.085938 150.238281 534.738281 162.710938 623.601562 162.269531 C 706.023438 161.859375 736.699219 150.847656 761.433594 172.816406 C 781.144531 190.328125 782.792969 213.492188 782.792969 213.492188 C 783.910156 229.335938 777.472656 243.707031 770.585938 252.160156 Z M 770.578125 252.152344 " fill-opacity="1" fill-rule="nonzero"/><path fill="#66bc46" d="M 563.523438 402.230469 C 543.679688 425.792969 506.570312 419.648438 404.664062 419.808594 C 309.464844 419.953125 271.003906 425.425781 252.121094 402.230469 C 241.335938 388.984375 240.675781 370.988281 240.648438 370.089844 C 240.101562 348.226562 253.800781 330.867188 262.726562 322.886719 C 287.96875 300.3125 319.671875 312.78125 411.542969 312.34375 C 496.765625 311.929688 528.480469 300.917969 554.058594 322.886719 C 574.441406 340.398438 576.132812 363.5625 576.132812 363.5625 C 577.292969 379.40625 570.636719 393.777344 563.515625 402.230469 Z M 563.523438 402.230469 " fill-opacity="1" fill-rule="nonzero"/><path fill="#66bc46" d="M 770.578125 552.304688 C 751.390625 575.867188 715.496094 569.71875 616.941406 569.878906 C 524.867188 570.027344 487.667969 575.5 469.402344 552.304688 C 458.96875 539.058594 458.332031 521.0625 458.3125 520.167969 C 457.785156 498.304688 471.027344 480.945312 479.667969 472.96875 C 504.085938 450.390625 534.738281 462.863281 623.601562 462.421875 C 706.023438 462.007812 736.699219 450.996094 761.433594 472.96875 C 781.144531 490.476562 782.792969 513.640625 782.792969 513.640625 C 783.910156 529.484375 777.472656 543.855469 770.585938 552.308594 Z M 770.578125 552.304688 " fill-opacity="1" fill-rule="nonzero"/><g fill="#ffffff" fill-opacity="1"><g transform="translate(265.558734, 69.331737)"><g><path d="M 11.6875 0 L 6.84375 0 L 6.84375 -18.796875 L 0.640625 -18.796875 L 0.640625 -22.828125 L 17.875 -22.828125 L 17.875 -18.796875 L 11.6875 -18.796875 Z M 11.6875 0 "/></g></g></g><g fill="#ffffff" fill-opacity="1"><g transform="translate(284.076421, 69.331737)"><g><path d="M 7.71875 -12.703125 L 9.28125 -12.703125 C 10.8125 -12.703125 11.941406 -12.957031 12.671875 -13.46875 C 13.398438 -13.976562 13.765625 -14.78125 13.765625 -15.875 C 13.765625 -16.945312 13.390625 -17.710938 12.640625 -18.171875 C 11.898438 -18.628906 10.75 -18.859375 9.1875 -18.859375 L 7.71875 -18.859375 Z M 7.71875 -8.765625 L 7.71875 0 L 2.875 0 L 2.875 -22.828125 L 9.53125 -22.828125 C 12.632812 -22.828125 14.925781 -22.257812 16.40625 -21.125 C 17.894531 -20 18.640625 -18.289062 18.640625 -16 C 18.640625 -14.65625 18.269531 -13.457031 17.53125 -12.40625 C 16.789062 -11.363281 15.75 -10.546875 14.40625 -9.953125 C 17.832031 -4.816406 20.066406 -1.5 21.109375 0 L 15.75 0 L 10.296875 -8.765625 Z M 7.71875 -8.765625 "/></g></g></g><g fill="#ffffff" fill-opacity="1"><g transform="translate(305.18596, 69.331737)"><g><path d="M 23.59375 -11.453125 C 23.59375 -7.671875 22.65625 -4.765625 20.78125 -2.734375 C 18.90625 -0.703125 16.222656 0.3125 12.734375 0.3125 C 9.234375 0.3125 6.546875 -0.703125 4.671875 -2.734375 C 2.796875 -4.765625 1.859375 -7.679688 1.859375 -11.484375 C 1.859375 -15.273438 2.796875 -18.171875 4.671875 -20.171875 C 6.554688 -22.179688 9.253906 -23.1875 12.765625 -23.1875 C 16.265625 -23.1875 18.941406 -22.175781 20.796875 -20.15625 C 22.660156 -18.132812 23.59375 -15.234375 23.59375 -11.453125 Z M 6.9375 -11.453125 C 6.9375 -8.898438 7.421875 -6.976562 8.390625 -5.6875 C 9.359375 -4.394531 10.804688 -3.75 12.734375 -3.75 C 16.585938 -3.75 18.515625 -6.316406 18.515625 -11.453125 C 18.515625 -16.585938 16.597656 -19.15625 12.765625 -19.15625 C 10.835938 -19.15625 9.382812 -18.507812 8.40625 -17.21875 C 7.425781 -15.925781 6.9375 -14.003906 6.9375 -11.453125 Z M 6.9375 -11.453125 "/></g></g></g><g fill="#ffffff" fill-opacity="1"><g transform="translate(330.636071, 69.331737)"><g><path d="M 15.90625 -22.828125 L 20.78125 -22.828125 L 13.03125 0 L 7.75 0 L 0 -22.828125 L 4.890625 -22.828125 L 9.1875 -9.25 C 9.425781 -8.445312 9.671875 -7.507812 9.921875 -6.4375 C 10.179688 -5.375 10.34375 -4.632812 10.40625 -4.21875 C 10.519531 -5.175781 10.910156 -6.851562 11.578125 -9.25 Z M 15.90625 -22.828125 "/></g></g></g><g fill="#ffffff" fill-opacity="1"><g transform="translate(351.417725, 69.331737)"><g><path d="M 16.84375 0 L 15.203125 -5.4375 L 6.875 -5.4375 L 5.21875 0 L 0 0 L 8.0625 -22.921875 L 13.984375 -22.921875 L 22.0625 0 Z M 14.046875 -9.5 C 12.515625 -14.414062 11.648438 -17.195312 11.453125 -17.84375 C 11.265625 -18.488281 11.128906 -19 11.046875 -19.375 C 10.703125 -18.039062 9.71875 -14.75 8.09375 -9.5 Z M 14.046875 -9.5 "/></g></g></g><g fill="#ffffff" fill-opacity="1"><g transform="translate(373.479692, 69.331737)"><g/></g></g><g fill="#ffffff" fill-opacity="1"><g transform="translate(381.786108, 69.331737)"><g><path d="M 2.875 0 L 2.875 -22.828125 L 7.71875 -22.828125 L 7.71875 0 Z M 2.875 0 "/></g></g></g><g fill="#ffffff" fill-opacity="1"><g transform="translate(392.372105, 69.331737)"><g><path d="M 2.875 0 L 2.875 -22.828125 L 7.71875 -22.828125 L 7.71875 -4 L 16.96875 -4 L 16.96875 0 Z M 2.875 0 "/></g></g></g><g fill="#ffffff" fill-opacity="1"><g transform="translate(410.436999, 69.331737)"><g/></g></g><g fill="#ffffff" fill-opacity="1"><g transform="translate(418.743416, 69.331737)"><g><path d="M 11.6875 0 L 6.84375 0 L 6.84375 -18.796875 L 0.640625 -18.796875 L 0.640625 -22.828125 L 17.875 -22.828125 L 17.875 -18.796875 L 11.6875 -18.796875 Z M 11.6875 0 "/></g></g></g><g fill="#ffffff" fill-opacity="1"><g transform="translate(437.261103, 69.331737)"><g><path d="M 21.453125 -22.828125 L 21.453125 -8.0625 C 21.453125 -6.375 21.070312 -4.894531 20.3125 -3.625 C 19.5625 -2.351562 18.472656 -1.378906 17.046875 -0.703125 C 15.628906 -0.0234375 13.945312 0.3125 12 0.3125 C 9.0625 0.3125 6.78125 -0.4375 5.15625 -1.9375 C 3.53125 -3.445312 2.71875 -5.507812 2.71875 -8.125 L 2.71875 -22.828125 L 7.546875 -22.828125 L 7.546875 -8.859375 C 7.546875 -7.097656 7.898438 -5.804688 8.609375 -4.984375 C 9.316406 -4.160156 10.488281 -3.75 12.125 -3.75 C 13.707031 -3.75 14.851562 -4.160156 15.5625 -4.984375 C 16.269531 -5.816406 16.625 -7.117188 16.625 -8.890625 L 16.625 -22.828125 Z M 21.453125 -22.828125 "/></g></g></g><g fill="#ffffff" fill-opacity="1"><g transform="translate(461.43089, 69.331737)"><g><path d="M 23.59375 -11.453125 C 23.59375 -7.671875 22.65625 -4.765625 20.78125 -2.734375 C 18.90625 -0.703125 16.222656 0.3125 12.734375 0.3125 C 9.234375 0.3125 6.546875 -0.703125 4.671875 -2.734375 C 2.796875 -4.765625 1.859375 -7.679688 1.859375 -11.484375 C 1.859375 -15.273438 2.796875 -18.171875 4.671875 -20.171875 C 6.554688 -22.179688 9.253906 -23.1875 12.765625 -23.1875 C 16.265625 -23.1875 18.941406 -22.175781 20.796875 -20.15625 C 22.660156 -18.132812 23.59375 -15.234375 23.59375 -11.453125 Z M 6.9375 -11.453125 C 6.9375 -8.898438 7.421875 -6.976562 8.390625 -5.6875 C 9.359375 -4.394531 10.804688 -3.75 12.734375 -3.75 C 16.585938 -3.75 18.515625 -6.316406 18.515625 -11.453125 C 18.515625 -16.585938 16.597656 -19.15625 12.765625 -19.15625 C 10.835938 -19.15625 9.382812 -18.507812 8.40625 -17.21875 C 7.425781 -15.925781 6.9375 -14.003906 6.9375 -11.453125 Z M 6.9375 -11.453125 "/></g></g></g><g fill="#ffffff" fill-opacity="1"><g transform="translate(486.881, 69.331737)"><g/></g></g><g fill="#ffffff" fill-opacity="1"><g transform="translate(495.187416, 69.331737)"><g><path d="M 7.71875 -12.09375 L 9.3125 -12.09375 C 10.800781 -12.09375 11.914062 -12.382812 12.65625 -12.96875 C 13.394531 -13.5625 13.765625 -14.421875 13.765625 -15.546875 C 13.765625 -16.671875 13.453125 -17.503906 12.828125 -18.046875 C 12.210938 -18.585938 11.242188 -18.859375 9.921875 -18.859375 L 7.71875 -18.859375 Z M 18.640625 -15.71875 C 18.640625 -13.257812 17.875 -11.378906 16.34375 -10.078125 C 14.8125 -8.773438 12.628906 -8.125 9.796875 -8.125 L 7.71875 -8.125 L 7.71875 0 L 2.875 0 L 2.875 -22.828125 L 10.171875 -22.828125 C 12.941406 -22.828125 15.046875 -22.226562 16.484375 -21.03125 C 17.921875 -19.84375 18.640625 -18.070312 18.640625 -15.71875 Z M 18.640625 -15.71875 "/></g></g></g><g fill="#ffffff" fill-opacity="1"><g transform="translate(515.266461, 69.331737)"><g><path d="M 7.71875 -12.703125 L 9.28125 -12.703125 C 10.8125 -12.703125 11.941406 -12.957031 12.671875 -13.46875 C 13.398438 -13.976562 13.765625 -14.78125 13.765625 -15.875 C 13.765625 -16.945312 13.390625 -17.710938 12.640625 -18.171875 C 11.898438 -18.628906 10.75 -18.859375 9.1875 -18.859375 L 7.71875 -18.859375 Z M 7.71875 -8.765625 L 7.71875 0 L 2.875 0 L 2.875 -22.828125 L 9.53125 -22.828125 C 12.632812 -22.828125 14.925781 -22.257812 16.40625 -21.125 C 17.894531 -20 18.640625 -18.289062 18.640625 -16 C 18.640625 -14.65625 18.269531 -13.457031 17.53125 -12.40625 C 16.789062 -11.363281 15.75 -10.546875 14.40625 -9.953125 C 17.832031 -4.816406 20.066406 -1.5 21.109375 0 L 15.75 0 L 10.296875 -8.765625 Z M 7.71875 -8.765625 "/></g></g></g><g fill="#ffffff" fill-opacity="1"><g transform="translate(536.376, 69.331737)"><g><path d="M 23.59375 -11.453125 C 23.59375 -7.671875 22.65625 -4.765625 20.78125 -2.734375 C 18.90625 -0.703125 16.222656 0.3125 12.734375 0.3125 C 9.234375 0.3125 6.546875 -0.703125 4.671875 -2.734375 C 2.796875 -4.765625 1.859375 -7.679688 1.859375 -11.484375 C 1.859375 -15.273438 2.796875 -18.171875 4.671875 -20.171875 C 6.554688 -22.179688 9.253906 -23.1875 12.765625 -23.1875 C 16.265625 -23.1875 18.941406 -22.175781 20.796875 -20.15625 C 22.660156 -18.132812 23.59375 -15.234375 23.59375 -11.453125 Z M 6.9375 -11.453125 C 6.9375 -8.898438 7.421875 -6.976562 8.390625 -5.6875 C 9.359375 -4.394531 10.804688 -3.75 12.734375 -3.75 C 16.585938 -3.75 18.515625 -6.316406 18.515625 -11.453125 C 18.515625 -16.585938 16.597656 -19.15625 12.765625 -19.15625 C 10.835938 -19.15625 9.382812 -18.507812 8.40625 -17.21875 C 7.425781 -15.925781 6.9375 -14.003906 6.9375 -11.453125 Z M 6.9375 -11.453125 "/></g></g></g><g fill="#ffffff" fill-opacity="1"><g transform="translate(538.854568, 221.144505)"><g><path d="M 16.84375 0 L 15.203125 -5.4375 L 6.875 -5.4375 L 5.21875 0 L 0 0 L 8.0625 -22.921875 L 13.984375 -22.921875 L 22.0625 0 Z M 14.046875 -9.5 C 12.515625 -14.414062 11.648438 -17.195312 11.453125 -17.84375 C 11.265625 -18.488281 11.128906 -19 11.046875 -19.375 C 10.703125 -18.039062 9.71875 -14.75 8.09375 -9.5 Z M 14.046875 -9.5 "/></g></g></g><g fill="#ffffff" fill-opacity="1"><g transform="translate(560.916535, 221.144505)"><g><path d="M 16.34375 -6.34375 C 16.34375 -4.28125 15.601562 -2.65625 14.125 -1.46875 C 12.644531 -0.28125 10.582031 0.3125 7.9375 0.3125 C 5.5 0.3125 3.34375 -0.144531 1.46875 -1.0625 L 1.46875 -5.5625 C 3.007812 -4.875 4.3125 -4.390625 5.375 -4.109375 C 6.445312 -3.828125 7.425781 -3.6875 8.3125 -3.6875 C 9.375 -3.6875 10.1875 -3.890625 10.75 -4.296875 C 11.320312 -4.703125 11.609375 -5.304688 11.609375 -6.109375 C 11.609375 -6.554688 11.484375 -6.953125 11.234375 -7.296875 C 10.984375 -7.648438 10.613281 -7.988281 10.125 -8.3125 C 9.644531 -8.632812 8.660156 -9.148438 7.171875 -9.859375 C 5.773438 -10.515625 4.726562 -11.144531 4.03125 -11.75 C 3.332031 -12.351562 2.773438 -13.054688 2.359375 -13.859375 C 1.941406 -14.660156 1.734375 -15.59375 1.734375 -16.65625 C 1.734375 -18.675781 2.414062 -20.265625 3.78125 -21.421875 C 5.15625 -22.578125 7.050781 -23.15625 9.46875 -23.15625 C 10.65625 -23.15625 11.785156 -23.015625 12.859375 -22.734375 C 13.941406 -22.453125 15.066406 -22.054688 16.234375 -21.546875 L 14.6875 -17.78125 C 13.46875 -18.28125 12.457031 -18.628906 11.65625 -18.828125 C 10.863281 -19.023438 10.082031 -19.125 9.3125 -19.125 C 8.394531 -19.125 7.691406 -18.910156 7.203125 -18.484375 C 6.710938 -18.054688 6.46875 -17.5 6.46875 -16.8125 C 6.46875 -16.382812 6.566406 -16.015625 6.765625 -15.703125 C 6.960938 -15.390625 7.273438 -15.082031 7.703125 -14.78125 C 8.140625 -14.488281 9.164062 -13.957031 10.78125 -13.1875 C 12.914062 -12.164062 14.375 -11.140625 15.15625 -10.109375 C 15.945312 -9.085938 16.34375 -7.832031 16.34375 -6.34375 Z M 16.34375 -6.34375 "/></g></g></g><g fill="#ffffff" fill-opacity="1"><g transform="translate(578.528636, 221.144505)"><g><path d="M 16.34375 -6.34375 C 16.34375 -4.28125 15.601562 -2.65625 14.125 -1.46875 C 12.644531 -0.28125 10.582031 0.3125 7.9375 0.3125 C 5.5 0.3125 3.34375 -0.144531 1.46875 -1.0625 L 1.46875 -5.5625 C 3.007812 -4.875 4.3125 -4.390625 5.375 -4.109375 C 6.445312 -3.828125 7.425781 -3.6875 8.3125 -3.6875 C 9.375 -3.6875 10.1875 -3.890625 10.75 -4.296875 C 11.320312 -4.703125 11.609375 -5.304688 11.609375 -6.109375 C 11.609375 -6.554688 11.484375 -6.953125 11.234375 -7.296875 C 10.984375 -7.648438 10.613281 -7.988281 10.125 -8.3125 C 9.644531 -8.632812 8.660156 -9.148438 7.171875 -9.859375 C 5.773438 -10.515625 4.726562 -11.144531 4.03125 -11.75 C 3.332031 -12.351562 2.773438 -13.054688 2.359375 -13.859375 C 1.941406 -14.660156 1.734375 -15.59375 1.734375 -16.65625 C 1.734375 -18.675781 2.414062 -20.265625 3.78125 -21.421875 C 5.15625 -22.578125 7.050781 -23.15625 9.46875 -23.15625 C 10.65625 -23.15625 11.785156 -23.015625 12.859375 -22.734375 C 13.941406 -22.453125 15.066406 -22.054688 16.234375 -21.546875 L 14.6875 -17.78125 C 13.46875 -18.28125 12.457031 -18.628906 11.65625 -18.828125 C 10.863281 -19.023438 10.082031 -19.125 9.3125 -19.125 C 8.394531 -19.125 7.691406 -18.910156 7.203125 -18.484375 C 6.710938 -18.054688 6.46875 -17.5 6.46875 -16.8125 C 6.46875 -16.382812 6.566406 -16.015625 6.765625 -15.703125 C 6.960938 -15.390625 7.273438 -15.082031 7.703125 -14.78125 C 8.140625 -14.488281 9.164062 -13.957031 10.78125 -13.1875 C 12.914062 -12.164062 14.375 -11.140625 15.15625 -10.109375 C 15.945312 -9.085938 16.34375 -7.832031 16.34375 -6.34375 Z M 16.34375 -6.34375 "/></g></g></g><g fill="#ffffff" fill-opacity="1"><g transform="translate(596.140737, 221.144505)"><g><path d="M 21.453125 -22.828125 L 21.453125 -8.0625 C 21.453125 -6.375 21.070312 -4.894531 20.3125 -3.625 C 19.5625 -2.351562 18.472656 -1.378906 17.046875 -0.703125 C 15.628906 -0.0234375 13.945312 0.3125 12 0.3125 C 9.0625 0.3125 6.78125 -0.4375 5.15625 -1.9375 C 3.53125 -3.445312 2.71875 -5.507812 2.71875 -8.125 L 2.71875 -22.828125 L 7.546875 -22.828125 L 7.546875 -8.859375 C 7.546875 -7.097656 7.898438 -5.804688 8.609375 -4.984375 C 9.316406 -4.160156 10.488281 -3.75 12.125 -3.75 C 13.707031 -3.75 14.851562 -4.160156 15.5625 -4.984375 C 16.269531 -5.816406 16.625 -7.117188 16.625 -8.890625 L 16.625 -22.828125 Z M 21.453125 -22.828125 "/></g></g></g><g fill="#ffffff" fill-opacity="1"><g transform="translate(620.310534, 221.144505)"><g><path d="M 12.546875 0 L 7.046875 -17.90625 L 6.90625 -17.90625 C 7.101562 -14.269531 7.203125 -11.84375 7.203125 -10.625 L 7.203125 0 L 2.875 0 L 2.875 -22.828125 L 9.46875 -22.828125 L 14.875 -5.375 L 14.96875 -5.375 L 20.6875 -22.828125 L 27.28125 -22.828125 L 27.28125 0 L 22.765625 0 L 22.765625 -10.8125 C 22.765625 -11.320312 22.769531 -11.910156 22.78125 -12.578125 C 22.800781 -13.242188 22.875 -15.007812 23 -17.875 L 22.859375 -17.875 L 16.96875 0 Z M 12.546875 0 "/></g></g></g><g fill="#ffffff" fill-opacity="1"><g transform="translate(650.460328, 221.144505)"><g><path d="M 2.875 0 L 2.875 -22.828125 L 7.71875 -22.828125 L 7.71875 0 Z M 2.875 0 "/></g></g></g><g fill="#ffffff" fill-opacity="1"><g transform="translate(661.046324, 221.144505)"><g><path d="M 2.875 0 L 2.875 -22.828125 L 7.71875 -22.828125 L 7.71875 -4 L 16.96875 -4 L 16.96875 0 Z M 2.875 0 "/></g></g></g><g fill="#ffffff" fill-opacity="1"><g transform="translate(679.111219, 221.144505)"><g><path d="M 23.59375 -11.453125 C 23.59375 -7.671875 22.65625 -4.765625 20.78125 -2.734375 C 18.90625 -0.703125 16.222656 0.3125 12.734375 0.3125 C 9.234375 0.3125 6.546875 -0.703125 4.671875 -2.734375 C 2.796875 -4.765625 1.859375 -7.679688 1.859375 -11.484375 C 1.859375 -15.273438 2.796875 -18.171875 4.671875 -20.171875 C 6.554688 -22.179688 9.253906 -23.1875 12.765625 -23.1875 C 16.265625 -23.1875 18.941406 -22.175781 20.796875 -20.15625 C 22.660156 -18.132812 23.59375 -15.234375 23.59375 -11.453125 Z M 6.9375 -11.453125 C 6.9375 -8.898438 7.421875 -6.976562 8.390625 -5.6875 C 9.359375 -4.394531 10.804688 -3.75 12.734375 -3.75 C 16.585938 -3.75 18.515625 -6.316406 18.515625 -11.453125 C 18.515625 -16.585938 16.597656 -19.15625 12.765625 -19.15625 C 10.835938 -19.15625 9.382812 -18.507812 8.40625 -17.21875 C 7.425781 -15.925781 6.9375 -14.003906 6.9375 -11.453125 Z M 6.9375 -11.453125 "/></g></g></g><g fill="#ffffff" fill-opacity="1"><g transform="translate(359.729909, 371.586555)"><g><path d="M 7.71875 -12.09375 L 9.3125 -12.09375 C 10.800781 -12.09375 11.914062 -12.382812 12.65625 -12.96875 C 13.394531 -13.5625 13.765625 -14.421875 13.765625 -15.546875 C 13.765625 -16.671875 13.453125 -17.503906 12.828125 -18.046875 C 12.210938 -18.585938 11.242188 -18.859375 9.921875 -18.859375 L 7.71875 -18.859375 Z M 18.640625 -15.71875 C 18.640625 -13.257812 17.875 -11.378906 16.34375 -10.078125 C 14.8125 -8.773438 12.628906 -8.125 9.796875 -8.125 L 7.71875 -8.125 L 7.71875 0 L 2.875 0 L 2.875 -22.828125 L 10.171875 -22.828125 C 12.941406 -22.828125 15.046875 -22.226562 16.484375 -21.03125 C 17.921875 -19.84375 18.640625 -18.070312 18.640625 -15.71875 Z M 18.640625 -15.71875 "/></g></g></g><g fill="#ffffff" fill-opacity="1"><g transform="translate(379.808954, 371.586555)"><g><path d="M 16.84375 0 L 15.203125 -5.4375 L 6.875 -5.4375 L 5.21875 0 L 0 0 L 8.0625 -22.921875 L 13.984375 -22.921875 L 22.0625 0 Z M 14.046875 -9.5 C 12.515625 -14.414062 11.648438 -17.195312 11.453125 -17.84375 C 11.265625 -18.488281 11.128906 -19 11.046875 -19.375 C 10.703125 -18.039062 9.71875 -14.75 8.09375 -9.5 Z M 14.046875 -9.5 "/></g></g></g><g fill="#ffffff" fill-opacity="1"><g transform="translate(401.87092, 371.586555)"><g><path d="M 11.546875 -12.828125 L 20.59375 -12.828125 L 20.59375 -0.984375 C 19.125 -0.503906 17.742188 -0.171875 16.453125 0.015625 C 15.160156 0.210938 13.835938 0.3125 12.484375 0.3125 C 9.035156 0.3125 6.398438 -0.695312 4.578125 -2.71875 C 2.765625 -4.75 1.859375 -7.660156 1.859375 -11.453125 C 1.859375 -15.128906 2.910156 -18 5.015625 -20.0625 C 7.128906 -22.125 10.054688 -23.15625 13.796875 -23.15625 C 16.128906 -23.15625 18.382812 -22.6875 20.5625 -21.75 L 18.953125 -17.875 C 17.285156 -18.707031 15.554688 -19.125 13.765625 -19.125 C 11.671875 -19.125 9.992188 -18.421875 8.734375 -17.015625 C 7.472656 -15.617188 6.84375 -13.734375 6.84375 -11.359375 C 6.84375 -8.878906 7.347656 -6.984375 8.359375 -5.671875 C 9.378906 -4.367188 10.859375 -3.71875 12.796875 -3.71875 C 13.804688 -3.71875 14.832031 -3.820312 15.875 -4.03125 L 15.875 -8.796875 L 11.546875 -8.796875 Z M 11.546875 -12.828125 "/></g></g></g><g fill="#ffffff" fill-opacity="1"><g transform="translate(425.025836, 371.586555)"><g><path d="M 16.84375 0 L 15.203125 -5.4375 L 6.875 -5.4375 L 5.21875 0 L 0 0 L 8.0625 -22.921875 L 13.984375 -22.921875 L 22.0625 0 Z M 14.046875 -9.5 C 12.515625 -14.414062 11.648438 -17.195312 11.453125 -17.84375 C 11.265625 -18.488281 11.128906 -19 11.046875 -19.375 C 10.703125 -18.039062 9.71875 -14.75 8.09375 -9.5 Z M 14.046875 -9.5 "/></g></g></g><g fill="#ffffff" fill-opacity="1"><g transform="translate(524.989066, 507.792731)"><g><path d="M 2.875 0 L 2.875 -22.828125 L 7.71875 -22.828125 L 7.71875 -4 L 16.96875 -4 L 16.96875 0 Z M 2.875 0 "/></g></g></g><g fill="#ffffff" fill-opacity="1"><g transform="translate(543.05396, 507.792731)"><g><path d="M 16.84375 0 L 15.203125 -5.4375 L 6.875 -5.4375 L 5.21875 0 L 0 0 L 8.0625 -22.921875 L 13.984375 -22.921875 L 22.0625 0 Z M 14.046875 -9.5 C 12.515625 -14.414062 11.648438 -17.195312 11.453125 -17.84375 C 11.265625 -18.488281 11.128906 -19 11.046875 -19.375 C 10.703125 -18.039062 9.71875 -14.75 8.09375 -9.5 Z M 14.046875 -9.5 "/></g></g></g><g fill="#ffffff" fill-opacity="1"><g transform="translate(565.115927, 507.792731)"><g><path d="M 16.34375 -6.34375 C 16.34375 -4.28125 15.601562 -2.65625 14.125 -1.46875 C 12.644531 -0.28125 10.582031 0.3125 7.9375 0.3125 C 5.5 0.3125 3.34375 -0.144531 1.46875 -1.0625 L 1.46875 -5.5625 C 3.007812 -4.875 4.3125 -4.390625 5.375 -4.109375 C 6.445312 -3.828125 7.425781 -3.6875 8.3125 -3.6875 C 9.375 -3.6875 10.1875 -3.890625 10.75 -4.296875 C 11.320312 -4.703125 11.609375 -5.304688 11.609375 -6.109375 C 11.609375 -6.554688 11.484375 -6.953125 11.234375 -7.296875 C 10.984375 -7.648438 10.613281 -7.988281 10.125 -8.3125 C 9.644531 -8.632812 8.660156 -9.148438 7.171875 -9.859375 C 5.773438 -10.515625 4.726562 -11.144531 4.03125 -11.75 C 3.332031 -12.351562 2.773438 -13.054688 2.359375 -13.859375 C 1.941406 -14.660156 1.734375 -15.59375 1.734375 -16.65625 C 1.734375 -18.675781 2.414062 -20.265625 3.78125 -21.421875 C 5.15625 -22.578125 7.050781 -23.15625 9.46875 -23.15625 C 10.65625 -23.15625 11.785156 -23.015625 12.859375 -22.734375 C 13.941406 -22.453125 15.066406 -22.054688 16.234375 -21.546875 L 14.6875 -17.78125 C 13.46875 -18.28125 12.457031 -18.628906 11.65625 -18.828125 C 10.863281 -19.023438 10.082031 -19.125 9.3125 -19.125 C 8.394531 -19.125 7.691406 -18.910156 7.203125 -18.484375 C 6.710938 -18.054688 6.46875 -17.5 6.46875 -16.8125 C 6.46875 -16.382812 6.566406 -16.015625 6.765625 -15.703125 C 6.960938 -15.390625 7.273438 -15.082031 7.703125 -14.78125 C 8.140625 -14.488281 9.164062 -13.957031 10.78125 -13.1875 C 12.914062 -12.164062 14.375 -11.140625 15.15625 -10.109375 C 15.945312 -9.085938 16.34375 -7.832031 16.34375 -6.34375 Z M 16.34375 -6.34375 "/></g></g></g><g fill="#ffffff" fill-opacity="1"><g transform="translate(582.728028, 507.792731)"><g><path d="M 12.578125 -19.125 C 10.753906 -19.125 9.34375 -18.441406 8.34375 -17.078125 C 7.34375 -15.710938 6.84375 -13.804688 6.84375 -11.359375 C 6.84375 -6.265625 8.753906 -3.71875 12.578125 -3.71875 C 14.179688 -3.71875 16.117188 -4.117188 18.390625 -4.921875 L 18.390625 -0.859375 C 16.523438 -0.078125 14.4375 0.3125 12.125 0.3125 C 8.800781 0.3125 6.257812 -0.691406 4.5 -2.703125 C 2.738281 -4.722656 1.859375 -7.617188 1.859375 -11.390625 C 1.859375 -13.765625 2.289062 -15.84375 3.15625 -17.625 C 4.019531 -19.40625 5.257812 -20.769531 6.875 -21.71875 C 8.5 -22.675781 10.398438 -23.15625 12.578125 -23.15625 C 14.796875 -23.15625 17.019531 -22.617188 19.25 -21.546875 L 17.6875 -17.609375 C 16.832031 -18.015625 15.972656 -18.367188 15.109375 -18.671875 C 14.253906 -18.972656 13.410156 -19.125 12.578125 -19.125 Z M 12.578125 -19.125 "/></g></g></g><g fill="#ffffff" fill-opacity="1"><g transform="translate(603.103729, 507.792731)"><g><path d="M 2.875 0 L 2.875 -22.828125 L 7.71875 -22.828125 L 7.71875 0 Z M 2.875 0 "/></g></g></g><g fill="#ffffff" fill-opacity="1"><g transform="translate(613.689726, 507.792731)"><g><path d="M 16.84375 0 L 15.203125 -5.4375 L 6.875 -5.4375 L 5.21875 0 L 0 0 L 8.0625 -22.921875 L 13.984375 -22.921875 L 22.0625 0 Z M 14.046875 -9.5 C 12.515625 -14.414062 11.648438 -17.195312 11.453125 -17.84375 C 11.265625 -18.488281 11.128906 -19 11.046875 -19.375 C 10.703125 -18.039062 9.71875 -14.75 8.09375 -9.5 Z M 14.046875 -9.5 "/></g></g></g><g fill="#ffffff" fill-opacity="1"><g transform="translate(635.751692, 507.792731)"><g/></g></g><g fill="#ffffff" fill-opacity="1"><g transform="translate(644.058109, 507.792731)"><g><path d="M 21.453125 -22.828125 L 21.453125 -8.0625 C 21.453125 -6.375 21.070312 -4.894531 20.3125 -3.625 C 19.5625 -2.351562 18.472656 -1.378906 17.046875 -0.703125 C 15.628906 -0.0234375 13.945312 0.3125 12 0.3125 C 9.0625 0.3125 6.78125 -0.4375 5.15625 -1.9375 C 3.53125 -3.445312 2.71875 -5.507812 2.71875 -8.125 L 2.71875 -22.828125 L 7.546875 -22.828125 L 7.546875 -8.859375 C 7.546875 -7.097656 7.898438 -5.804688 8.609375 -4.984375 C 9.316406 -4.160156 10.488281 -3.75 12.125 -3.75 C 13.707031 -3.75 14.851562 -4.160156 15.5625 -4.984375 C 16.269531 -5.816406 16.625 -7.117188 16.625 -8.890625 L 16.625 -22.828125 Z M 21.453125 -22.828125 "/></g></g></g><g fill="#ffffff" fill-opacity="1"><g transform="translate(668.227906, 507.792731)"><g><path d="M 23.125 0 L 16.96875 0 L 7.046875 -17.265625 L 6.90625 -17.265625 C 7.101562 -14.222656 7.203125 -12.050781 7.203125 -10.75 L 7.203125 0 L 2.875 0 L 2.875 -22.828125 L 8.984375 -22.828125 L 18.890625 -5.734375 L 19 -5.734375 C 18.84375 -8.703125 18.765625 -10.800781 18.765625 -12.03125 L 18.765625 -22.828125 L 23.125 -22.828125 Z M 23.125 0 "/></g></g></g><g fill="#ffffff" fill-opacity="1"><g transform="translate(694.224491, 507.792731)"><g><path d="M 16.84375 0 L 15.203125 -5.4375 L 6.875 -5.4375 L 5.21875 0 L 0 0 L 8.0625 -22.921875 L 13.984375 -22.921875 L 22.0625 0 Z M 14.046875 -9.5 C 12.515625 -14.414062 11.648438 -17.195312 11.453125 -17.84375 C 11.265625 -18.488281 11.128906 -19 11.046875 -19.375 C 10.703125 -18.039062 9.71875 -14.75 8.09375 -9.5 Z M 14.046875 -9.5 "/></g></g></g><g fill="#ffffff" fill-opacity="1"><g transform="translate(520.210148, 552.021143)"><g><path d="M 7.71875 -12.703125 L 9.28125 -12.703125 C 10.8125 -12.703125 11.941406 -12.957031 12.671875 -13.46875 C 13.398438 -13.976562 13.765625 -14.78125 13.765625 -15.875 C 13.765625 -16.945312 13.390625 -17.710938 12.640625 -18.171875 C 11.898438 -18.628906 10.75 -18.859375 9.1875 -18.859375 L 7.71875 -18.859375 Z M 7.71875 -8.765625 L 7.71875 0 L 2.875 0 L 2.875 -22.828125 L 9.53125 -22.828125 C 12.632812 -22.828125 14.925781 -22.257812 16.40625 -21.125 C 17.894531 -20 18.640625 -18.289062 18.640625 -16 C 18.640625 -14.65625 18.269531 -13.457031 17.53125 -12.40625 C 16.789062 -11.363281 15.75 -10.546875 14.40625 -9.953125 C 17.832031 -4.816406 20.066406 -1.5 21.109375 0 L 15.75 0 L 10.296875 -8.765625 Z M 7.71875 -8.765625 "/></g></g></g><g fill="#ffffff" fill-opacity="1"><g transform="translate(541.319687, 552.021143)"><g><path d="M 16.015625 0 L 2.875 0 L 2.875 -22.828125 L 16.015625 -22.828125 L 16.015625 -18.859375 L 7.71875 -18.859375 L 7.71875 -13.859375 L 15.453125 -13.859375 L 15.453125 -9.890625 L 7.71875 -9.890625 L 7.71875 -4 L 16.015625 -4 Z M 16.015625 0 "/></g></g></g><g fill="#ffffff" fill-opacity="1"><g transform="translate(559.228446, 552.021143)"><g><path d="M 12.578125 -19.125 C 10.753906 -19.125 9.34375 -18.441406 8.34375 -17.078125 C 7.34375 -15.710938 6.84375 -13.804688 6.84375 -11.359375 C 6.84375 -6.265625 8.753906 -3.71875 12.578125 -3.71875 C 14.179688 -3.71875 16.117188 -4.117188 18.390625 -4.921875 L 18.390625 -0.859375 C 16.523438 -0.078125 14.4375 0.3125 12.125 0.3125 C 8.800781 0.3125 6.257812 -0.691406 4.5 -2.703125 C 2.738281 -4.722656 1.859375 -7.617188 1.859375 -11.390625 C 1.859375 -13.765625 2.289062 -15.84375 3.15625 -17.625 C 4.019531 -19.40625 5.257812 -20.769531 6.875 -21.71875 C 8.5 -22.675781 10.398438 -23.15625 12.578125 -23.15625 C 14.796875 -23.15625 17.019531 -22.617188 19.25 -21.546875 L 17.6875 -17.609375 C 16.832031 -18.015625 15.972656 -18.367188 15.109375 -18.671875 C 14.253906 -18.972656 13.410156 -19.125 12.578125 -19.125 Z M 12.578125 -19.125 "/></g></g></g><g fill="#ffffff" fill-opacity="1"><g transform="translate(579.604147, 552.021143)"><g><path d="M 16.015625 0 L 2.875 0 L 2.875 -22.828125 L 16.015625 -22.828125 L 16.015625 -18.859375 L 7.71875 -18.859375 L 7.71875 -13.859375 L 15.453125 -13.859375 L 15.453125 -9.890625 L 7.71875 -9.890625 L 7.71875 -4 L 16.015625 -4 Z M 16.015625 0 "/></g></g></g><g fill="#ffffff" fill-opacity="1"><g transform="translate(597.512905, 552.021143)"><g><path d="M 23.125 0 L 16.96875 0 L 7.046875 -17.265625 L 6.90625 -17.265625 C 7.101562 -14.222656 7.203125 -12.050781 7.203125 -10.75 L 7.203125 0 L 2.875 0 L 2.875 -22.828125 L 8.984375 -22.828125 L 18.890625 -5.734375 L 19 -5.734375 C 18.84375 -8.703125 18.765625 -10.800781 18.765625 -12.03125 L 18.765625 -22.828125 L 23.125 -22.828125 Z M 23.125 0 "/></g></g></g><g fill="#ffffff" fill-opacity="1"><g transform="translate(623.50949, 552.021143)"><g><path d="M 16.34375 -6.34375 C 16.34375 -4.28125 15.601562 -2.65625 14.125 -1.46875 C 12.644531 -0.28125 10.582031 0.3125 7.9375 0.3125 C 5.5 0.3125 3.34375 -0.144531 1.46875 -1.0625 L 1.46875 -5.5625 C 3.007812 -4.875 4.3125 -4.390625 5.375 -4.109375 C 6.445312 -3.828125 7.425781 -3.6875 8.3125 -3.6875 C 9.375 -3.6875 10.1875 -3.890625 10.75 -4.296875 C 11.320312 -4.703125 11.609375 -5.304688 11.609375 -6.109375 C 11.609375 -6.554688 11.484375 -6.953125 11.234375 -7.296875 C 10.984375 -7.648438 10.613281 -7.988281 10.125 -8.3125 C 9.644531 -8.632812 8.660156 -9.148438 7.171875 -9.859375 C 5.773438 -10.515625 4.726562 -11.144531 4.03125 -11.75 C 3.332031 -12.351562 2.773438 -13.054688 2.359375 -13.859375 C 1.941406 -14.660156 1.734375 -15.59375 1.734375 -16.65625 C 1.734375 -18.675781 2.414062 -20.265625 3.78125 -21.421875 C 5.15625 -22.578125 7.050781 -23.15625 9.46875 -23.15625 C 10.65625 -23.15625 11.785156 -23.015625 12.859375 -22.734375 C 13.941406 -22.453125 15.066406 -22.054688 16.234375 -21.546875 L 14.6875 -17.78125 C 13.46875 -18.28125 12.457031 -18.628906 11.65625 -18.828125 C 10.863281 -19.023438 10.082031 -19.125 9.3125 -19.125 C 8.394531 -19.125 7.691406 -18.910156 7.203125 -18.484375 C 6.710938 -18.054688 6.46875 -17.5 6.46875 -16.8125 C 6.46875 -16.382812 6.566406 -16.015625 6.765625 -15.703125 C 6.960938 -15.390625 7.273438 -15.082031 7.703125 -14.78125 C 8.140625 -14.488281 9.164062 -13.957031 10.78125 -13.1875 C 12.914062 -12.164062 14.375 -11.140625 15.15625 -10.109375 C 15.945312 -9.085938 16.34375 -7.832031 16.34375 -6.34375 Z M 16.34375 -6.34375 "/></g></g></g><g fill="#ffffff" fill-opacity="1"><g transform="translate(641.121591, 552.021143)"><g><path d="M 2.875 0 L 2.875 -22.828125 L 7.71875 -22.828125 L 7.71875 0 Z M 2.875 0 "/></g></g></g><g fill="#ffffff" fill-opacity="1"><g transform="translate(651.707588, 552.021143)"><g><path d="M 23.59375 -11.453125 C 23.59375 -7.671875 22.65625 -4.765625 20.78125 -2.734375 C 18.90625 -0.703125 16.222656 0.3125 12.734375 0.3125 C 9.234375 0.3125 6.546875 -0.703125 4.671875 -2.734375 C 2.796875 -4.765625 1.859375 -7.679688 1.859375 -11.484375 C 1.859375 -15.273438 2.796875 -18.171875 4.671875 -20.171875 C 6.554688 -22.179688 9.253906 -23.1875 12.765625 -23.1875 C 16.265625 -23.1875 18.941406 -22.175781 20.796875 -20.15625 C 22.660156 -18.132812 23.59375 -15.234375 23.59375 -11.453125 Z M 6.9375 -11.453125 C 6.9375 -8.898438 7.421875 -6.976562 8.390625 -5.6875 C 9.359375 -4.394531 10.804688 -3.75 12.734375 -3.75 C 16.585938 -3.75 18.515625 -6.316406 18.515625 -11.453125 C 18.515625 -16.585938 16.597656 -19.15625 12.765625 -19.15625 C 10.835938 -19.15625 9.382812 -18.507812 8.40625 -17.21875 C 7.425781 -15.925781 6.9375 -14.003906 6.9375 -11.453125 Z M 6.9375 -11.453125 "/></g></g></g><g fill="#ffffff" fill-opacity="1"><g transform="translate(677.157698, 552.021143)"><g><path d="M 23.125 0 L 16.96875 0 L 7.046875 -17.265625 L 6.90625 -17.265625 C 7.101562 -14.222656 7.203125 -12.050781 7.203125 -10.75 L 7.203125 0 L 2.875 0 L 2.875 -22.828125 L 8.984375 -22.828125 L 18.890625 -5.734375 L 19 -5.734375 C 18.84375 -8.703125 18.765625 -10.800781 18.765625 -12.03125 L 18.765625 -22.828125 L 23.125 -22.828125 Z M 23.125 0 "/></g></g></g><g fill="#ffffff" fill-opacity="1"><g transform="translate(703.154283, 552.021143)"><g><path d="M 16.015625 0 L 2.875 0 L 2.875 -22.828125 L 16.015625 -22.828125 L 16.015625 -18.859375 L 7.71875 -18.859375 L 7.71875 -13.859375 L 15.453125 -13.859375 L 15.453125 -9.890625 L 7.71875 -9.890625 L 7.71875 -4 L 16.015625 -4 Z M 16.015625 0 "/></g></g></g></svg>