<svg xmlns="http://www.w3.org/2000/svg" xmlns:xlink="http://www.w3.org/1999/xlink" width="1366" zoomAndPan="magnify" viewBox="0 0 1024.5 576" height="768" preserveAspectRatio="xMidYMid meet" version="1.0"><defs><g/><clipPath id="6f25b725cc"><path d="M 736 198 L 1024 198 L 1024 424.546875 L 736 424.546875 Z M 736 198 " clip-rule="nonzero"/></clipPath><clipPath id="c5e45e2c81"><path d="M 771 151.679688 L 876 151.679688 L 876 256 L 771 256 Z M 771 151.679688 " clip-rule="nonzero"/></clipPath><clipPath id="37173eea07"><path d="M 490 198 L 778 198 L 778 424.546875 L 490 424.546875 Z M 490 198 " clip-rule="nonzero"/></clipPath><clipPath id="40a2168c69"><path d="M 526 151.679688 L 630 151.679688 L 630 256 L 526 256 Z M 526 151.679688 " clip-rule="nonzero"/></clipPath><clipPath id="2b391934bc"><path d="M 245 198 L 533 198 L 533 424.546875 L 245 424.546875 Z M 245 198 " clip-rule="nonzero"/></clipPath><clipPath id="86240bcb11"><path d="M 281 151.679688 L 385 151.679688 L 385 256 L 281 256 Z M 281 151.679688 " clip-rule="nonzero"/></clipPath><clipPath id="0fe6efff49"><path d="M 0 198 L 288 198 L 288 424.546875 L 0 424.546875 Z M 0 198 " clip-rule="nonzero"/></clipPath><clipPath id="49c4d41f65"><path d="M 35 151.679688 L 139 151.679688 L 139 256 L 35 256 Z M 35 151.679688 " clip-rule="nonzero"/></clipPath></defs><g clip-path="url(#6f25b725cc)"><path fill="#188d12" d="M 952.828125 198.164062 L 750.214844 198.960938 C 749.300781 198.964844 748.394531 199.058594 747.5 199.242188 C 746.601562 199.421875 745.734375 199.691406 744.890625 200.042969 C 744.046875 200.398438 743.246094 200.828125 742.488281 201.339844 C 741.730469 201.851562 741.03125 202.429688 740.386719 203.082031 C 739.742188 203.730469 739.167969 204.433594 738.664062 205.195312 C 738.160156 205.957031 737.734375 206.761719 737.386719 207.609375 C 737.039062 208.453125 736.78125 209.324219 736.605469 210.222656 C 736.429688 211.121094 736.34375 212.027344 736.347656 212.941406 L 737.125 410.207031 C 737.128906 411.121094 737.222656 412.027344 737.40625 412.921875 C 737.585938 413.820312 737.855469 414.6875 738.207031 415.53125 C 738.5625 416.375 738.992188 417.175781 739.503906 417.933594 C 740.015625 418.691406 740.59375 419.390625 741.242188 420.035156 C 741.894531 420.679688 742.597656 421.253906 743.359375 421.757812 C 744.125 422.261719 744.925781 422.6875 745.773438 423.035156 C 746.617188 423.382812 747.492188 423.640625 748.386719 423.816406 C 749.285156 423.992188 750.191406 424.078125 751.105469 424.074219 L 953.71875 423.277344 C 954.949219 423.269531 956.15625 423.105469 957.339844 422.78125 C 958.523438 422.457031 959.644531 421.984375 960.703125 421.359375 C 961.765625 420.738281 962.722656 419.992188 963.585938 419.113281 C 964.445312 418.238281 965.179688 417.265625 965.78125 416.195312 L 1021.613281 317.355469 C 1022.207031 316.300781 1022.65625 315.191406 1022.960938 314.019531 C 1023.265625 312.851562 1023.417969 311.660156 1023.410156 310.453125 C 1023.40625 309.242188 1023.246094 308.054688 1022.933594 306.886719 C 1022.617188 305.71875 1022.160156 304.613281 1021.554688 303.566406 L 964.953125 205.144531 C 964.339844 204.078125 963.597656 203.113281 962.730469 202.242188 C 961.863281 201.375 960.894531 200.632812 959.832031 200.019531 C 958.765625 199.40625 957.640625 198.945312 956.453125 198.628906 C 955.265625 198.3125 954.054688 198.160156 952.828125 198.164062 Z M 952.828125 198.164062 " fill-opacity="1" fill-rule="nonzero"/></g><g clip-path="url(#c5e45e2c81)"><path fill="#ffffff" d="M 875.109375 203.476562 C 875.109375 205.167969 875.027344 206.851562 874.863281 208.53125 C 874.695312 210.210938 874.449219 211.882812 874.117188 213.539062 C 873.789062 215.195312 873.378906 216.828125 872.890625 218.445312 C 872.398438 220.0625 871.832031 221.648438 871.183594 223.210938 C 870.539062 224.769531 869.816406 226.296875 869.023438 227.785156 C 868.226562 229.273438 867.359375 230.722656 866.421875 232.125 C 865.480469 233.527344 864.476562 234.882812 863.40625 236.1875 C 862.335938 237.496094 861.203125 238.746094 860.007812 239.9375 C 858.8125 241.132812 857.5625 242.265625 856.257812 243.335938 C 854.953125 244.40625 853.597656 245.414062 852.195312 246.351562 C 850.789062 247.289062 849.34375 248.15625 847.851562 248.953125 C 846.363281 249.75 844.839844 250.46875 843.277344 251.117188 C 841.71875 251.761719 840.128906 252.332031 838.515625 252.820312 C 836.898438 253.3125 835.261719 253.722656 833.605469 254.050781 C 831.949219 254.378906 830.28125 254.628906 828.601562 254.792969 C 826.921875 254.957031 825.234375 255.042969 823.546875 255.042969 C 821.859375 255.042969 820.171875 254.957031 818.492188 254.792969 C 816.8125 254.628906 815.144531 254.378906 813.488281 254.050781 C 811.832031 253.722656 810.195312 253.3125 808.578125 252.820312 C 806.960938 252.332031 805.375 251.761719 803.8125 251.117188 C 802.253906 250.46875 800.730469 249.75 799.238281 248.953125 C 797.75 248.15625 796.304688 247.289062 794.898438 246.351562 C 793.496094 245.414062 792.140625 244.40625 790.835938 243.335938 C 789.53125 242.265625 788.28125 241.132812 787.085938 239.9375 C 785.890625 238.746094 784.757812 237.496094 783.6875 236.1875 C 782.617188 234.882812 781.613281 233.527344 780.671875 232.125 C 779.734375 230.722656 778.867188 229.273438 778.070312 227.785156 C 777.277344 226.296875 776.554688 224.769531 775.910156 223.210938 C 775.261719 221.648438 774.695312 220.0625 774.203125 218.445312 C 773.714844 216.828125 773.304688 215.195312 772.972656 213.539062 C 772.644531 211.882812 772.398438 210.210938 772.230469 208.53125 C 772.066406 206.851562 771.984375 205.167969 771.984375 203.476562 C 771.984375 201.789062 772.066406 200.105469 772.230469 198.421875 C 772.398438 196.742188 772.644531 195.074219 772.972656 193.417969 C 773.304688 191.761719 773.714844 190.125 774.203125 188.507812 C 774.695312 186.894531 775.261719 185.304688 775.910156 183.746094 C 776.554688 182.183594 777.277344 180.660156 778.070312 179.171875 C 778.867188 177.679688 779.734375 176.234375 780.671875 174.832031 C 781.613281 173.425781 782.617188 172.070312 783.6875 170.765625 C 784.757812 169.460938 785.890625 168.210938 787.085938 167.015625 C 788.28125 165.824219 789.53125 164.691406 790.835938 163.617188 C 792.140625 162.546875 793.496094 161.542969 794.898438 160.605469 C 796.304688 159.667969 797.75 158.800781 799.238281 158.003906 C 800.730469 157.207031 802.253906 156.484375 803.8125 155.839844 C 805.375 155.191406 806.960938 154.625 808.578125 154.132812 C 810.195312 153.644531 811.832031 153.234375 813.488281 152.90625 C 815.144531 152.574219 816.8125 152.328125 818.492188 152.164062 C 820.171875 151.996094 821.859375 151.914062 823.546875 151.914062 C 825.234375 151.914062 826.921875 151.996094 828.601562 152.164062 C 830.28125 152.328125 831.949219 152.574219 833.605469 152.90625 C 835.261719 153.234375 836.898438 153.644531 838.515625 154.132812 C 840.128906 154.625 841.71875 155.191406 843.277344 155.839844 C 844.839844 156.484375 846.363281 157.207031 847.851562 158.003906 C 849.34375 158.800781 850.789062 159.667969 852.195312 160.605469 C 853.597656 161.542969 854.953125 162.546875 856.257812 163.617188 C 857.5625 164.691406 858.8125 165.824219 860.007812 167.015625 C 861.203125 168.210938 862.335938 169.460938 863.40625 170.765625 C 864.476562 172.070312 865.480469 173.425781 866.421875 174.832031 C 867.359375 176.234375 868.226562 177.679688 869.023438 179.171875 C 869.816406 180.660156 870.539062 182.183594 871.183594 183.746094 C 871.832031 185.304688 872.398438 186.894531 872.890625 188.507812 C 873.378906 190.125 873.789062 191.761719 874.121094 193.417969 C 874.449219 195.074219 874.695312 196.742188 874.863281 198.421875 C 875.027344 200.105469 875.109375 201.789062 875.109375 203.476562 Z M 875.109375 203.476562 " fill-opacity="1" fill-rule="nonzero"/></g><path fill="#188d12" d="M 868.550781 203.476562 C 868.550781 204.953125 868.476562 206.421875 868.332031 207.890625 C 868.1875 209.355469 867.972656 210.8125 867.683594 212.257812 C 867.398438 213.703125 867.039062 215.132812 866.613281 216.542969 C 866.183594 217.953125 865.6875 219.339844 865.125 220.699219 C 864.558594 222.0625 863.929688 223.390625 863.234375 224.691406 C 862.542969 225.992188 861.785156 227.253906 860.964844 228.480469 C 860.148438 229.707031 859.269531 230.886719 858.335938 232.027344 C 857.398438 233.167969 856.410156 234.257812 855.367188 235.300781 C 854.328125 236.34375 853.234375 237.332031 852.097656 238.265625 C 850.957031 239.199219 849.773438 240.078125 848.550781 240.898438 C 847.324219 241.714844 846.0625 242.472656 844.761719 243.167969 C 843.460938 243.863281 842.128906 244.492188 840.769531 245.054688 C 839.40625 245.621094 838.019531 246.117188 836.609375 246.542969 C 835.199219 246.972656 833.773438 247.328125 832.328125 247.617188 C 830.882812 247.902344 829.425781 248.121094 827.957031 248.265625 C 826.492188 248.410156 825.019531 248.480469 823.546875 248.480469 C 822.074219 248.480469 820.601562 248.410156 819.136719 248.265625 C 817.667969 248.121094 816.210938 247.902344 814.765625 247.617188 C 813.320312 247.328125 811.894531 246.972656 810.484375 246.542969 C 809.074219 246.117188 807.6875 245.621094 806.324219 245.054688 C 804.960938 244.492188 803.632812 243.863281 802.332031 243.167969 C 801.03125 242.472656 799.769531 241.714844 798.542969 240.898438 C 797.320312 240.078125 796.136719 239.199219 794.996094 238.265625 C 793.859375 237.332031 792.765625 236.34375 791.722656 235.300781 C 790.683594 234.257812 789.695312 233.167969 788.757812 232.027344 C 787.824219 230.886719 786.945312 229.707031 786.128906 228.480469 C 785.308594 227.253906 784.550781 225.992188 783.855469 224.691406 C 783.164062 223.390625 782.53125 222.0625 781.96875 220.699219 C 781.40625 219.339844 780.910156 217.953125 780.480469 216.542969 C 780.054688 215.132812 779.695312 213.703125 779.40625 212.257812 C 779.121094 210.8125 778.90625 209.355469 778.761719 207.890625 C 778.617188 206.421875 778.542969 204.953125 778.542969 203.476562 C 778.542969 202.003906 778.617188 200.535156 778.761719 199.066406 C 778.90625 197.601562 779.121094 196.144531 779.40625 194.699219 C 779.695312 193.253906 780.054688 191.824219 780.480469 190.414062 C 780.910156 189.003906 781.40625 187.617188 781.96875 186.253906 C 782.53125 184.894531 783.164062 183.5625 783.855469 182.261719 C 784.550781 180.964844 785.308594 179.699219 786.128906 178.476562 C 786.945312 177.25 787.824219 176.066406 788.757812 174.929688 C 789.695312 173.789062 790.683594 172.699219 791.722656 171.65625 C 792.765625 170.613281 793.855469 169.625 794.996094 168.691406 C 796.136719 167.753906 797.320312 166.878906 798.542969 166.058594 C 799.769531 165.238281 801.03125 164.484375 802.332031 163.789062 C 803.632812 163.09375 804.960938 162.464844 806.324219 161.898438 C 807.6875 161.335938 809.074219 160.839844 810.484375 160.410156 C 811.894531 159.984375 813.320312 159.625 814.765625 159.339844 C 816.210938 159.050781 817.667969 158.835938 819.136719 158.691406 C 820.601562 158.546875 822.074219 158.472656 823.546875 158.472656 C 825.019531 158.472656 826.492188 158.546875 827.957031 158.691406 C 829.425781 158.835938 830.882812 159.050781 832.328125 159.339844 C 833.773438 159.625 835.199219 159.984375 836.609375 160.410156 C 838.019531 160.839844 839.40625 161.335938 840.769531 161.898438 C 842.128906 162.464844 843.460938 163.09375 844.761719 163.789062 C 846.0625 164.484375 847.324219 165.238281 848.550781 166.058594 C 849.773438 166.878906 850.957031 167.753906 852.097656 168.691406 C 853.234375 169.625 854.328125 170.613281 855.367188 171.65625 C 856.410156 172.699219 857.398438 173.789062 858.335938 174.929688 C 859.269531 176.066406 860.148438 177.25 860.964844 178.476562 C 861.785156 179.699219 862.542969 180.964844 863.234375 182.261719 C 863.929688 183.5625 864.558594 184.894531 865.125 186.253906 C 865.6875 187.617188 866.183594 189.003906 866.613281 190.414062 C 867.039062 191.824219 867.398438 193.253906 867.683594 194.699219 C 867.972656 196.144531 868.1875 197.601562 868.332031 199.066406 C 868.476562 200.535156 868.550781 202.003906 868.550781 203.476562 Z M 868.550781 203.476562 " fill-opacity="1" fill-rule="nonzero"/><g clip-path="url(#37173eea07)"><path fill="#55b20f" d="M 707.394531 198.164062 L 504.78125 198.960938 C 503.867188 198.964844 502.960938 199.058594 502.066406 199.242188 C 501.167969 199.421875 500.300781 199.691406 499.457031 200.042969 C 498.613281 200.398438 497.8125 200.828125 497.054688 201.339844 C 496.296875 201.851562 495.597656 202.429688 494.953125 203.082031 C 494.308594 203.730469 493.734375 204.433594 493.230469 205.195312 C 492.726562 205.957031 492.300781 206.761719 491.953125 207.609375 C 491.605469 208.453125 491.347656 209.324219 491.171875 210.222656 C 490.996094 211.121094 490.910156 212.027344 490.914062 212.941406 L 491.691406 410.207031 C 491.695312 411.121094 491.789062 412.027344 491.972656 412.921875 C 492.152344 413.820312 492.421875 414.6875 492.773438 415.53125 C 493.128906 416.375 493.558594 417.175781 494.070312 417.933594 C 494.582031 418.691406 495.160156 419.390625 495.8125 420.035156 C 496.460938 420.679688 497.164062 421.253906 497.925781 421.757812 C 498.691406 422.261719 499.492188 422.6875 500.339844 423.035156 C 501.183594 423.382812 502.058594 423.640625 502.953125 423.816406 C 503.851562 423.992188 504.757812 424.078125 505.671875 424.074219 L 708.28125 423.277344 C 709.511719 423.269531 710.71875 423.105469 711.902344 422.78125 C 713.085938 422.457031 714.210938 421.984375 715.269531 421.363281 C 716.328125 420.742188 717.289062 419.992188 718.152344 419.117188 C 719.011719 418.238281 719.746094 417.265625 720.347656 416.195312 L 776.179688 317.355469 C 776.773438 316.300781 777.222656 315.191406 777.527344 314.019531 C 777.832031 312.851562 777.984375 311.660156 777.976562 310.453125 C 777.972656 309.242188 777.8125 308.054688 777.5 306.886719 C 777.183594 305.722656 776.726562 304.613281 776.121094 303.566406 L 719.519531 205.144531 C 718.90625 204.078125 718.164062 203.113281 717.296875 202.242188 C 716.429688 201.375 715.460938 200.632812 714.398438 200.019531 C 713.332031 199.40625 712.207031 198.945312 711.019531 198.628906 C 709.832031 198.3125 708.621094 198.160156 707.394531 198.164062 Z M 707.394531 198.164062 " fill-opacity="1" fill-rule="nonzero"/></g><g clip-path="url(#40a2168c69)"><path fill="#ffffff" d="M 629.675781 203.476562 C 629.675781 205.167969 629.59375 206.851562 629.429688 208.53125 C 629.261719 210.210938 629.015625 211.882812 628.6875 213.539062 C 628.355469 215.195312 627.945312 216.828125 627.457031 218.445312 C 626.964844 220.0625 626.398438 221.648438 625.75 223.210938 C 625.105469 224.769531 624.382812 226.296875 623.589844 227.785156 C 622.792969 229.273438 621.925781 230.722656 620.988281 232.125 C 620.046875 233.527344 619.042969 234.882812 617.972656 236.1875 C 616.902344 237.496094 615.769531 238.746094 614.574219 239.9375 C 613.378906 241.132812 612.128906 242.265625 610.824219 243.335938 C 609.519531 244.40625 608.164062 245.414062 606.761719 246.351562 C 605.355469 247.289062 603.910156 248.15625 602.421875 248.953125 C 600.929688 249.75 599.40625 250.46875 597.84375 251.117188 C 596.285156 251.761719 594.699219 252.332031 593.082031 252.820312 C 591.464844 253.3125 589.828125 253.722656 588.171875 254.050781 C 586.515625 254.378906 584.847656 254.628906 583.167969 254.792969 C 581.488281 254.957031 579.800781 255.042969 578.113281 255.042969 C 576.425781 255.042969 574.738281 254.957031 573.058594 254.792969 C 571.378906 254.628906 569.710938 254.378906 568.054688 254.050781 C 566.398438 253.722656 564.761719 253.3125 563.144531 252.820312 C 561.527344 252.332031 559.941406 251.761719 558.378906 251.117188 C 556.820312 250.46875 555.296875 249.75 553.804688 248.953125 C 552.316406 248.15625 550.871094 247.289062 549.464844 246.351562 C 548.0625 245.414062 546.707031 244.40625 545.402344 243.335938 C 544.097656 242.265625 542.847656 241.132812 541.652344 239.9375 C 540.457031 238.746094 539.324219 237.496094 538.253906 236.1875 C 537.183594 234.882812 536.179688 233.527344 535.238281 232.125 C 534.300781 230.722656 533.433594 229.273438 532.636719 227.785156 C 531.84375 226.296875 531.121094 224.769531 530.476562 223.210938 C 529.828125 221.648438 529.261719 220.0625 528.769531 218.445312 C 528.28125 216.828125 527.871094 215.195312 527.539062 213.539062 C 527.210938 211.882812 526.964844 210.210938 526.796875 208.53125 C 526.632812 206.851562 526.550781 205.167969 526.550781 203.476562 C 526.550781 201.789062 526.632812 200.105469 526.796875 198.421875 C 526.964844 196.742188 527.210938 195.074219 527.539062 193.417969 C 527.871094 191.761719 528.28125 190.125 528.769531 188.507812 C 529.261719 186.894531 529.828125 185.304688 530.476562 183.746094 C 531.121094 182.183594 531.84375 180.660156 532.636719 179.171875 C 533.433594 177.679688 534.300781 176.234375 535.238281 174.832031 C 536.179688 173.425781 537.183594 172.070312 538.253906 170.765625 C 539.324219 169.460938 540.457031 168.210938 541.652344 167.015625 C 542.847656 165.824219 544.097656 164.691406 545.402344 163.617188 C 546.707031 162.546875 548.0625 161.542969 549.464844 160.605469 C 550.871094 159.667969 552.316406 158.800781 553.804688 158.003906 C 555.296875 157.207031 556.820312 156.484375 558.378906 155.839844 C 559.941406 155.191406 561.527344 154.625 563.144531 154.132812 C 564.761719 153.644531 566.398438 153.234375 568.054688 152.90625 C 569.710938 152.574219 571.378906 152.328125 573.058594 152.164062 C 574.738281 151.996094 576.425781 151.914062 578.113281 151.914062 C 579.800781 151.914062 581.488281 151.996094 583.167969 152.164062 C 584.847656 152.328125 586.515625 152.574219 588.171875 152.90625 C 589.828125 153.234375 591.464844 153.644531 593.082031 154.132812 C 594.699219 154.625 596.285156 155.191406 597.84375 155.839844 C 599.40625 156.484375 600.929688 157.207031 602.421875 158.003906 C 603.910156 158.800781 605.355469 159.667969 606.761719 160.605469 C 608.164062 161.542969 609.519531 162.546875 610.824219 163.617188 C 612.128906 164.691406 613.378906 165.824219 614.574219 167.015625 C 615.769531 168.210938 616.902344 169.460938 617.972656 170.765625 C 619.042969 172.070312 620.046875 173.425781 620.988281 174.832031 C 621.925781 176.234375 622.792969 177.679688 623.589844 179.171875 C 624.382812 180.660156 625.105469 182.183594 625.75 183.746094 C 626.398438 185.304688 626.964844 186.894531 627.457031 188.507812 C 627.945312 190.125 628.355469 191.761719 628.6875 193.417969 C 629.015625 195.074219 629.261719 196.742188 629.429688 198.421875 C 629.59375 200.105469 629.675781 201.789062 629.675781 203.476562 Z M 629.675781 203.476562 " fill-opacity="1" fill-rule="nonzero"/></g><path fill="#55b20f" d="M 623.117188 203.476562 C 623.117188 204.953125 623.042969 206.421875 622.898438 207.890625 C 622.753906 209.355469 622.539062 210.8125 622.253906 212.257812 C 621.964844 213.703125 621.605469 215.132812 621.179688 216.542969 C 620.75 217.953125 620.253906 219.339844 619.691406 220.699219 C 619.125 222.0625 618.496094 223.390625 617.800781 224.691406 C 617.109375 225.992188 616.351562 227.253906 615.53125 228.480469 C 614.714844 229.707031 613.835938 230.886719 612.902344 232.027344 C 611.964844 233.167969 610.976562 234.257812 609.933594 235.300781 C 608.894531 236.34375 607.800781 237.332031 606.664062 238.265625 C 605.523438 239.199219 604.339844 240.078125 603.117188 240.898438 C 601.890625 241.714844 600.628906 242.472656 599.328125 243.167969 C 598.027344 243.863281 596.695312 244.492188 595.335938 245.054688 C 593.972656 245.621094 592.585938 246.117188 591.175781 246.542969 C 589.765625 246.972656 588.339844 247.328125 586.894531 247.617188 C 585.449219 247.902344 583.992188 248.121094 582.523438 248.265625 C 581.058594 248.410156 579.585938 248.480469 578.113281 248.480469 C 576.640625 248.480469 575.167969 248.410156 573.703125 248.265625 C 572.234375 248.121094 570.777344 247.902344 569.332031 247.617188 C 567.886719 247.328125 566.460938 246.972656 565.050781 246.542969 C 563.640625 246.117188 562.253906 245.621094 560.890625 245.054688 C 559.53125 244.492188 558.199219 243.863281 556.898438 243.167969 C 555.597656 242.472656 554.335938 241.714844 553.109375 240.898438 C 551.886719 240.078125 550.703125 239.199219 549.5625 238.265625 C 548.425781 237.332031 547.332031 236.34375 546.289062 235.300781 C 545.25 234.257812 544.261719 233.167969 543.324219 232.027344 C 542.390625 230.886719 541.511719 229.707031 540.695312 228.480469 C 539.875 227.253906 539.117188 225.992188 538.421875 224.691406 C 537.730469 223.390625 537.097656 222.0625 536.535156 220.699219 C 535.972656 219.339844 535.476562 217.953125 535.046875 216.542969 C 534.621094 215.132812 534.261719 213.703125 533.972656 212.257812 C 533.6875 210.8125 533.472656 209.355469 533.328125 207.890625 C 533.183594 206.421875 533.109375 204.953125 533.109375 203.476562 C 533.109375 202.003906 533.183594 200.535156 533.328125 199.066406 C 533.472656 197.601562 533.6875 196.144531 533.972656 194.699219 C 534.261719 193.253906 534.621094 191.824219 535.046875 190.414062 C 535.476562 189.003906 535.972656 187.617188 536.535156 186.253906 C 537.097656 184.894531 537.730469 183.5625 538.421875 182.261719 C 539.117188 180.964844 539.875 179.699219 540.695312 178.476562 C 541.511719 177.25 542.390625 176.066406 543.324219 174.929688 C 544.261719 173.789062 545.25 172.699219 546.289062 171.65625 C 547.332031 170.613281 548.425781 169.625 549.5625 168.691406 C 550.703125 167.753906 551.886719 166.878906 553.109375 166.058594 C 554.335938 165.238281 555.597656 164.484375 556.898438 163.789062 C 558.199219 163.09375 559.53125 162.464844 560.890625 161.898438 C 562.253906 161.335938 563.640625 160.839844 565.050781 160.410156 C 566.460938 159.984375 567.886719 159.625 569.332031 159.339844 C 570.777344 159.050781 572.234375 158.835938 573.703125 158.691406 C 575.167969 158.546875 576.640625 158.472656 578.113281 158.472656 C 579.585938 158.472656 581.058594 158.546875 582.523438 158.691406 C 583.992188 158.835938 585.449219 159.050781 586.894531 159.339844 C 588.339844 159.625 589.765625 159.984375 591.175781 160.410156 C 592.585938 160.839844 593.972656 161.335938 595.335938 161.898438 C 596.695312 162.464844 598.027344 163.09375 599.328125 163.789062 C 600.628906 164.484375 601.890625 165.238281 603.117188 166.058594 C 604.339844 166.878906 605.523438 167.753906 606.664062 168.691406 C 607.800781 169.625 608.894531 170.613281 609.933594 171.65625 C 610.976562 172.699219 611.964844 173.789062 612.902344 174.929688 C 613.835938 176.066406 614.714844 177.25 615.53125 178.476562 C 616.351562 179.699219 617.109375 180.964844 617.800781 182.261719 C 618.496094 183.5625 619.125 184.894531 619.691406 186.253906 C 620.253906 187.617188 620.75 189.003906 621.179688 190.414062 C 621.605469 191.824219 621.964844 193.253906 622.253906 194.699219 C 622.539062 196.144531 622.753906 197.601562 622.898438 199.066406 C 623.042969 200.535156 623.117188 202.003906 623.117188 203.476562 Z M 623.117188 203.476562 " fill-opacity="1" fill-rule="nonzero"/><g clip-path="url(#2b391934bc)"><path fill="#87cb28" d="M 461.960938 198.164062 L 259.347656 198.960938 C 258.433594 198.964844 257.527344 199.058594 256.632812 199.242188 C 255.734375 199.421875 254.867188 199.691406 254.023438 200.042969 C 253.179688 200.398438 252.378906 200.828125 251.621094 201.339844 C 250.863281 201.851562 250.164062 202.429688 249.519531 203.082031 C 248.875 203.730469 248.300781 204.433594 247.796875 205.195312 C 247.292969 205.957031 246.867188 206.761719 246.519531 207.609375 C 246.171875 208.453125 245.914062 209.324219 245.738281 210.222656 C 245.5625 211.121094 245.476562 212.027344 245.480469 212.941406 L 246.257812 410.207031 C 246.261719 411.121094 246.355469 412.027344 246.535156 412.921875 C 246.71875 413.820312 246.984375 414.6875 247.339844 415.53125 C 247.691406 416.375 248.125 417.175781 248.632812 417.933594 C 249.144531 418.691406 249.726562 419.390625 250.375 420.035156 C 251.023438 420.679688 251.726562 421.253906 252.488281 421.757812 C 253.253906 422.261719 254.054688 422.6875 254.902344 423.035156 C 255.746094 423.382812 256.621094 423.640625 257.515625 423.816406 C 258.414062 423.992188 259.320312 424.078125 260.234375 424.074219 L 462.847656 423.277344 C 464.078125 423.269531 465.285156 423.105469 466.46875 422.78125 C 467.652344 422.457031 468.777344 421.984375 469.835938 421.363281 C 470.894531 420.742188 471.855469 419.992188 472.71875 419.117188 C 473.578125 418.238281 474.3125 417.265625 474.914062 416.195312 L 530.746094 317.355469 C 531.339844 316.300781 531.789062 315.191406 532.09375 314.019531 C 532.398438 312.851562 532.546875 311.660156 532.542969 310.453125 C 532.539062 309.242188 532.378906 308.054688 532.066406 306.886719 C 531.75 305.722656 531.292969 304.613281 530.6875 303.566406 L 474.085938 205.144531 C 473.472656 204.078125 472.730469 203.113281 471.863281 202.242188 C 470.996094 201.375 470.027344 200.632812 468.964844 200.019531 C 467.898438 199.40625 466.773438 198.945312 465.585938 198.628906 C 464.398438 198.3125 463.191406 198.160156 461.960938 198.164062 Z M 461.960938 198.164062 " fill-opacity="1" fill-rule="nonzero"/></g><g clip-path="url(#86240bcb11)"><path fill="#ffffff" d="M 384.242188 203.476562 C 384.242188 205.167969 384.160156 206.851562 383.996094 208.53125 C 383.828125 210.210938 383.582031 211.882812 383.253906 213.539062 C 382.921875 215.195312 382.511719 216.828125 382.023438 218.445312 C 381.53125 220.0625 380.964844 221.648438 380.316406 223.210938 C 379.671875 224.769531 378.949219 226.296875 378.15625 227.785156 C 377.359375 229.273438 376.492188 230.722656 375.554688 232.125 C 374.613281 233.527344 373.609375 234.882812 372.539062 236.1875 C 371.46875 237.496094 370.335938 238.746094 369.140625 239.9375 C 367.945312 241.132812 366.695312 242.265625 365.390625 243.335938 C 364.085938 244.40625 362.730469 245.414062 361.328125 246.351562 C 359.921875 247.289062 358.476562 248.15625 356.988281 248.953125 C 355.496094 249.75 353.972656 250.46875 352.414062 251.117188 C 350.851562 251.761719 349.265625 252.332031 347.648438 252.820312 C 346.03125 253.3125 344.394531 253.722656 342.738281 254.050781 C 341.082031 254.378906 339.414062 254.628906 337.734375 254.792969 C 336.054688 254.957031 334.367188 255.042969 332.679688 255.042969 C 330.992188 255.042969 329.304688 254.957031 327.625 254.792969 C 325.945312 254.628906 324.277344 254.378906 322.621094 254.050781 C 320.964844 253.722656 319.328125 253.3125 317.710938 252.820312 C 316.09375 252.332031 314.507812 251.761719 312.949219 251.117188 C 311.386719 250.46875 309.863281 249.75 308.371094 248.953125 C 306.882812 248.15625 305.4375 247.289062 304.03125 246.351562 C 302.628906 245.414062 301.273438 244.40625 299.96875 243.335938 C 298.664062 242.265625 297.414062 241.132812 296.21875 239.9375 C 295.023438 238.746094 293.890625 237.496094 292.820312 236.1875 C 291.75 234.882812 290.746094 233.527344 289.804688 232.125 C 288.867188 230.722656 288 229.273438 287.203125 227.785156 C 286.410156 226.296875 285.6875 224.769531 285.042969 223.210938 C 284.394531 221.648438 283.828125 220.0625 283.335938 218.445312 C 282.847656 216.828125 282.4375 215.195312 282.105469 213.539062 C 281.777344 211.882812 281.53125 210.210938 281.363281 208.53125 C 281.199219 206.851562 281.117188 205.167969 281.117188 203.476562 C 281.117188 201.789062 281.199219 200.105469 281.363281 198.421875 C 281.53125 196.742188 281.777344 195.074219 282.105469 193.417969 C 282.4375 191.761719 282.847656 190.125 283.335938 188.507812 C 283.828125 186.894531 284.394531 185.304688 285.042969 183.746094 C 285.6875 182.183594 286.410156 180.660156 287.203125 179.171875 C 288 177.679688 288.867188 176.234375 289.804688 174.832031 C 290.746094 173.425781 291.75 172.070312 292.820312 170.765625 C 293.890625 169.460938 295.023438 168.210938 296.21875 167.015625 C 297.414062 165.824219 298.664062 164.691406 299.96875 163.617188 C 301.273438 162.546875 302.628906 161.542969 304.03125 160.605469 C 305.4375 159.667969 306.882812 158.800781 308.371094 158.003906 C 309.863281 157.207031 311.386719 156.484375 312.949219 155.839844 C 314.507812 155.191406 316.09375 154.625 317.710938 154.132812 C 319.328125 153.644531 320.964844 153.234375 322.621094 152.90625 C 324.277344 152.574219 325.945312 152.328125 327.625 152.164062 C 329.304688 151.996094 330.992188 151.914062 332.679688 151.914062 C 334.367188 151.914062 336.054688 151.996094 337.734375 152.164062 C 339.414062 152.328125 341.082031 152.574219 342.738281 152.90625 C 344.394531 153.234375 346.03125 153.644531 347.648438 154.132812 C 349.265625 154.625 350.851562 155.191406 352.414062 155.839844 C 353.972656 156.484375 355.496094 157.207031 356.988281 158.003906 C 358.476562 158.800781 359.921875 159.667969 361.328125 160.605469 C 362.730469 161.542969 364.085938 162.546875 365.390625 163.617188 C 366.695312 164.691406 367.945312 165.824219 369.140625 167.015625 C 370.335938 168.210938 371.46875 169.460938 372.539062 170.765625 C 373.609375 172.070312 374.613281 173.425781 375.554688 174.832031 C 376.492188 176.234375 377.359375 177.679688 378.15625 179.171875 C 378.949219 180.660156 379.671875 182.183594 380.316406 183.746094 C 380.964844 185.304688 381.53125 186.894531 382.023438 188.507812 C 382.511719 190.125 382.921875 191.761719 383.253906 193.417969 C 383.582031 195.074219 383.828125 196.742188 383.996094 198.421875 C 384.160156 200.105469 384.242188 201.789062 384.242188 203.476562 Z M 384.242188 203.476562 " fill-opacity="1" fill-rule="nonzero"/></g><path fill="#87cb28" d="M 377.683594 203.476562 C 377.683594 204.953125 377.609375 206.421875 377.464844 207.890625 C 377.320312 209.355469 377.105469 210.8125 376.820312 212.257812 C 376.53125 213.703125 376.171875 215.132812 375.746094 216.542969 C 375.316406 217.953125 374.820312 219.339844 374.257812 220.699219 C 373.695312 222.0625 373.0625 223.390625 372.371094 224.691406 C 371.675781 225.992188 370.917969 227.253906 370.097656 228.480469 C 369.28125 229.707031 368.402344 230.886719 367.46875 232.027344 C 366.53125 233.167969 365.542969 234.257812 364.503906 235.300781 C 363.460938 236.34375 362.367188 237.332031 361.230469 238.265625 C 360.089844 239.199219 358.90625 240.078125 357.683594 240.898438 C 356.457031 241.714844 355.195312 242.472656 353.894531 243.167969 C 352.59375 243.863281 351.261719 244.492188 349.902344 245.054688 C 348.539062 245.621094 347.152344 246.117188 345.742188 246.542969 C 344.332031 246.972656 342.90625 247.328125 341.460938 247.617188 C 340.015625 247.902344 338.558594 248.121094 337.089844 248.265625 C 335.625 248.410156 334.152344 248.480469 332.679688 248.480469 C 331.207031 248.480469 329.734375 248.410156 328.269531 248.265625 C 326.800781 248.121094 325.34375 247.902344 323.898438 247.617188 C 322.453125 247.328125 321.027344 246.972656 319.617188 246.542969 C 318.207031 246.117188 316.820312 245.621094 315.457031 245.054688 C 314.097656 244.492188 312.765625 243.863281 311.464844 243.167969 C 310.164062 242.472656 308.902344 241.714844 307.675781 240.898438 C 306.453125 240.078125 305.269531 239.199219 304.128906 238.265625 C 302.992188 237.332031 301.898438 236.34375 300.859375 235.300781 C 299.816406 234.257812 298.828125 233.167969 297.890625 232.027344 C 296.957031 230.886719 296.078125 229.707031 295.261719 228.480469 C 294.441406 227.253906 293.683594 225.992188 292.988281 224.691406 C 292.296875 223.390625 291.664062 222.0625 291.101562 220.699219 C 290.539062 219.339844 290.042969 217.953125 289.613281 216.542969 C 289.1875 215.132812 288.828125 213.703125 288.539062 212.257812 C 288.253906 210.8125 288.039062 209.355469 287.894531 207.890625 C 287.75 206.421875 287.675781 204.953125 287.675781 203.476562 C 287.675781 202.003906 287.75 200.535156 287.894531 199.066406 C 288.039062 197.601562 288.253906 196.144531 288.539062 194.699219 C 288.828125 193.253906 289.1875 191.824219 289.613281 190.414062 C 290.042969 189.003906 290.539062 187.617188 291.101562 186.253906 C 291.664062 184.894531 292.296875 183.5625 292.988281 182.261719 C 293.683594 180.964844 294.441406 179.699219 295.261719 178.476562 C 296.078125 177.25 296.957031 176.066406 297.890625 174.929688 C 298.828125 173.789062 299.816406 172.699219 300.859375 171.65625 C 301.898438 170.613281 302.992188 169.625 304.128906 168.691406 C 305.269531 167.753906 306.453125 166.878906 307.675781 166.058594 C 308.902344 165.238281 310.164062 164.484375 311.464844 163.789062 C 312.765625 163.09375 314.097656 162.464844 315.457031 161.898438 C 316.820312 161.335938 318.207031 160.839844 319.617188 160.410156 C 321.027344 159.984375 322.453125 159.625 323.898438 159.339844 C 325.34375 159.050781 326.800781 158.835938 328.269531 158.691406 C 329.734375 158.546875 331.207031 158.472656 332.679688 158.472656 C 334.152344 158.472656 335.625 158.546875 337.089844 158.691406 C 338.558594 158.835938 340.015625 159.050781 341.460938 159.339844 C 342.90625 159.625 344.332031 159.984375 345.742188 160.410156 C 347.152344 160.839844 348.539062 161.335938 349.902344 161.898438 C 351.261719 162.464844 352.59375 163.09375 353.894531 163.789062 C 355.195312 164.484375 356.457031 165.238281 357.683594 166.058594 C 358.90625 166.878906 360.089844 167.753906 361.230469 168.691406 C 362.367188 169.625 363.460938 170.613281 364.503906 171.65625 C 365.542969 172.699219 366.53125 173.789062 367.46875 174.929688 C 368.402344 176.066406 369.28125 177.25 370.097656 178.476562 C 370.917969 179.699219 371.675781 180.964844 372.371094 182.261719 C 373.0625 183.5625 373.695312 184.894531 374.257812 186.253906 C 374.820312 187.617188 375.316406 189.003906 375.746094 190.414062 C 376.171875 191.824219 376.53125 193.253906 376.820312 194.699219 C 377.105469 196.144531 377.320312 197.601562 377.464844 199.066406 C 377.609375 200.535156 377.683594 202.003906 377.683594 203.476562 Z M 377.683594 203.476562 " fill-opacity="1" fill-rule="nonzero"/><g clip-path="url(#0fe6efff49)"><path fill="#9dcd5a" d="M 216.527344 198.164062 L 13.914062 198.960938 C 13 198.964844 12.09375 199.058594 11.199219 199.242188 C 10.300781 199.421875 9.433594 199.691406 8.589844 200.042969 C 7.746094 200.398438 6.945312 200.828125 6.1875 201.339844 C 5.429688 201.851562 4.730469 202.429688 4.085938 203.082031 C 3.441406 203.730469 2.867188 204.433594 2.363281 205.195312 C 1.859375 205.957031 1.433594 206.761719 1.085938 207.609375 C 0.738281 208.453125 0.480469 209.324219 0.304688 210.222656 C 0.128906 211.121094 0.0429688 212.027344 0.046875 212.941406 L 0.824219 410.207031 C 0.828125 411.121094 0.921875 412.027344 1.105469 412.921875 C 1.285156 413.820312 1.550781 414.6875 1.90625 415.53125 C 2.257812 416.375 2.691406 417.175781 3.199219 417.933594 C 3.710938 418.691406 4.292969 419.390625 4.941406 420.035156 C 5.589844 420.679688 6.292969 421.253906 7.058594 421.757812 C 7.820312 422.261719 8.621094 422.6875 9.46875 423.035156 C 10.3125 423.382812 11.1875 423.640625 12.082031 423.816406 C 12.980469 423.992188 13.886719 424.078125 14.800781 424.074219 L 217.414062 423.277344 C 218.644531 423.269531 219.851562 423.105469 221.035156 422.78125 C 222.21875 422.457031 223.34375 421.984375 224.402344 421.363281 C 225.460938 420.742188 226.421875 419.992188 227.285156 419.117188 C 228.144531 418.238281 228.878906 417.265625 229.480469 416.195312 L 285.3125 317.355469 C 285.90625 316.300781 286.355469 315.191406 286.660156 314.019531 C 286.964844 312.851562 287.113281 311.660156 287.109375 310.453125 C 287.105469 309.242188 286.945312 308.054688 286.632812 306.886719 C 286.316406 305.722656 285.859375 304.613281 285.253906 303.566406 L 228.652344 205.144531 C 228.039062 204.078125 227.296875 203.113281 226.429688 202.242188 C 225.5625 201.375 224.59375 200.632812 223.53125 200.019531 C 222.464844 199.40625 221.339844 198.945312 220.152344 198.628906 C 218.964844 198.3125 217.757812 198.160156 216.527344 198.164062 Z M 216.527344 198.164062 " fill-opacity="1" fill-rule="nonzero"/></g><g clip-path="url(#49c4d41f65)"><path fill="#ffffff" d="M 138.808594 203.476562 C 138.808594 205.167969 138.726562 206.851562 138.5625 208.53125 C 138.394531 210.210938 138.148438 211.882812 137.820312 213.539062 C 137.488281 215.195312 137.078125 216.828125 136.589844 218.445312 C 136.097656 220.0625 135.53125 221.648438 134.882812 223.210938 C 134.238281 224.769531 133.515625 226.296875 132.722656 227.785156 C 131.925781 229.273438 131.058594 230.722656 130.121094 232.125 C 129.179688 233.527344 128.175781 234.882812 127.105469 236.1875 C 126.035156 237.496094 124.902344 238.746094 123.707031 239.9375 C 122.511719 241.132812 121.261719 242.265625 119.957031 243.335938 C 118.652344 244.40625 117.296875 245.414062 115.894531 246.351562 C 114.488281 247.289062 113.042969 248.15625 111.554688 248.953125 C 110.0625 249.75 108.539062 250.46875 106.980469 251.117188 C 105.417969 251.761719 103.832031 252.332031 102.214844 252.820312 C 100.597656 253.3125 98.960938 253.722656 97.304688 254.050781 C 95.648438 254.378906 93.980469 254.628906 92.300781 254.792969 C 90.621094 254.957031 88.933594 255.042969 87.246094 255.042969 C 85.558594 255.042969 83.871094 254.957031 82.191406 254.792969 C 80.511719 254.628906 78.84375 254.378906 77.1875 254.050781 C 75.53125 253.722656 73.894531 253.3125 72.277344 252.820312 C 70.664062 252.332031 69.074219 251.761719 67.515625 251.117188 C 65.953125 250.46875 64.429688 249.75 62.9375 248.953125 C 61.449219 248.15625 60.003906 247.289062 58.597656 246.351562 C 57.195312 245.414062 55.839844 244.40625 54.535156 243.335938 C 53.230469 242.265625 51.980469 241.132812 50.785156 239.9375 C 49.589844 238.746094 48.457031 237.496094 47.386719 236.1875 C 46.316406 234.882812 45.3125 233.527344 44.371094 232.125 C 43.433594 230.722656 42.566406 229.273438 41.769531 227.785156 C 40.976562 226.296875 40.253906 224.769531 39.609375 223.210938 C 38.960938 221.648438 38.394531 220.0625 37.902344 218.445312 C 37.414062 216.828125 37.003906 215.195312 36.671875 213.539062 C 36.34375 211.882812 36.097656 210.210938 35.929688 208.53125 C 35.765625 206.851562 35.683594 205.167969 35.683594 203.476562 C 35.683594 201.789062 35.765625 200.105469 35.929688 198.421875 C 36.097656 196.742188 36.34375 195.074219 36.671875 193.417969 C 37.003906 191.761719 37.414062 190.125 37.902344 188.507812 C 38.394531 186.894531 38.960938 185.304688 39.609375 183.746094 C 40.253906 182.183594 40.976562 180.660156 41.769531 179.171875 C 42.566406 177.679688 43.433594 176.234375 44.371094 174.832031 C 45.3125 173.425781 46.316406 172.070312 47.386719 170.765625 C 48.457031 169.460938 49.589844 168.210938 50.785156 167.015625 C 51.980469 165.824219 53.230469 164.691406 54.535156 163.617188 C 55.839844 162.546875 57.195312 161.542969 58.597656 160.605469 C 60.003906 159.667969 61.449219 158.800781 62.9375 158.003906 C 64.429688 157.207031 65.953125 156.484375 67.515625 155.839844 C 69.074219 155.191406 70.664062 154.625 72.277344 154.132812 C 73.894531 153.644531 75.53125 153.234375 77.1875 152.90625 C 78.84375 152.574219 80.511719 152.328125 82.191406 152.164062 C 83.871094 151.996094 85.558594 151.914062 87.246094 151.914062 C 88.933594 151.914062 90.621094 151.996094 92.300781 152.164062 C 93.980469 152.328125 95.648438 152.574219 97.304688 152.90625 C 98.960938 153.234375 100.597656 153.644531 102.214844 154.132812 C 103.832031 154.625 105.417969 155.191406 106.980469 155.839844 C 108.539062 156.484375 110.0625 157.207031 111.554688 158.003906 C 113.042969 158.800781 114.488281 159.667969 115.894531 160.605469 C 117.296875 161.542969 118.652344 162.546875 119.957031 163.617188 C 121.261719 164.691406 122.511719 165.824219 123.707031 167.015625 C 124.902344 168.210938 126.035156 169.460938 127.105469 170.765625 C 128.175781 172.070312 129.179688 173.425781 130.121094 174.832031 C 131.058594 176.234375 131.925781 177.679688 132.722656 179.171875 C 133.515625 180.660156 134.238281 182.183594 134.882812 183.746094 C 135.53125 185.304688 136.097656 186.894531 136.589844 188.507812 C 137.078125 190.125 137.488281 191.761719 137.820312 193.417969 C 138.148438 195.074219 138.394531 196.742188 138.5625 198.421875 C 138.726562 200.105469 138.808594 201.789062 138.808594 203.476562 Z M 138.808594 203.476562 " fill-opacity="1" fill-rule="nonzero"/></g><path fill="#9dcd5a" d="M 132.25 203.476562 C 132.25 204.953125 132.175781 206.421875 132.03125 207.890625 C 131.886719 209.355469 131.671875 210.8125 131.386719 212.257812 C 131.097656 213.703125 130.738281 215.132812 130.3125 216.542969 C 129.882812 217.953125 129.386719 219.339844 128.824219 220.699219 C 128.261719 222.0625 127.628906 223.390625 126.9375 224.691406 C 126.242188 225.992188 125.484375 227.253906 124.664062 228.480469 C 123.847656 229.707031 122.96875 230.886719 122.035156 232.027344 C 121.097656 233.167969 120.109375 234.257812 119.070312 235.300781 C 118.027344 236.34375 116.933594 237.332031 115.796875 238.265625 C 114.65625 239.199219 113.472656 240.078125 112.25 240.898438 C 111.023438 241.714844 109.761719 242.472656 108.460938 243.167969 C 107.160156 243.863281 105.828125 244.492188 104.46875 245.054688 C 103.105469 245.621094 101.71875 246.117188 100.308594 246.542969 C 98.898438 246.972656 97.472656 247.328125 96.027344 247.617188 C 94.582031 247.902344 93.125 248.121094 91.65625 248.265625 C 90.191406 248.410156 88.71875 248.480469 87.246094 248.480469 C 85.773438 248.480469 84.300781 248.410156 82.835938 248.265625 C 81.367188 248.121094 79.910156 247.902344 78.464844 247.617188 C 77.019531 247.328125 75.59375 246.972656 74.183594 246.542969 C 72.773438 246.117188 71.386719 245.621094 70.023438 245.054688 C 68.664062 244.492188 67.332031 243.863281 66.03125 243.167969 C 64.730469 242.472656 63.46875 241.714844 62.242188 240.898438 C 61.019531 240.078125 59.835938 239.199219 58.695312 238.265625 C 57.558594 237.332031 56.464844 236.34375 55.425781 235.300781 C 54.382812 234.257812 53.394531 233.167969 52.457031 232.027344 C 51.523438 230.886719 50.644531 229.707031 49.828125 228.480469 C 49.007812 227.253906 48.25 225.992188 47.558594 224.691406 C 46.863281 223.390625 46.234375 222.0625 45.667969 220.699219 C 45.105469 219.339844 44.609375 217.953125 44.179688 216.542969 C 43.753906 215.132812 43.394531 213.703125 43.109375 212.257812 C 42.820312 210.8125 42.605469 209.355469 42.460938 207.890625 C 42.316406 206.421875 42.242188 204.953125 42.242188 203.476562 C 42.242188 202.003906 42.316406 200.535156 42.460938 199.066406 C 42.605469 197.601562 42.820312 196.144531 43.109375 194.699219 C 43.394531 193.253906 43.753906 191.824219 44.179688 190.414062 C 44.609375 189.003906 45.105469 187.617188 45.667969 186.253906 C 46.234375 184.894531 46.863281 183.5625 47.558594 182.261719 C 48.25 180.964844 49.007812 179.699219 49.828125 178.476562 C 50.644531 177.25 51.523438 176.066406 52.457031 174.929688 C 53.394531 173.789062 54.382812 172.699219 55.425781 171.65625 C 56.464844 170.613281 57.558594 169.625 58.695312 168.691406 C 59.835938 167.753906 61.019531 166.878906 62.242188 166.058594 C 63.46875 165.238281 64.730469 164.484375 66.03125 163.789062 C 67.332031 163.09375 68.664062 162.464844 70.023438 161.898438 C 71.386719 161.335938 72.773438 160.839844 74.183594 160.410156 C 75.59375 159.984375 77.019531 159.625 78.464844 159.339844 C 79.914062 159.050781 81.367188 158.835938 82.835938 158.691406 C 84.300781 158.546875 85.773438 158.472656 87.246094 158.472656 C 88.71875 158.472656 90.191406 158.546875 91.65625 158.691406 C 93.125 158.835938 94.582031 159.050781 96.027344 159.339844 C 97.472656 159.625 98.898438 159.984375 100.308594 160.410156 C 101.71875 160.839844 103.105469 161.335938 104.46875 161.898438 C 105.828125 162.464844 107.160156 163.09375 108.460938 163.789062 C 109.761719 164.484375 111.023438 165.238281 112.25 166.058594 C 113.472656 166.878906 114.65625 167.753906 115.796875 168.691406 C 116.933594 169.625 118.027344 170.613281 119.070312 171.65625 C 120.109375 172.699219 121.097656 173.789062 122.035156 174.929688 C 122.96875 176.066406 123.847656 177.25 124.664062 178.476562 C 125.484375 179.699219 126.242188 180.964844 126.9375 182.261719 C 127.628906 183.5625 128.261719 184.894531 128.824219 186.253906 C 129.386719 187.617188 129.882812 189.003906 130.3125 190.414062 C 130.738281 191.824219 131.097656 193.253906 131.386719 194.699219 C 131.671875 196.144531 131.886719 197.601562 132.03125 199.066406 C 132.175781 200.535156 132.25 202.003906 132.25 203.476562 Z M 132.25 203.476562 " fill-opacity="1" fill-rule="nonzero"/><g fill="#fcffff" fill-opacity="1"><g transform="translate(69.443382, 227.804003)"><g><path d="M 25.328125 0 L 16.078125 0 L 16.078125 -25.328125 L 16.15625 -29.484375 L 16.3125 -34.03125 C 14.769531 -32.488281 13.703125 -31.476562 13.109375 -31 L 8.078125 -26.96875 L 3.625 -32.53125 L 17.71875 -43.765625 L 25.328125 -43.765625 Z M 25.328125 0 "/></g></g></g><g fill="#fcffff" fill-opacity="1"><g transform="translate(317.210106, 227.804003)"><g><path d="M 33.046875 0 L 2.453125 0 L 2.453125 -6.4375 L 13.4375 -17.53125 C 16.6875 -20.863281 18.8125 -23.171875 19.8125 -24.453125 C 20.8125 -25.742188 21.53125 -26.9375 21.96875 -28.03125 C 22.40625 -29.132812 22.625 -30.273438 22.625 -31.453125 C 22.625 -33.210938 22.140625 -34.519531 21.171875 -35.375 C 20.203125 -36.238281 18.910156 -36.671875 17.296875 -36.671875 C 15.597656 -36.671875 13.953125 -36.28125 12.359375 -35.5 C 10.765625 -34.71875 9.097656 -33.609375 7.359375 -32.171875 L 2.328125 -38.125 C 4.484375 -39.96875 6.269531 -41.265625 7.6875 -42.015625 C 9.101562 -42.773438 10.648438 -43.359375 12.328125 -43.765625 C 14.003906 -44.179688 15.878906 -44.390625 17.953125 -44.390625 C 20.691406 -44.390625 23.109375 -43.890625 25.203125 -42.890625 C 27.296875 -41.890625 28.921875 -40.488281 30.078125 -38.6875 C 31.234375 -36.894531 31.8125 -34.84375 31.8125 -32.53125 C 31.8125 -30.519531 31.457031 -28.628906 30.75 -26.859375 C 30.039062 -25.097656 28.941406 -23.285156 27.453125 -21.421875 C 25.972656 -19.566406 23.359375 -16.925781 19.609375 -13.5 L 13.984375 -8.203125 L 13.984375 -7.78125 L 33.046875 -7.78125 Z M 33.046875 0 "/></g></g></g><g fill="#fcffff" fill-opacity="1"><g transform="translate(562.11548, 227.804003)"><g><path d="M 31.34375 -33.96875 C 31.34375 -31.238281 30.515625 -28.914062 28.859375 -27 C 27.203125 -25.082031 24.875 -23.765625 21.875 -23.046875 L 21.875 -22.859375 C 25.40625 -22.421875 28.078125 -21.347656 29.890625 -19.640625 C 31.710938 -17.941406 32.625 -15.644531 32.625 -12.75 C 32.625 -8.539062 31.097656 -5.265625 28.046875 -2.921875 C 24.992188 -0.578125 20.632812 0.59375 14.96875 0.59375 C 10.21875 0.59375 6.003906 -0.191406 2.328125 -1.765625 L 2.328125 -9.640625 C 4.023438 -8.773438 5.890625 -8.070312 7.921875 -7.53125 C 9.960938 -7 11.984375 -6.734375 13.984375 -6.734375 C 17.035156 -6.734375 19.285156 -7.25 20.734375 -8.28125 C 22.191406 -9.320312 22.921875 -10.988281 22.921875 -13.28125 C 22.921875 -15.34375 22.082031 -16.800781 20.40625 -17.65625 C 18.726562 -18.519531 16.054688 -18.953125 12.390625 -18.953125 L 9.0625 -18.953125 L 9.0625 -26.046875 L 12.453125 -26.046875 C 15.835938 -26.046875 18.3125 -26.488281 19.875 -27.375 C 21.445312 -28.257812 22.234375 -29.78125 22.234375 -31.9375 C 22.234375 -35.25 20.160156 -36.90625 16.015625 -36.90625 C 14.578125 -36.90625 13.113281 -36.664062 11.625 -36.1875 C 10.132812 -35.707031 8.484375 -34.878906 6.671875 -33.703125 L 2.390625 -40.078125 C 6.378906 -42.953125 11.140625 -44.390625 16.671875 -44.390625 C 21.203125 -44.390625 24.78125 -43.46875 27.40625 -41.625 C 30.03125 -39.789062 31.34375 -37.238281 31.34375 -33.96875 Z M 31.34375 -33.96875 "/></g></g></g><g fill="#fcffff" fill-opacity="1"><g transform="translate(806.271311, 227.804003)"><g><path d="M 34.03125 -9.0625 L 28.765625 -9.0625 L 28.765625 0 L 19.71875 0 L 19.71875 -9.0625 L 1.046875 -9.0625 L 1.046875 -15.5 L 20.234375 -43.765625 L 28.765625 -43.765625 L 28.765625 -16.25 L 34.03125 -16.25 Z M 19.71875 -16.25 L 19.71875 -23.671875 C 19.71875 -24.910156 19.765625 -26.707031 19.859375 -29.0625 C 19.960938 -31.414062 20.046875 -32.78125 20.109375 -33.15625 L 19.875 -33.15625 C 19.132812 -31.519531 18.242188 -29.925781 17.203125 -28.375 L 9.1875 -16.25 Z M 19.71875 -16.25 "/></g></g></g><g fill="#ffffff" fill-opacity="1"><g transform="translate(8.058567, 311.865722)"><g><path d="M 18.375 0 L 10.765625 0 L 10.765625 -29.578125 L 1 -29.578125 L 1 -35.921875 L 28.125 -35.921875 L 28.125 -29.578125 L 18.375 -29.578125 Z M 18.375 0 "/></g></g></g><g fill="#ffffff" fill-opacity="1"><g transform="translate(37.191705, 311.865722)"><g><path d="M 12.140625 -19.96875 L 14.59375 -19.96875 C 17 -19.96875 18.773438 -20.367188 19.921875 -21.171875 C 21.066406 -21.972656 21.640625 -23.234375 21.640625 -24.953125 C 21.640625 -26.660156 21.050781 -27.875 19.875 -28.59375 C 18.707031 -29.3125 16.894531 -29.671875 14.4375 -29.671875 L 12.140625 -29.671875 Z M 12.140625 -13.78125 L 12.140625 0 L 4.515625 0 L 4.515625 -35.921875 L 14.984375 -35.921875 C 19.867188 -35.921875 23.476562 -35.03125 25.8125 -33.25 C 28.15625 -31.46875 29.328125 -28.769531 29.328125 -25.15625 C 29.328125 -23.039062 28.742188 -21.160156 27.578125 -19.515625 C 26.421875 -17.867188 24.78125 -16.582031 22.65625 -15.65625 C 28.050781 -7.570312 31.570312 -2.351562 33.21875 0 L 24.765625 0 L 16.1875 -13.78125 Z M 12.140625 -13.78125 "/></g></g></g><g fill="#ffffff" fill-opacity="1"><g transform="translate(70.4025, 311.865722)"><g><path d="M 37.125 -18 C 37.125 -12.0625 35.648438 -7.492188 32.703125 -4.296875 C 29.753906 -1.109375 25.523438 0.484375 20.015625 0.484375 C 14.515625 0.484375 10.289062 -1.109375 7.34375 -4.296875 C 4.394531 -7.492188 2.921875 -12.082031 2.921875 -18.0625 C 2.921875 -24.03125 4.398438 -28.59375 7.359375 -31.75 C 10.316406 -34.90625 14.554688 -36.484375 20.078125 -36.484375 C 25.585938 -36.484375 29.804688 -34.894531 32.734375 -31.71875 C 35.660156 -28.539062 37.125 -23.96875 37.125 -18 Z M 10.90625 -18 C 10.90625 -13.988281 11.664062 -10.96875 13.1875 -8.9375 C 14.71875 -6.90625 16.992188 -5.890625 20.015625 -5.890625 C 26.097656 -5.890625 29.140625 -9.925781 29.140625 -18 C 29.140625 -26.09375 26.117188 -30.140625 20.078125 -30.140625 C 17.046875 -30.140625 14.757812 -29.117188 13.21875 -27.078125 C 11.675781 -25.046875 10.90625 -22.019531 10.90625 -18 Z M 10.90625 -18 "/></g></g></g><g fill="#ffffff" fill-opacity="1"><g transform="translate(110.442143, 311.865722)"><g><path d="M 25.015625 -35.921875 L 32.703125 -35.921875 L 20.484375 0 L 12.1875 0 L 0 -35.921875 L 7.6875 -35.921875 L 14.4375 -14.546875 C 14.820312 -13.285156 15.210938 -11.8125 15.609375 -10.125 C 16.015625 -8.445312 16.265625 -7.285156 16.359375 -6.640625 C 16.535156 -8.140625 17.148438 -10.773438 18.203125 -14.546875 Z M 25.015625 -35.921875 "/></g></g></g><g fill="#ffffff" fill-opacity="1"><g transform="translate(143.137096, 311.865722)"><g><path d="M 26.5 0 L 23.90625 -8.546875 L 10.8125 -8.546875 L 8.203125 0 L 0 0 L 12.671875 -36.0625 L 21.984375 -36.0625 L 34.71875 0 Z M 22.078125 -14.9375 C 19.671875 -22.6875 18.316406 -27.066406 18.015625 -28.078125 C 17.710938 -29.097656 17.5 -29.898438 17.375 -30.484375 C 16.832031 -28.390625 15.28125 -23.207031 12.71875 -14.9375 Z M 22.078125 -14.9375 "/></g></g></g><g fill="#ffffff" fill-opacity="1"><g transform="translate(177.846313, 311.865722)"><g/></g></g><g fill="#ffffff" fill-opacity="1"><g transform="translate(190.914466, 311.865722)"><g><path d="M 4.515625 0 L 4.515625 -35.921875 L 12.140625 -35.921875 L 12.140625 0 Z M 4.515625 0 "/></g></g></g><g fill="#ffffff" fill-opacity="1"><g transform="translate(207.568992, 311.865722)"><g><path d="M 4.515625 0 L 4.515625 -35.921875 L 12.140625 -35.921875 L 12.140625 -6.296875 L 26.703125 -6.296875 L 26.703125 0 Z M 4.515625 0 "/></g></g></g><g fill="#ffffff" fill-opacity="1"><g transform="translate(9.475844, 381.581695)"><g><path d="M 18.375 0 L 10.765625 0 L 10.765625 -29.578125 L 1 -29.578125 L 1 -35.921875 L 28.125 -35.921875 L 28.125 -29.578125 L 18.375 -29.578125 Z M 18.375 0 "/></g></g></g><g fill="#ffffff" fill-opacity="1"><g transform="translate(38.608982, 381.581695)"><g><path d="M 33.75 -35.921875 L 33.75 -12.671875 C 33.75 -10.023438 33.15625 -7.703125 31.96875 -5.703125 C 30.78125 -3.703125 29.066406 -2.171875 26.828125 -1.109375 C 24.585938 -0.046875 21.9375 0.484375 18.875 0.484375 C 14.25 0.484375 10.660156 -0.695312 8.109375 -3.0625 C 5.554688 -5.425781 4.28125 -8.664062 4.28125 -12.78125 L 4.28125 -35.921875 L 11.859375 -35.921875 L 11.859375 -13.921875 C 11.859375 -11.160156 12.414062 -9.128906 13.53125 -7.828125 C 14.644531 -6.535156 16.488281 -5.890625 19.0625 -5.890625 C 21.550781 -5.890625 23.351562 -6.539062 24.46875 -7.84375 C 25.59375 -9.144531 26.15625 -11.191406 26.15625 -13.984375 L 26.15625 -35.921875 Z M 33.75 -35.921875 "/></g></g></g><g fill="#ffffff" fill-opacity="1"><g transform="translate(76.63436, 381.581695)"><g><path d="M 37.125 -18 C 37.125 -12.0625 35.648438 -7.492188 32.703125 -4.296875 C 29.753906 -1.109375 25.523438 0.484375 20.015625 0.484375 C 14.515625 0.484375 10.289062 -1.109375 7.34375 -4.296875 C 4.394531 -7.492188 2.921875 -12.082031 2.921875 -18.0625 C 2.921875 -24.03125 4.398438 -28.59375 7.359375 -31.75 C 10.316406 -34.90625 14.554688 -36.484375 20.078125 -36.484375 C 25.585938 -36.484375 29.804688 -34.894531 32.734375 -31.71875 C 35.660156 -28.539062 37.125 -23.96875 37.125 -18 Z M 10.90625 -18 C 10.90625 -13.988281 11.664062 -10.96875 13.1875 -8.9375 C 14.71875 -6.90625 16.992188 -5.890625 20.015625 -5.890625 C 26.097656 -5.890625 29.140625 -9.925781 29.140625 -18 C 29.140625 -26.09375 26.117188 -30.140625 20.078125 -30.140625 C 17.046875 -30.140625 14.757812 -29.117188 13.21875 -27.078125 C 11.675781 -25.046875 10.90625 -22.019531 10.90625 -18 Z M 10.90625 -18 "/></g></g></g><g fill="#ffffff" fill-opacity="1"><g transform="translate(116.674003, 381.581695)"><g/></g></g><g fill="#ffffff" fill-opacity="1"><g transform="translate(129.742156, 381.581695)"><g><path d="M 12.140625 -19.015625 L 14.640625 -19.015625 C 16.984375 -19.015625 18.734375 -19.476562 19.890625 -20.40625 C 21.054688 -21.332031 21.640625 -22.675781 21.640625 -24.4375 C 21.640625 -26.226562 21.148438 -27.546875 20.171875 -28.390625 C 19.203125 -29.242188 17.675781 -29.671875 15.59375 -29.671875 L 12.140625 -29.671875 Z M 29.328125 -24.71875 C 29.328125 -20.851562 28.117188 -17.894531 25.703125 -15.84375 C 23.285156 -13.800781 19.851562 -12.78125 15.40625 -12.78125 L 12.140625 -12.78125 L 12.140625 0 L 4.515625 0 L 4.515625 -35.921875 L 16 -35.921875 C 20.351562 -35.921875 23.660156 -34.984375 25.921875 -33.109375 C 28.191406 -31.234375 29.328125 -28.4375 29.328125 -24.71875 Z M 29.328125 -24.71875 "/></g></g></g><g fill="#ffffff" fill-opacity="1"><g transform="translate(161.331714, 381.581695)"><g><path d="M 12.140625 -19.96875 L 14.59375 -19.96875 C 17 -19.96875 18.773438 -20.367188 19.921875 -21.171875 C 21.066406 -21.972656 21.640625 -23.234375 21.640625 -24.953125 C 21.640625 -26.660156 21.050781 -27.875 19.875 -28.59375 C 18.707031 -29.3125 16.894531 -29.671875 14.4375 -29.671875 L 12.140625 -29.671875 Z M 12.140625 -13.78125 L 12.140625 0 L 4.515625 0 L 4.515625 -35.921875 L 14.984375 -35.921875 C 19.867188 -35.921875 23.476562 -35.03125 25.8125 -33.25 C 28.15625 -31.46875 29.328125 -28.769531 29.328125 -25.15625 C 29.328125 -23.039062 28.742188 -21.160156 27.578125 -19.515625 C 26.421875 -17.867188 24.78125 -16.582031 22.65625 -15.65625 C 28.050781 -7.570312 31.570312 -2.351562 33.21875 0 L 24.765625 0 L 16.1875 -13.78125 Z M 12.140625 -13.78125 "/></g></g></g><g fill="#ffffff" fill-opacity="1"><g transform="translate(194.54251, 381.581695)"><g><path d="M 37.125 -18 C 37.125 -12.0625 35.648438 -7.492188 32.703125 -4.296875 C 29.753906 -1.109375 25.523438 0.484375 20.015625 0.484375 C 14.515625 0.484375 10.289062 -1.109375 7.34375 -4.296875 C 4.394531 -7.492188 2.921875 -12.082031 2.921875 -18.0625 C 2.921875 -24.03125 4.398438 -28.59375 7.359375 -31.75 C 10.316406 -34.90625 14.554688 -36.484375 20.078125 -36.484375 C 25.585938 -36.484375 29.804688 -34.894531 32.734375 -31.71875 C 35.660156 -28.539062 37.125 -23.96875 37.125 -18 Z M 10.90625 -18 C 10.90625 -13.988281 11.664062 -10.96875 13.1875 -8.9375 C 14.71875 -6.90625 16.992188 -5.890625 20.015625 -5.890625 C 26.097656 -5.890625 29.140625 -9.925781 29.140625 -18 C 29.140625 -26.09375 26.117188 -30.140625 20.078125 -30.140625 C 17.046875 -30.140625 14.757812 -29.117188 13.21875 -27.078125 C 11.675781 -25.046875 10.90625 -22.019531 10.90625 -18 Z M 10.90625 -18 "/></g></g></g><g fill="#ffffff" fill-opacity="1"><g transform="translate(288.423335, 324.843177)"><g><path d="M 23.34375 0 L 21.046875 -7.53125 L 9.515625 -7.53125 L 7.234375 0 L 0 0 L 11.171875 -31.765625 L 19.359375 -31.765625 L 30.578125 0 Z M 19.453125 -13.15625 C 17.328125 -19.976562 16.128906 -23.835938 15.859375 -24.734375 C 15.597656 -25.628906 15.410156 -26.332031 15.296875 -26.84375 C 14.816406 -25 13.453125 -20.4375 11.203125 -13.15625 Z M 19.453125 -13.15625 "/></g></g></g><g fill="#ffffff" fill-opacity="1"><g transform="translate(318.994924, 324.843177)"><g><path d="M 22.65625 -8.78125 C 22.65625 -5.925781 21.625 -3.675781 19.5625 -2.03125 C 17.507812 -0.382812 14.648438 0.4375 10.984375 0.4375 C 7.609375 0.4375 4.625 -0.195312 2.03125 -1.46875 L 2.03125 -7.703125 C 4.164062 -6.753906 5.972656 -6.082031 7.453125 -5.6875 C 8.929688 -5.300781 10.285156 -5.109375 11.515625 -5.109375 C 12.984375 -5.109375 14.109375 -5.390625 14.890625 -5.953125 C 15.679688 -6.515625 16.078125 -7.347656 16.078125 -8.453125 C 16.078125 -9.078125 15.898438 -9.628906 15.546875 -10.109375 C 15.203125 -10.597656 14.695312 -11.066406 14.03125 -11.515625 C 13.363281 -11.960938 12 -12.675781 9.9375 -13.65625 C 8 -14.5625 6.546875 -15.429688 5.578125 -16.265625 C 4.609375 -17.109375 3.835938 -18.082031 3.265625 -19.1875 C 2.691406 -20.300781 2.40625 -21.601562 2.40625 -23.09375 C 2.40625 -25.882812 3.351562 -28.082031 5.25 -29.6875 C 7.144531 -31.289062 9.765625 -32.09375 13.109375 -32.09375 C 14.753906 -32.09375 16.320312 -31.894531 17.8125 -31.5 C 19.3125 -31.113281 20.875 -30.566406 22.5 -29.859375 L 20.34375 -24.640625 C 18.65625 -25.335938 17.257812 -25.820312 16.15625 -26.09375 C 15.050781 -26.363281 13.960938 -26.5 12.890625 -26.5 C 11.617188 -26.5 10.644531 -26.203125 9.96875 -25.609375 C 9.289062 -25.023438 8.953125 -24.253906 8.953125 -23.296875 C 8.953125 -22.710938 9.085938 -22.195312 9.359375 -21.75 C 9.640625 -21.3125 10.078125 -20.882812 10.671875 -20.46875 C 11.273438 -20.0625 12.691406 -19.328125 14.921875 -18.265625 C 17.878906 -16.847656 19.90625 -15.425781 21 -14 C 22.101562 -12.582031 22.65625 -10.84375 22.65625 -8.78125 Z M 22.65625 -8.78125 "/></g></g></g><g fill="#ffffff" fill-opacity="1"><g transform="translate(343.400263, 324.843177)"><g><path d="M 22.65625 -8.78125 C 22.65625 -5.925781 21.625 -3.675781 19.5625 -2.03125 C 17.507812 -0.382812 14.648438 0.4375 10.984375 0.4375 C 7.609375 0.4375 4.625 -0.195312 2.03125 -1.46875 L 2.03125 -7.703125 C 4.164062 -6.753906 5.972656 -6.082031 7.453125 -5.6875 C 8.929688 -5.300781 10.285156 -5.109375 11.515625 -5.109375 C 12.984375 -5.109375 14.109375 -5.390625 14.890625 -5.953125 C 15.679688 -6.515625 16.078125 -7.347656 16.078125 -8.453125 C 16.078125 -9.078125 15.898438 -9.628906 15.546875 -10.109375 C 15.203125 -10.597656 14.695312 -11.066406 14.03125 -11.515625 C 13.363281 -11.960938 12 -12.675781 9.9375 -13.65625 C 8 -14.5625 6.546875 -15.429688 5.578125 -16.265625 C 4.609375 -17.109375 3.835938 -18.082031 3.265625 -19.1875 C 2.691406 -20.300781 2.40625 -21.601562 2.40625 -23.09375 C 2.40625 -25.882812 3.351562 -28.082031 5.25 -29.6875 C 7.144531 -31.289062 9.765625 -32.09375 13.109375 -32.09375 C 14.753906 -32.09375 16.320312 -31.894531 17.8125 -31.5 C 19.3125 -31.113281 20.875 -30.566406 22.5 -29.859375 L 20.34375 -24.640625 C 18.65625 -25.335938 17.257812 -25.820312 16.15625 -26.09375 C 15.050781 -26.363281 13.960938 -26.5 12.890625 -26.5 C 11.617188 -26.5 10.644531 -26.203125 9.96875 -25.609375 C 9.289062 -25.023438 8.953125 -24.253906 8.953125 -23.296875 C 8.953125 -22.710938 9.085938 -22.195312 9.359375 -21.75 C 9.640625 -21.3125 10.078125 -20.882812 10.671875 -20.46875 C 11.273438 -20.0625 12.691406 -19.328125 14.921875 -18.265625 C 17.878906 -16.847656 19.90625 -15.425781 21 -14 C 22.101562 -12.582031 22.65625 -10.84375 22.65625 -8.78125 Z M 22.65625 -8.78125 "/></g></g></g><g fill="#ffffff" fill-opacity="1"><g transform="translate(367.805602, 324.843177)"><g><path d="M 29.734375 -31.640625 L 29.734375 -11.171875 C 29.734375 -8.828125 29.207031 -6.773438 28.15625 -5.015625 C 27.113281 -3.253906 25.601562 -1.90625 23.625 -0.96875 C 21.644531 -0.03125 19.3125 0.4375 16.625 0.4375 C 12.550781 0.4375 9.390625 -0.601562 7.140625 -2.6875 C 4.890625 -4.78125 3.765625 -7.632812 3.765625 -11.25 L 3.765625 -31.640625 L 10.453125 -31.640625 L 10.453125 -12.265625 C 10.453125 -9.828125 10.941406 -8.035156 11.921875 -6.890625 C 12.898438 -5.753906 14.523438 -5.1875 16.796875 -5.1875 C 18.984375 -5.1875 20.570312 -5.757812 21.5625 -6.90625 C 22.550781 -8.0625 23.046875 -9.863281 23.046875 -12.3125 L 23.046875 -31.640625 Z M 29.734375 -31.640625 "/></g></g></g><g fill="#ffffff" fill-opacity="1"><g transform="translate(401.298036, 324.843177)"><g><path d="M 17.375 0 L 9.765625 -24.8125 L 9.5625 -24.8125 C 9.832031 -19.769531 9.96875 -16.40625 9.96875 -14.71875 L 9.96875 0 L 3.984375 0 L 3.984375 -31.640625 L 13.109375 -31.640625 L 20.59375 -7.4375 L 20.734375 -7.4375 L 28.671875 -31.640625 L 37.796875 -31.640625 L 37.796875 0 L 31.546875 0 L 31.546875 -14.96875 C 31.546875 -15.675781 31.554688 -16.488281 31.578125 -17.40625 C 31.597656 -18.332031 31.695312 -20.789062 31.875 -24.78125 L 31.671875 -24.78125 L 23.515625 0 Z M 17.375 0 "/></g></g></g><g fill="#ffffff" fill-opacity="1"><g transform="translate(443.077042, 324.843177)"><g><path d="M 3.984375 0 L 3.984375 -31.640625 L 10.6875 -31.640625 L 10.6875 0 Z M 3.984375 0 "/></g></g></g><g fill="#ffffff" fill-opacity="1"><g transform="translate(457.746209, 324.843177)"><g><path d="M 3.984375 0 L 3.984375 -31.640625 L 10.6875 -31.640625 L 10.6875 -5.546875 L 23.515625 -5.546875 L 23.515625 0 Z M 3.984375 0 "/></g></g></g><g fill="#ffffff" fill-opacity="1"><g transform="translate(482.778996, 324.843177)"><g><path d="M 32.6875 -15.859375 C 32.6875 -10.617188 31.390625 -6.59375 28.796875 -3.78125 C 26.203125 -0.96875 22.484375 0.4375 17.640625 0.4375 C 12.785156 0.4375 9.0625 -0.96875 6.46875 -3.78125 C 3.875 -6.59375 2.578125 -10.632812 2.578125 -15.90625 C 2.578125 -21.164062 3.878906 -25.179688 6.484375 -27.953125 C 9.085938 -30.734375 12.816406 -32.125 17.671875 -32.125 C 22.535156 -32.125 26.253906 -30.722656 28.828125 -27.921875 C 31.398438 -25.128906 32.6875 -21.109375 32.6875 -15.859375 Z M 9.609375 -15.859375 C 9.609375 -12.328125 10.273438 -9.664062 11.609375 -7.875 C 12.953125 -6.082031 14.960938 -5.1875 17.640625 -5.1875 C 22.984375 -5.1875 25.65625 -8.742188 25.65625 -15.859375 C 25.65625 -22.984375 22.992188 -26.546875 17.671875 -26.546875 C 15.003906 -26.546875 12.992188 -25.644531 11.640625 -23.84375 C 10.285156 -22.050781 9.609375 -19.390625 9.609375 -15.859375 Z M 9.609375 -15.859375 "/></g></g></g><g fill="#ffffff" fill-opacity="1"><g transform="translate(558.452227, 327.466896)"><g><path d="M 12.140625 -19.015625 L 14.640625 -19.015625 C 16.984375 -19.015625 18.734375 -19.476562 19.890625 -20.40625 C 21.054688 -21.332031 21.640625 -22.675781 21.640625 -24.4375 C 21.640625 -26.226562 21.148438 -27.546875 20.171875 -28.390625 C 19.203125 -29.242188 17.675781 -29.671875 15.59375 -29.671875 L 12.140625 -29.671875 Z M 29.328125 -24.71875 C 29.328125 -20.851562 28.117188 -17.894531 25.703125 -15.84375 C 23.285156 -13.800781 19.851562 -12.78125 15.40625 -12.78125 L 12.140625 -12.78125 L 12.140625 0 L 4.515625 0 L 4.515625 -35.921875 L 16 -35.921875 C 20.351562 -35.921875 23.660156 -34.984375 25.921875 -33.109375 C 28.191406 -31.234375 29.328125 -28.4375 29.328125 -24.71875 Z M 29.328125 -24.71875 "/></g></g></g><g fill="#ffffff" fill-opacity="1"><g transform="translate(590.041786, 327.466896)"><g><path d="M 26.5 0 L 23.90625 -8.546875 L 10.8125 -8.546875 L 8.203125 0 L 0 0 L 12.671875 -36.0625 L 21.984375 -36.0625 L 34.71875 0 Z M 22.078125 -14.9375 C 19.671875 -22.6875 18.316406 -27.066406 18.015625 -28.078125 C 17.710938 -29.097656 17.5 -29.898438 17.375 -30.484375 C 16.832031 -28.390625 15.28125 -23.207031 12.71875 -14.9375 Z M 22.078125 -14.9375 "/></g></g></g><g fill="#ffffff" fill-opacity="1"><g transform="translate(624.751003, 327.466896)"><g><path d="M 18.15625 -20.171875 L 32.40625 -20.171875 L 32.40625 -1.546875 C 30.09375 -0.796875 27.914062 -0.269531 25.875 0.03125 C 23.84375 0.332031 21.757812 0.484375 19.625 0.484375 C 14.207031 0.484375 10.066406 -1.101562 7.203125 -4.28125 C 4.347656 -7.46875 2.921875 -12.039062 2.921875 -18 C 2.921875 -23.800781 4.578125 -28.320312 7.890625 -31.5625 C 11.210938 -34.8125 15.8125 -36.4375 21.6875 -36.4375 C 25.375 -36.4375 28.929688 -35.695312 32.359375 -34.21875 L 29.828125 -28.125 C 27.203125 -29.4375 24.472656 -30.09375 21.640625 -30.09375 C 18.347656 -30.09375 15.710938 -28.988281 13.734375 -26.78125 C 11.753906 -24.570312 10.765625 -21.597656 10.765625 -17.859375 C 10.765625 -13.960938 11.5625 -10.984375 13.15625 -8.921875 C 14.75 -6.867188 17.070312 -5.84375 20.125 -5.84375 C 21.707031 -5.84375 23.316406 -6.007812 24.953125 -6.34375 L 24.953125 -13.828125 L 18.15625 -13.828125 Z M 18.15625 -20.171875 "/></g></g></g><g fill="#ffffff" fill-opacity="1"><g transform="translate(661.179714, 327.466896)"><g><path d="M 26.5 0 L 23.90625 -8.546875 L 10.8125 -8.546875 L 8.203125 0 L 0 0 L 12.671875 -36.0625 L 21.984375 -36.0625 L 34.71875 0 Z M 22.078125 -14.9375 C 19.671875 -22.6875 18.316406 -27.066406 18.015625 -28.078125 C 17.710938 -29.097656 17.5 -29.898438 17.375 -30.484375 C 16.832031 -28.390625 15.28125 -23.207031 12.71875 -14.9375 Z M 22.078125 -14.9375 "/></g></g></g><g fill="#ffffff" fill-opacity="1"><g transform="translate(782.205765, 296.872982)"><g><path d="M 3.171875 0 L 3.171875 -25.203125 L 8.515625 -25.203125 L 8.515625 -4.421875 L 18.75 -4.421875 L 18.75 0 Z M 3.171875 0 "/></g></g></g><g fill="#ffffff" fill-opacity="1"><g transform="translate(802.15656, 296.872982)"><g><path d="M 18.609375 0 L 16.78125 -6 L 7.59375 -6 L 5.765625 0 L 0 0 L 8.890625 -25.3125 L 15.4375 -25.3125 L 24.359375 0 Z M 15.5 -10.484375 C 13.8125 -15.921875 12.859375 -18.992188 12.640625 -19.703125 C 12.429688 -20.421875 12.28125 -20.984375 12.1875 -21.390625 C 11.8125 -19.921875 10.726562 -16.285156 8.9375 -10.484375 Z M 15.5 -10.484375 "/></g></g></g><g fill="#ffffff" fill-opacity="1"><g transform="translate(826.521705, 296.872982)"><g><path d="M 18.046875 -7 C 18.046875 -4.726562 17.226562 -2.9375 15.59375 -1.625 C 13.957031 -0.3125 11.679688 0.34375 8.765625 0.34375 C 6.066406 0.34375 3.6875 -0.160156 1.625 -1.171875 L 1.625 -6.140625 C 3.320312 -5.378906 4.757812 -4.84375 5.9375 -4.53125 C 7.113281 -4.21875 8.191406 -4.0625 9.171875 -4.0625 C 10.347656 -4.0625 11.25 -4.285156 11.875 -4.734375 C 12.5 -5.191406 12.8125 -5.859375 12.8125 -6.734375 C 12.8125 -7.234375 12.671875 -7.675781 12.390625 -8.0625 C 12.117188 -8.445312 11.710938 -8.816406 11.171875 -9.171875 C 10.640625 -9.523438 9.554688 -10.09375 7.921875 -10.875 C 6.378906 -11.601562 5.222656 -12.300781 4.453125 -12.96875 C 3.679688 -13.632812 3.0625 -14.410156 2.59375 -15.296875 C 2.132812 -16.179688 1.90625 -17.210938 1.90625 -18.390625 C 1.90625 -20.628906 2.660156 -22.382812 4.171875 -23.65625 C 5.691406 -24.9375 7.785156 -25.578125 10.453125 -25.578125 C 11.765625 -25.578125 13.015625 -25.421875 14.203125 -25.109375 C 15.390625 -24.796875 16.632812 -24.359375 17.9375 -23.796875 L 16.203125 -19.640625 C 14.859375 -20.191406 13.742188 -20.578125 12.859375 -20.796875 C 11.984375 -21.015625 11.125 -21.125 10.28125 -21.125 C 9.269531 -21.125 8.492188 -20.882812 7.953125 -20.40625 C 7.410156 -19.9375 7.140625 -19.320312 7.140625 -18.5625 C 7.140625 -18.09375 7.25 -17.679688 7.46875 -17.328125 C 7.6875 -16.984375 8.03125 -16.644531 8.5 -16.3125 C 8.976562 -15.988281 10.109375 -15.398438 11.890625 -14.546875 C 14.253906 -13.421875 15.867188 -12.289062 16.734375 -11.15625 C 17.609375 -10.03125 18.046875 -8.644531 18.046875 -7 Z M 18.046875 -7 "/></g></g></g><g fill="#ffffff" fill-opacity="1"><g transform="translate(845.972431, 296.872982)"><g><path d="M 13.875 -21.125 C 11.863281 -21.125 10.304688 -20.367188 9.203125 -18.859375 C 8.097656 -17.347656 7.546875 -15.238281 7.546875 -12.53125 C 7.546875 -6.914062 9.65625 -4.109375 13.875 -4.109375 C 15.644531 -4.109375 17.789062 -4.550781 20.3125 -5.4375 L 20.3125 -0.953125 C 18.238281 -0.0859375 15.925781 0.34375 13.375 0.34375 C 9.707031 0.34375 6.898438 -0.765625 4.953125 -2.984375 C 3.015625 -5.210938 2.046875 -8.40625 2.046875 -12.5625 C 2.046875 -15.1875 2.523438 -17.484375 3.484375 -19.453125 C 4.441406 -21.429688 5.8125 -22.945312 7.59375 -24 C 9.382812 -25.050781 11.476562 -25.578125 13.875 -25.578125 C 16.320312 -25.578125 18.785156 -24.984375 21.265625 -23.796875 L 19.53125 -19.453125 C 18.59375 -19.898438 17.644531 -20.289062 16.6875 -20.625 C 15.738281 -20.957031 14.800781 -21.125 13.875 -21.125 Z M 13.875 -21.125 "/></g></g></g><g fill="#ffffff" fill-opacity="1"><g transform="translate(868.475273, 296.872982)"><g><path d="M 3.171875 0 L 3.171875 -25.203125 L 8.515625 -25.203125 L 8.515625 0 Z M 3.171875 0 "/></g></g></g><g fill="#ffffff" fill-opacity="1"><g transform="translate(880.166401, 296.872982)"><g><path d="M 18.609375 0 L 16.78125 -6 L 7.59375 -6 L 5.765625 0 L 0 0 L 8.890625 -25.3125 L 15.4375 -25.3125 L 24.359375 0 Z M 15.5 -10.484375 C 13.8125 -15.921875 12.859375 -18.992188 12.640625 -19.703125 C 12.429688 -20.421875 12.28125 -20.984375 12.1875 -21.390625 C 11.8125 -19.921875 10.726562 -16.285156 8.9375 -10.484375 Z M 15.5 -10.484375 "/></g></g></g><g fill="#ffffff" fill-opacity="1"><g transform="translate(904.531546, 296.872982)"><g/></g></g><g fill="#ffffff" fill-opacity="1"><g transform="translate(913.705115, 296.872982)"><g><path d="M 23.6875 -25.203125 L 23.6875 -8.890625 C 23.6875 -7.035156 23.269531 -5.40625 22.4375 -4 C 21.601562 -2.59375 20.398438 -1.515625 18.828125 -0.765625 C 17.253906 -0.0234375 15.394531 0.34375 13.25 0.34375 C 10 0.34375 7.476562 -0.484375 5.6875 -2.140625 C 3.894531 -3.804688 3 -6.082031 3 -8.96875 L 3 -25.203125 L 8.328125 -25.203125 L 8.328125 -9.78125 C 8.328125 -7.832031 8.71875 -6.40625 9.5 -5.5 C 10.28125 -4.59375 11.570312 -4.140625 13.375 -4.140625 C 15.125 -4.140625 16.390625 -4.59375 17.171875 -5.5 C 17.960938 -6.414062 18.359375 -7.851562 18.359375 -9.8125 L 18.359375 -25.203125 Z M 23.6875 -25.203125 "/></g></g></g><g fill="#ffffff" fill-opacity="1"><g transform="translate(940.398134, 296.872982)"><g><path d="M 25.53125 0 L 18.75 0 L 7.78125 -19.0625 L 7.625 -19.0625 C 7.84375 -15.695312 7.953125 -13.296875 7.953125 -11.859375 L 7.953125 0 L 3.171875 0 L 3.171875 -25.203125 L 9.921875 -25.203125 L 20.859375 -6.328125 L 20.984375 -6.328125 C 20.804688 -9.597656 20.71875 -11.914062 20.71875 -13.28125 L 20.71875 -25.203125 L 25.53125 -25.203125 Z M 25.53125 0 "/></g></g></g><g fill="#ffffff" fill-opacity="1"><g transform="translate(969.108654, 296.872982)"><g><path d="M 18.609375 0 L 16.78125 -6 L 7.59375 -6 L 5.765625 0 L 0 0 L 8.890625 -25.3125 L 15.4375 -25.3125 L 24.359375 0 Z M 15.5 -10.484375 C 13.8125 -15.921875 12.859375 -18.992188 12.640625 -19.703125 C 12.429688 -20.421875 12.28125 -20.984375 12.1875 -21.390625 C 11.8125 -19.921875 10.726562 -16.285156 8.9375 -10.484375 Z M 15.5 -10.484375 "/></g></g></g><g fill="#ffffff" fill-opacity="1"><g transform="translate(776.9349, 345.5992)"><g><path d="M 8.515625 -14.015625 L 10.234375 -14.015625 C 11.929688 -14.015625 13.179688 -14.296875 13.984375 -14.859375 C 14.785156 -15.421875 15.1875 -16.304688 15.1875 -17.515625 C 15.1875 -18.710938 14.773438 -19.5625 13.953125 -20.0625 C 13.128906 -20.570312 11.859375 -20.828125 10.140625 -20.828125 L 8.515625 -20.828125 Z M 8.515625 -9.671875 L 8.515625 0 L 3.171875 0 L 3.171875 -25.203125 L 10.515625 -25.203125 C 13.941406 -25.203125 16.476562 -24.578125 18.125 -23.328125 C 19.769531 -22.085938 20.59375 -20.195312 20.59375 -17.65625 C 20.59375 -16.175781 20.179688 -14.859375 19.359375 -13.703125 C 18.546875 -12.546875 17.390625 -11.640625 15.890625 -10.984375 C 19.691406 -5.316406 22.164062 -1.65625 23.3125 0 L 17.375 0 L 11.359375 -9.671875 Z M 8.515625 -9.671875 "/></g></g></g><g fill="#ffffff" fill-opacity="1"><g transform="translate(800.248182, 345.5992)"><g><path d="M 17.6875 0 L 3.171875 0 L 3.171875 -25.203125 L 17.6875 -25.203125 L 17.6875 -20.828125 L 8.515625 -20.828125 L 8.515625 -15.296875 L 17.046875 -15.296875 L 17.046875 -10.921875 L 8.515625 -10.921875 L 8.515625 -4.421875 L 17.6875 -4.421875 Z M 17.6875 0 "/></g></g></g><g fill="#ffffff" fill-opacity="1"><g transform="translate(820.026542, 345.5992)"><g><path d="M 13.875 -21.125 C 11.863281 -21.125 10.304688 -20.367188 9.203125 -18.859375 C 8.097656 -17.347656 7.546875 -15.238281 7.546875 -12.53125 C 7.546875 -6.914062 9.65625 -4.109375 13.875 -4.109375 C 15.644531 -4.109375 17.789062 -4.550781 20.3125 -5.4375 L 20.3125 -0.953125 C 18.238281 -0.0859375 15.925781 0.34375 13.375 0.34375 C 9.707031 0.34375 6.898438 -0.765625 4.953125 -2.984375 C 3.015625 -5.210938 2.046875 -8.40625 2.046875 -12.5625 C 2.046875 -15.1875 2.523438 -17.484375 3.484375 -19.453125 C 4.441406 -21.429688 5.8125 -22.945312 7.59375 -24 C 9.382812 -25.050781 11.476562 -25.578125 13.875 -25.578125 C 16.320312 -25.578125 18.785156 -24.984375 21.265625 -23.796875 L 19.53125 -19.453125 C 18.59375 -19.898438 17.644531 -20.289062 16.6875 -20.625 C 15.738281 -20.957031 14.800781 -21.125 13.875 -21.125 Z M 13.875 -21.125 "/></g></g></g><g fill="#ffffff" fill-opacity="1"><g transform="translate(842.529383, 345.5992)"><g><path d="M 17.6875 0 L 3.171875 0 L 3.171875 -25.203125 L 17.6875 -25.203125 L 17.6875 -20.828125 L 8.515625 -20.828125 L 8.515625 -15.296875 L 17.046875 -15.296875 L 17.046875 -10.921875 L 8.515625 -10.921875 L 8.515625 -4.421875 L 17.6875 -4.421875 Z M 17.6875 0 "/></g></g></g><g fill="#ffffff" fill-opacity="1"><g transform="translate(862.307743, 345.5992)"><g><path d="M 25.53125 0 L 18.75 0 L 7.78125 -19.0625 L 7.625 -19.0625 C 7.84375 -15.695312 7.953125 -13.296875 7.953125 -11.859375 L 7.953125 0 L 3.171875 0 L 3.171875 -25.203125 L 9.921875 -25.203125 L 20.859375 -6.328125 L 20.984375 -6.328125 C 20.804688 -9.597656 20.71875 -11.914062 20.71875 -13.28125 L 20.71875 -25.203125 L 25.53125 -25.203125 Z M 25.53125 0 "/></g></g></g><g fill="#ffffff" fill-opacity="1"><g transform="translate(891.018263, 345.5992)"><g><path d="M 18.046875 -7 C 18.046875 -4.726562 17.226562 -2.9375 15.59375 -1.625 C 13.957031 -0.3125 11.679688 0.34375 8.765625 0.34375 C 6.066406 0.34375 3.6875 -0.160156 1.625 -1.171875 L 1.625 -6.140625 C 3.320312 -5.378906 4.757812 -4.84375 5.9375 -4.53125 C 7.113281 -4.21875 8.191406 -4.0625 9.171875 -4.0625 C 10.347656 -4.0625 11.25 -4.285156 11.875 -4.734375 C 12.5 -5.191406 12.8125 -5.859375 12.8125 -6.734375 C 12.8125 -7.234375 12.671875 -7.675781 12.390625 -8.0625 C 12.117188 -8.445312 11.710938 -8.816406 11.171875 -9.171875 C 10.640625 -9.523438 9.554688 -10.09375 7.921875 -10.875 C 6.378906 -11.601562 5.222656 -12.300781 4.453125 -12.96875 C 3.679688 -13.632812 3.0625 -14.410156 2.59375 -15.296875 C 2.132812 -16.179688 1.90625 -17.210938 1.90625 -18.390625 C 1.90625 -20.628906 2.660156 -22.382812 4.171875 -23.65625 C 5.691406 -24.9375 7.785156 -25.578125 10.453125 -25.578125 C 11.765625 -25.578125 13.015625 -25.421875 14.203125 -25.109375 C 15.390625 -24.796875 16.632812 -24.359375 17.9375 -23.796875 L 16.203125 -19.640625 C 14.859375 -20.191406 13.742188 -20.578125 12.859375 -20.796875 C 11.984375 -21.015625 11.125 -21.125 10.28125 -21.125 C 9.269531 -21.125 8.492188 -20.882812 7.953125 -20.40625 C 7.410156 -19.9375 7.140625 -19.320312 7.140625 -18.5625 C 7.140625 -18.09375 7.25 -17.679688 7.46875 -17.328125 C 7.6875 -16.984375 8.03125 -16.644531 8.5 -16.3125 C 8.976562 -15.988281 10.109375 -15.398438 11.890625 -14.546875 C 14.253906 -13.421875 15.867188 -12.289062 16.734375 -11.15625 C 17.609375 -10.03125 18.046875 -8.644531 18.046875 -7 Z M 18.046875 -7 "/></g></g></g><g fill="#ffffff" fill-opacity="1"><g transform="translate(910.468989, 345.5992)"><g><path d="M 3.171875 0 L 3.171875 -25.203125 L 8.515625 -25.203125 L 8.515625 0 Z M 3.171875 0 "/></g></g></g><g fill="#ffffff" fill-opacity="1"><g transform="translate(922.160118, 345.5992)"><g><path d="M 26.046875 -12.640625 C 26.046875 -8.460938 25.007812 -5.253906 22.9375 -3.015625 C 20.875 -0.773438 17.910156 0.34375 14.046875 0.34375 C 10.191406 0.34375 7.226562 -0.773438 5.15625 -3.015625 C 3.082031 -5.253906 2.046875 -8.472656 2.046875 -12.671875 C 2.046875 -16.867188 3.082031 -20.070312 5.15625 -22.28125 C 7.238281 -24.5 10.21875 -25.609375 14.09375 -25.609375 C 17.957031 -25.609375 20.914062 -24.492188 22.96875 -22.265625 C 25.019531 -20.035156 26.046875 -16.828125 26.046875 -12.640625 Z M 7.65625 -12.640625 C 7.65625 -9.828125 8.1875 -7.707031 9.25 -6.28125 C 10.320312 -4.851562 11.921875 -4.140625 14.046875 -4.140625 C 18.316406 -4.140625 20.453125 -6.972656 20.453125 -12.640625 C 20.453125 -18.316406 18.332031 -21.15625 14.09375 -21.15625 C 11.957031 -21.15625 10.347656 -20.4375 9.265625 -19 C 8.191406 -17.570312 7.65625 -15.453125 7.65625 -12.640625 Z M 7.65625 -12.640625 "/></g></g></g><g fill="#ffffff" fill-opacity="1"><g transform="translate(950.267108, 345.5992)"><g><path d="M 25.53125 0 L 18.75 0 L 7.78125 -19.0625 L 7.625 -19.0625 C 7.84375 -15.695312 7.953125 -13.296875 7.953125 -11.859375 L 7.953125 0 L 3.171875 0 L 3.171875 -25.203125 L 9.921875 -25.203125 L 20.859375 -6.328125 L 20.984375 -6.328125 C 20.804688 -9.597656 20.71875 -11.914062 20.71875 -13.28125 L 20.71875 -25.203125 L 25.53125 -25.203125 Z M 25.53125 0 "/></g></g></g><g fill="#ffffff" fill-opacity="1"><g transform="translate(978.977627, 345.5992)"><g><path d="M 17.6875 0 L 3.171875 0 L 3.171875 -25.203125 L 17.6875 -25.203125 L 17.6875 -20.828125 L 8.515625 -20.828125 L 8.515625 -15.296875 L 17.046875 -15.296875 L 17.046875 -10.921875 L 8.515625 -10.921875 L 8.515625 -4.421875 L 17.6875 -4.421875 Z M 17.6875 0 "/></g></g></g></svg>