<svg xmlns="http://www.w3.org/2000/svg" xmlns:xlink="http://www.w3.org/1999/xlink" width="500" zoomAndPan="magnify" viewBox="0 0 375 374.999991" height="500" preserveAspectRatio="xMidYMid meet" version="1.0"><defs><clipPath id="7b40ab5e62"><path d="M 50.15625 15 L 319 15 L 319 375 L 50.15625 375 Z M 50.15625 15 " clip-rule="nonzero"/></clipPath></defs><g clip-path="url(#7b40ab5e62)"><path fill="#66bc46" d="M 282.417969 199.015625 C 281.605469 198.289062 279.429688 196.347656 279.507812 195.3125 C 282.859375 191.109375 286.695312 187.410156 291.023438 184.222656 C 293.414062 182.222656 295.535156 180.480469 296.785156 179.234375 C 300.398438 175.886719 303.519531 172.128906 306.148438 167.964844 C 308.773438 163.796875 310.816406 159.363281 312.277344 154.65625 C 324.488281 115.457031 318.28125 83.261719 293.378906 56.308594 C 265.242188 25.835938 180.789062 0.105469 129.882812 25.976562 C 103.859375 39.203125 72.417969 63.757812 60.894531 88.824219 C 57.917969 95.296875 56.636719 98.980469 62.355469 105.660156 C 70.257812 114.757812 78.980469 122.984375 88.519531 130.347656 C 93.863281 135.222656 99.773438 139.273438 106.25 142.5 C 112.726562 145.726562 119.519531 148.003906 126.632812 149.332031 C 127.878906 149.5 129.125 149.5 130.371094 149.332031 C 131.417969 149.027344 132.421875 148.621094 133.386719 148.105469 C 134.347656 147.59375 135.25 146.984375 136.085938 146.28125 C 136.921875 145.582031 137.675781 144.800781 138.351562 143.941406 C 139.023438 143.082031 139.601562 142.164062 140.085938 141.183594 C 140.679688 140.246094 141.324219 139.347656 142.027344 138.484375 C 145.125 134.757812 148.582031 131.398438 152.390625 128.402344 C 156.113281 125.425781 160.1875 123.050781 164.609375 121.273438 C 169.035156 119.496094 173.617188 118.390625 178.363281 117.957031 C 179.957031 117.847656 181.546875 117.871094 183.132812 118.035156 C 184.71875 118.195312 186.28125 118.492188 187.816406 118.921875 C 189.355469 119.351562 190.84375 119.90625 192.285156 120.589844 C 193.726562 121.273438 195.097656 122.078125 196.402344 122.996094 C 197.703125 123.917969 198.917969 124.941406 200.046875 126.066406 C 201.175781 127.195312 202.199219 128.410156 203.121094 129.714844 C 204.039062 131.019531 204.839844 132.390625 205.527344 133.832031 C 206.210938 135.269531 206.769531 136.761719 207.199219 138.296875 C 207.398438 138.945312 207.566406 139.601562 207.707031 140.265625 C 207.847656 140.929688 207.957031 141.601562 208.035156 142.273438 C 208.113281 142.949219 208.160156 143.625 208.175781 144.304688 C 208.191406 144.984375 208.175781 145.660156 208.132812 146.339844 C 208.085938 147.015625 208.007812 147.691406 207.902344 148.359375 C 207.792969 149.03125 207.65625 149.695312 207.488281 150.351562 C 207.320312 151.011719 207.121094 151.660156 206.894531 152.296875 C 206.664062 152.9375 206.410156 153.566406 206.125 154.183594 C 205.839844 154.796875 205.523438 155.398438 205.183594 155.988281 C 204.84375 156.574219 204.476562 157.144531 204.085938 157.699219 C 203.691406 158.253906 203.273438 158.789062 202.832031 159.304688 C 202.390625 159.820312 201.925781 160.3125 201.4375 160.785156 C 200.953125 161.257812 200.445312 161.707031 199.914062 162.136719 C 199.386719 162.5625 198.839844 162.960938 198.273438 163.339844 C 197.710938 163.714844 197.128906 164.066406 196.53125 164.386719 C 195.933594 164.710938 195.324219 165.007812 194.699219 165.273438 C 191.753906 166.65625 188.699219 167.753906 185.546875 168.554688 C 181.484375 169.582031 177.601562 171.058594 173.886719 172.992188 C 165.648438 177.617188 164.484375 188.242188 164.324219 195.828125 C 164.160156 204.054688 163.9375 214.289062 174.382812 219.929688 C 181.996094 223.894531 189.203125 228.496094 196.007812 233.734375 C 197.351562 234.960938 198.53125 236.335938 199.535156 237.855469 C 200.542969 239.375 201.351562 240.992188 201.957031 242.710938 C 202.5625 244.429688 202.953125 246.195312 203.125 248.007812 C 203.292969 249.824219 203.242188 251.628906 202.96875 253.433594 C 202.796875 255.011719 202.441406 256.546875 201.894531 258.039062 C 201.347656 259.53125 200.628906 260.933594 199.738281 262.25 C 198.84375 263.566406 197.808594 264.753906 196.625 265.8125 C 195.441406 266.875 194.148438 267.777344 192.746094 268.519531 C 172.667969 278.066406 151.847656 255.171875 142.699219 237.417969 C 141.550781 234.613281 139.714844 232.367188 137.195312 230.683594 C 135.851562 230.023438 134.4375 229.59375 132.953125 229.398438 C 131.464844 229.203125 129.988281 229.253906 128.519531 229.550781 C 116.785156 231.65625 105.664062 235.523438 95.15625 241.15625 L 71.628906 252.277344 C 68.105469 253.648438 64.824219 255.460938 61.785156 257.71875 C 58.75 259.972656 56.066406 262.589844 53.734375 265.570312 C 52.171875 267.945312 51.210938 270.542969 50.851562 273.363281 C 50.804688 275.152344 50.914062 276.929688 51.183594 278.695312 C 51.453125 280.464844 51.875 282.195312 52.449219 283.886719 C 53.027344 285.578125 53.75 287.207031 54.613281 288.773438 C 55.480469 290.335938 56.476562 291.8125 57.605469 293.199219 C 77.34375 323.835938 97.746094 355.515625 137.476562 365.933594 C 157.066406 371.171875 177 373.894531 197.273438 374.097656 C 204.621094 374.371094 211.9375 374.023438 219.226562 373.054688 C 226.515625 372.085938 233.667969 370.511719 240.691406 368.332031 C 247.710938 366.152344 254.5 363.398438 261.050781 360.066406 C 267.605469 356.738281 273.835938 352.882812 279.734375 348.496094 C 309.542969 324.769531 320.105469 264.421875 307.519531 233.472656 C 304.746094 226.824219 301.238281 220.589844 297 214.765625 C 292.757812 208.945312 287.894531 203.695312 282.417969 199.015625 Z M 294.882812 316.160156 L 282.917969 326.683594 C 271.542969 333.277344 260.328125 340.132812 249.269531 347.25 C 257.855469 339.910156 266.65625 332.78125 275.824219 326.144531 C 282.417969 321.371094 289.203125 316.898438 296.175781 312.730469 C 296.242188 312.730469 296.324219 312.730469 296.398438 312.730469 C 295.921875 313.914062 295.390625 315.019531 294.882812 316.160156 Z M 188.941406 366.871094 L 203.128906 354.863281 C 211.40625 348.632812 219.785156 342.535156 228.269531 336.558594 L 235.457031 332.714844 C 222.164062 343.730469 209.152344 355.09375 196.222656 366.398438 C 195.953125 366.625 195.695312 366.867188 195.433594 367.097656 C 193.246094 367.058594 191.089844 366.992188 188.941406 366.878906 Z M 113.375 294.929688 L 84.109375 319.398438 C 83.582031 318.730469 83.046875 318.0625 82.527344 317.394531 C 92.628906 309.609375 102.878906 302.113281 113.375 294.929688 Z M 78.070312 289.15625 C 84.003906 284.300781 90.007812 279.53125 96.085938 274.851562 L 96.183594 274.785156 L 94.796875 276.117188 C 92.0625 278.246094 89.304688 280.355469 86.578125 282.492188 C 83.714844 284.691406 80.898438 286.921875 78.070312 289.15625 Z M 157.566406 267.363281 L 157.695312 267.464844 C 155.296875 268.925781 152.894531 270.378906 150.535156 271.875 L 152.457031 270.265625 C 154.136719 269.285156 155.863281 268.324219 157.566406 267.363281 Z M 141.992188 284.804688 C 148.820312 280.203125 155.839844 275.710938 162.976562 271.40625 C 163.144531 271.515625 163.304688 271.640625 163.472656 271.75 C 139.640625 289.019531 116.03125 306.59375 92.640625 324.460938 L 102.738281 314.453125 C 115.3125 303.894531 128.398438 294.011719 141.992188 284.804688 Z M 172.152344 276.039062 C 172.195312 276.253906 172.25 276.464844 172.328125 276.671875 C 164.441406 280.941406 156.632812 285.363281 148.90625 289.929688 C 155.757812 284.898438 162.617188 279.894531 169.484375 274.910156 C 170.390625 275.3125 171.265625 275.726562 172.152344 276.039062 Z M 194.453125 223.925781 L 194.960938 223.570312 C 198.214844 221.863281 201.488281 220.1875 204.773438 218.539062 L 199.976562 222.542969 L 196.269531 225.214844 C 195.6875 224.773438 195.074219 224.347656 194.460938 223.925781 Z M 177.359375 184.203125 L 177.03125 184.417969 C 175.515625 185.039062 174 185.679688 172.492188 186.3125 C 174.113281 185.578125 175.730469 184.863281 177.359375 184.203125 Z M 171.351562 196.300781 C 175.648438 195.039062 179.917969 193.703125 184.15625 192.296875 L 171.546875 204.046875 C 171.300781 201.46875 171.226562 198.886719 171.324219 196.300781 Z M 134.292969 137.296875 C 133.960938 137.796875 133.625 138.308594 133.25 138.816406 L 128.582031 142.398438 C 128.207031 142.398438 127.859375 142.398438 127.460938 142.398438 C 125.285156 142.128906 123.144531 141.683594 121.039062 141.066406 C 125.464844 138.082031 129.890625 135.09375 134.332031 132.144531 C 134.785156 132.453125 135.285156 132.621094 135.828125 132.652344 C 136.375 132.683594 136.890625 132.570312 137.375 132.316406 L 139.035156 131.503906 C 138.269531 132.335938 137.496094 133.078125 136.734375 133.980469 C 135.851562 135.039062 135.027344 136.144531 134.265625 137.296875 Z M 243.25 33.957031 C 236.96875 36.144531 230.691406 38.347656 224.464844 40.710938 C 228.789062 38.128906 233.09375 35.507812 237.378906 32.84375 C 237.675781 32.644531 237.933594 32.402344 238.144531 32.113281 C 239.875 32.695312 241.546875 33.363281 243.25 33.957031 Z M 276.953125 51.304688 L 218.566406 78.097656 C 204.898438 83.996094 191.289062 90.050781 177.738281 96.257812 L 175.542969 97.152344 C 176.628906 96.171875 177.726562 95.203125 178.800781 94.195312 C 179.058594 93.929688 179.265625 93.625 179.414062 93.285156 C 179.5625 92.941406 179.648438 92.585938 179.667969 92.210938 C 179.6875 91.839844 179.640625 91.476562 179.527344 91.121094 C 179.414062 90.765625 179.242188 90.441406 179.011719 90.148438 C 191.789062 84.636719 204.507812 78.953125 217.171875 73.097656 C 236.777344 65.089844 256.582031 57.609375 276.707031 51.140625 Z M 130.648438 112.894531 C 141.140625 108.566406 151.699219 104.425781 162.332031 100.476562 C 160.453125 102.019531 158.5625 103.539062 156.652344 105.035156 C 149.5 108.039062 142.355469 111.078125 135.21875 114.140625 C 134.734375 114.351562 134.320312 114.664062 133.984375 115.074219 C 133.972656 114.882812 133.9375 114.695312 133.878906 114.511719 C 133.820312 114.328125 133.742188 114.152344 133.644531 113.984375 C 133.546875 113.820312 133.433594 113.667969 133.296875 113.527344 C 133.164062 113.386719 133.019531 113.265625 132.855469 113.160156 C 132.695312 113.054688 132.523438 112.96875 132.34375 112.902344 C 132.160156 112.835938 131.976562 112.792969 131.785156 112.769531 C 131.59375 112.746094 131.402344 112.746094 131.210938 112.765625 C 131.019531 112.785156 130.832031 112.828125 130.648438 112.894531 Z M 133.625 119.003906 C 132.542969 119.511719 131.464844 120.011719 130.390625 120.527344 L 132.769531 118.632812 C 132.972656 118.472656 133.152344 118.289062 133.304688 118.085938 C 133.371094 118.40625 133.476562 118.714844 133.625 119.003906 Z M 152.136719 61.527344 C 156.5 59.53125 160.871094 57.546875 165.246094 55.574219 C 156.96875 59.660156 148.640625 63.640625 140.265625 67.519531 L 137.113281 68.726562 L 137.074219 68.496094 C 142.078125 66.148438 147.101562 63.828125 152.136719 61.527344 Z M 134 63.148438 C 129.484375 65.265625 124.976562 67.402344 120.472656 69.554688 C 120.546875 69.15625 120.546875 68.753906 120.472656 68.355469 C 128.316406 64.898438 136.117188 61.355469 143.875 57.730469 C 140.574219 59.554688 137.273438 61.359375 133.980469 63.148438 Z M 165.734375 64.558594 C 166 64.414062 166.238281 64.230469 166.445312 64.007812 C 166.652344 63.789062 166.820312 63.539062 166.949219 63.265625 C 167.074219 62.988281 167.15625 62.699219 167.1875 62.398438 C 167.222656 62.097656 167.207031 61.796875 167.140625 61.5 C 184.046875 53.183594 200.757812 44.4375 217.28125 35.265625 C 219.339844 34.820312 221.417969 34.425781 223.519531 34.082031 C 207.703125 43.589844 191.605469 52.542969 175.222656 60.949219 C 169.578125 63.417969 163.945312 65.921875 158.328125 68.46875 C 160.808594 67.160156 163.246094 65.851562 165.714844 64.558594 Z M 141.867188 83.828125 L 141.339844 84.128906 L 139.917969 84.707031 Z M 162.269531 79.765625 C 187.386719 66.5625 213.257812 55.058594 239.878906 45.246094 C 237.027344 46.742188 234.171875 48.21875 231.3125 49.675781 C 207.886719 58.734375 184.867188 68.761719 162.25 79.765625 Z M 180.40625 82.074219 L 178.332031 82.980469 L 178.332031 82.792969 C 179.011719 82.535156 179.714844 82.300781 180.40625 82.074219 Z M 209.765625 25.054688 L 209.988281 24.910156 L 210.132812 24.910156 Z M 117.097656 57.523438 C 125.105469 52.316406 133.082031 47.089844 141.03125 41.84375 C 158.289062 35.171875 175.667969 28.84375 193.117188 22.726562 C 193.558594 22.726562 194 22.773438 194.453125 22.8125 C 168.242188 33.40625 142.457031 44.976562 117.097656 57.523438 Z M 164.519531 26.375 C 167.035156 25.089844 169.542969 23.773438 172.054688 22.472656 C 173.308594 22.394531 174.5625 22.332031 175.824219 22.285156 C 172.054688 23.648438 168.277344 24.988281 164.519531 26.375 Z M 142.417969 28.964844 C 144.707031 28.011719 147.011719 27.105469 149.304688 26.164062 C 150.640625 25.804688 151.976562 25.390625 153.308594 25.074219 C 139.074219 32.25 124.730469 39.214844 110.277344 45.96875 L 111.472656 45.140625 C 121.921875 40.035156 132.277344 34.699219 142.421875 28.964844 Z M 97.585938 102.863281 C 93.824219 104.558594 90.070312 106.277344 86.324219 108.015625 C 94.074219 103.613281 101.835938 99.25 109.617188 94.925781 C 105.609375 97.566406 101.597656 100.214844 97.585938 102.863281 Z M 104.257812 106.601562 C 100.253906 108.976562 96.269531 111.363281 92.296875 113.761719 L 100.695312 108.203125 Z M 97.144531 92.480469 L 103.285156 89.113281 L 104.300781 88.683594 C 104.527344 88.890625 104.789062 89.042969 105.078125 89.140625 C 102.429688 90.238281 99.789062 91.359375 97.144531 92.480469 Z M 105.488281 57.71875 C 105.496094 57.167969 105.394531 56.640625 105.171875 56.136719 C 107.628906 55.121094 110.097656 54.136719 112.558594 53.121094 Z M 87.332031 69.460938 L 77.402344 75.859375 C 77.769531 75.394531 78.117188 74.921875 78.503906 74.460938 C 81.40625 72.792969 84.375 71.109375 87.332031 69.460938 Z M 134.1875 103.324219 C 131.515625 104.910156 128.828125 106.496094 126.125 108.082031 C 114.386719 112.96875 102.769531 118.144531 91.246094 123.523438 L 91 123.324219 C 105.261719 116.355469 119.65625 109.691406 134.1875 103.324219 Z M 113.128906 126.40625 C 110.324219 128.628906 107.53125 130.863281 104.746094 133.113281 L 104.445312 133.265625 C 103.503906 132.664062 102.589844 132.03125 101.675781 131.398438 C 105.480469 129.703125 109.285156 128.007812 113.128906 126.40625 Z M 278.246094 66.472656 C 282.0625 65.183594 285.90625 63.996094 289.75 62.800781 C 290.296875 63.421875 290.851562 64.050781 291.378906 64.675781 C 281.464844 69.984375 271.566406 75.339844 261.691406 80.738281 C 240.816406 89.394531 220.179688 98.625 199.785156 108.421875 C 196.929688 109.796875 194.097656 111.210938 191.269531 112.621094 C 187.980469 111.574219 184.613281 111.046875 181.160156 111.039062 C 213.308594 95.691406 245.671875 80.835938 278.246094 66.472656 Z M 219.148438 112.179688 C 219.539062 111.9375 219.851562 111.617188 220.082031 111.21875 C 221.683594 110.296875 223.273438 109.363281 224.875 108.449219 C 230.820312 105.054688 236.777344 101.683594 242.742188 98.335938 C 261.238281 90.117188 279.8125 82.089844 298.457031 74.253906 C 299.667969 76.121094 300.792969 78.007812 301.828125 79.9375 C 269.445312 93.28125 237.296875 107.199219 205.382812 121.679688 C 205.210938 121.5 204.996094 121.347656 204.820312 121.167969 C 209.601562 118.160156 214.382812 115.164062 219.167969 112.179688 Z M 289.878906 176.023438 C 268.832031 187.695312 247.789062 199.367188 226.75 211.039062 L 244.285156 198.5625 C 244.757812 198.207031 245.113281 197.753906 245.347656 197.210938 C 245.582031 196.664062 245.667969 196.097656 245.605469 195.507812 C 252.078125 192.183594 258.527344 188.808594 264.957031 185.378906 C 274.777344 180.71875 284.609375 176.089844 294.449219 171.484375 C 293.59375 172.414062 292.828125 173.335938 291.867188 174.289062 C 291.351562 174.753906 290.652344 175.371094 289.898438 176.023438 Z M 268.699219 261.851562 C 264.601562 263.597656 260.539062 265.398438 256.507812 267.257812 C 265.503906 260.648438 274.507812 254.042969 283.519531 247.445312 L 301.246094 236.769531 C 301.460938 237.324219 301.640625 237.945312 301.839844 238.523438 Z M 303.601562 244.816406 C 303.683594 245.183594 303.777344 245.523438 303.851562 245.898438 C 300.125 248.113281 296.410156 250.34375 292.667969 252.523438 Z M 276.632812 286.703125 C 276.085938 286.433594 275.511719 286.3125 274.90625 286.339844 L 285.960938 280.140625 L 281.0625 283.777344 Z M 279.921875 295.84375 C 272.472656 300.238281 265.097656 304.757812 257.800781 309.410156 C 263.058594 305.246094 268.351562 301.125 273.667969 297.050781 C 275.75 296.695312 277.839844 296.304688 279.902344 295.84375 Z M 241.761719 297.4375 C 250.105469 290.714844 258.460938 284.003906 266.824219 277.300781 L 269.40625 276.03125 C 275.699219 274.125 281.878906 271.949219 287.960938 269.554688 C 272.410156 278.640625 257.035156 288.023438 241.742188 297.4375 Z M 276.066406 236.683594 L 280.414062 233.882812 L 276.859375 236.371094 Z M 264.367188 236.871094 C 264.222656 236.597656 264.03125 236.359375 263.796875 236.160156 C 263.558594 235.960938 263.292969 235.816406 262.996094 235.71875 C 262.703125 235.625 262.402344 235.585938 262.09375 235.605469 C 261.785156 235.628906 261.492188 235.707031 261.210938 235.84375 C 255.386719 238.179688 249.59375 240.605469 243.832031 243.082031 C 258.648438 233.90625 273.191406 224.234375 287.824219 214.664062 C 289.15625 216.207031 290.492188 217.726562 291.652344 219.335938 Z M 264.328125 217.761719 C 261.378906 219.292969 258.425781 220.824219 255.46875 222.351562 C 255.496094 221.585938 255.292969 220.890625 254.859375 220.261719 C 262.386719 214.738281 270.066406 209.445312 277.847656 204.308594 C 279.109375 205.429688 280.1875 206.605469 281.363281 207.75 C 275.675781 211.082031 269.988281 214.417969 264.308594 217.761719 Z M 216.285156 170.117188 C 217.148438 169.601562 218.003906 169.082031 218.855469 168.5625 L 261.246094 149.300781 C 257.40625 151.78125 253.554688 154.238281 249.695312 156.671875 C 245.425781 159.089844 241.171875 161.535156 236.929688 164.011719 C 230 165.878906 223.117188 167.925781 216.277344 170.152344 Z M 231.578125 179.246094 L 228.875 181.316406 L 228.148438 181.5625 L 229.757812 180.035156 Z M 259.0625 178.25 C 253.914062 181.015625 248.757812 183.773438 243.601562 186.53125 C 243.46875 186.277344 243.296875 186.050781 243.085938 185.855469 C 242.871094 185.660156 242.632812 185.507812 242.363281 185.398438 C 242.097656 185.289062 241.820312 185.226562 241.53125 185.214844 C 241.246094 185.199219 240.960938 185.238281 240.6875 185.324219 C 251.8125 177.1875 263.746094 170.5 276.492188 165.261719 C 286.226562 160.535156 296.054688 156.019531 305.910156 151.554688 C 305.851562 151.75 305.804688 151.941406 305.746094 152.136719 C 289.964844 160.402344 274.410156 169.164062 259.058594 178.25 Z M 295.851562 139.550781 L 300.152344 137.042969 L 297.21875 138.898438 Z M 311.238281 115.4375 C 305.269531 119.671875 299.277344 123.867188 293.253906 128.019531 L 272.035156 137.664062 C 267.015625 139.816406 262.007812 141.996094 257.007812 144.203125 C 264.042969 139.445312 271 134.585938 277.878906 129.613281 C 281.730469 127.375 285.574219 125.117188 289.4375 122.894531 C 296.675781 120.039062 303.9375 117.242188 311.222656 114.5 C 311.238281 114.769531 311.230469 115.101562 311.238281 115.4375 Z M 215.023438 146.625 C 215.09375 145.21875 215.070312 143.816406 214.949219 142.414062 C 230.414062 136.996094 245.84375 131.492188 261.246094 125.90625 Z M 308.175781 98.933594 L 217.707031 133.453125 C 228.441406 128.113281 239.105469 122.667969 249.808594 117.277344 C 268.996094 109.222656 288.304688 101.480469 307.738281 94.058594 C 308.175781 95.457031 308.574219 96.878906 308.929688 98.308594 Z M 243.761719 112.347656 C 232.765625 117.238281 221.785156 122.183594 210.8125 127.179688 L 209.917969 127.59375 C 209.875 127.519531 209.839844 127.441406 209.792969 127.375 C 221.097656 122.3125 232.417969 117.300781 243.761719 112.347656 Z M 213.523438 154.5625 C 225.535156 149.351562 237.578125 144.15625 249.660156 139.089844 C 237.746094 146.207031 225.890625 153.457031 214.105469 160.835938 C 213.390625 160.445312 212.652344 160.390625 211.886719 160.675781 C 211.222656 160.882812 210.554688 161.109375 209.886719 161.34375 C 211.417969 159.253906 212.628906 156.996094 213.523438 154.5625 Z M 207.664062 206.675781 C 207.585938 206.921875 207.546875 207.171875 207.542969 207.429688 C 206.683594 207.8125 205.835938 208.203125 204.980469 208.59375 Z M 198.644531 187.207031 L 199.691406 186.8125 L 199.363281 187.011719 C 199.160156 187.144531 198.976562 187.292969 198.808594 187.46875 C 198.640625 187.640625 198.492188 187.832031 198.371094 188.035156 C 198.246094 188.242188 198.148438 188.460938 198.074219 188.691406 C 198 188.921875 197.953125 189.15625 197.933594 189.394531 C 197.914062 189.636719 197.921875 189.875 197.957031 190.113281 C 197.996094 190.351562 198.058594 190.582031 198.144531 190.808594 C 198.234375 191.03125 198.347656 191.242188 198.488281 191.441406 C 198.625 191.636719 198.785156 191.816406 198.964844 191.976562 C 195.675781 193.3125 192.410156 194.667969 189.160156 196.046875 Z M 213.988281 226.789062 C 223.183594 222.886719 232.355469 218.914062 241.5 214.871094 C 233.65625 220.210938 225.902344 225.679688 218.242188 231.277344 C 214.371094 232.820312 210.546875 234.46875 206.730469 236.109375 C 205.933594 234.617188 205 233.21875 203.929688 231.914062 C 207.289062 230.203125 210.632812 228.464844 214.003906 226.789062 Z M 214.765625 279.730469 L 199.148438 290.636719 L 207.335938 282.71875 C 215.429688 276.636719 223.554688 270.601562 231.71875 264.613281 C 232.023438 264.609375 232.316406 264.558594 232.605469 264.46875 C 234.46875 263.847656 236.324219 263.207031 238.171875 262.558594 C 230.203125 267.972656 222.398438 273.730469 214.777344 279.730469 Z M 233.875 306.699219 C 229.671875 309.046875 225.5 311.449219 221.355469 313.90625 C 225.230469 310.792969 229.105469 307.65625 232.980469 304.503906 C 233.011719 305.347656 233.3125 306.082031 233.886719 306.699219 Z M 176.230469 298.171875 C 181.230469 294.5 186.242188 290.851562 191.261719 287.214844 C 185.714844 291.433594 180.183594 295.671875 174.660156 299.933594 Z M 164.605469 294.875 C 169.25 291.246094 173.898438 287.621094 178.550781 284 L 185.363281 278.660156 L 179.359375 285.441406 C 174.398438 288.527344 169.484375 291.671875 164.621094 294.875 Z M 195.96875 293.707031 C 195.867188 294.066406 195.828125 294.429688 195.855469 294.800781 L 191.25 298.273438 Z M 192.25 315.058594 L 196.027344 312.210938 C 197.914062 311.078125 199.804688 309.949219 201.699219 308.835938 C 197.429688 311.921875 193.183594 315.050781 188.96875 318.214844 C 190.074219 317.175781 191.164062 316.121094 192.265625 315.074219 Z M 217.1875 240.996094 C 220.148438 238.925781 223.125 236.882812 226.085938 234.828125 L 226.242188 234.773438 C 224.003906 236.636719 221.796875 238.53125 219.570312 240.433594 C 218.792969 240.621094 218 240.8125 217.199219 241.007812 Z M 210.132812 250.15625 C 210.132812 249.890625 210.132812 249.628906 210.09375 249.363281 C 210.71875 249.167969 211.339844 248.960938 211.96875 248.78125 L 211.46875 249.339844 Z M 203.660156 268.640625 C 207.109375 266.898438 210.566406 265.15625 214.042969 263.460938 C 209.875 266.382812 205.714844 269.320312 201.558594 272.273438 C 200.003906 273.15625 198.441406 274.050781 196.886719 274.945312 L 198.222656 273.429688 C 200.28125 272.113281 202.097656 270.519531 203.675781 268.652344 Z M 164.472656 315.613281 L 138.363281 340.863281 L 137.921875 341.238281 L 151.996094 325.414062 C 156.144531 322.140625 160.304688 318.875 164.472656 315.613281 Z M 149.21875 299.125 L 100.289062 337.28125 C 99.242188 336.3125 98.214844 335.316406 97.199219 334.308594 C 114.101562 321.894531 131.398438 310.09375 149.21875 299.125 Z M 151.933594 316.28125 C 150.519531 317.882812 149.101562 319.480469 147.679688 321.070312 C 136.410156 329.96875 125.214844 338.976562 114.09375 348.097656 C 113.535156 347.734375 113 347.335938 112.441406 346.953125 C 125.503906 336.582031 138.667969 326.355469 151.933594 316.28125 Z M 123.441406 348.308594 L 120.375 351.753906 L 119.707031 351.371094 C 120.914062 350.351562 122.160156 349.324219 123.441406 348.308594 Z M 146.796875 360.988281 C 148.453125 359.207031 150.132812 357.425781 151.773438 355.648438 C 171.734375 338.96875 192.164062 322.953125 213.390625 308.058594 C 191.238281 325.507812 169.261719 343.203125 147.464844 361.15625 Z M 176.710938 350.566406 C 187.460938 342.832031 198.433594 335.410156 209.625 328.292969 C 224.515625 318.859375 239.804688 310.167969 255.5 302.207031 L 245.109375 311.070312 C 244.886719 310.804688 244.625 310.585938 244.324219 310.410156 C 244.023438 310.234375 243.703125 310.113281 243.363281 310.050781 C 243.019531 309.984375 242.679688 309.980469 242.335938 310.03125 C 241.992188 310.082031 241.667969 310.191406 241.359375 310.355469 C 214.027344 325.960938 188.386719 343.976562 164.441406 364.402344 L 162.558594 364.109375 C 167.261719 359.574219 171.972656 355.054688 176.738281 350.585938 Z M 209.40625 337.488281 L 200.21875 345.375 C 193.34375 349.925781 186.558594 354.59375 179.851562 359.386719 C 183.242188 356.679688 186.664062 354.011719 190.121094 351.378906 C 196.453125 346.621094 202.894531 341.996094 209.445312 337.507812 Z M 256.78125 349.644531 L 254.632812 351.539062 C 249.761719 354.589844 245.050781 357.898438 240.292969 361.132812 C 239.820312 361.273438 239.339844 361.375 238.867188 361.515625 C 244.832031 357.539062 250.75 353.5 256.792969 349.644531 Z M 281.195312 314.445312 L 299.285156 298.511719 L 301.367188 297.398438 C 301.0625 298.605469 300.699219 299.800781 300.359375 301 C 293.960938 305.457031 287.550781 309.910156 281.210938 314.464844 Z M 286.054688 287.835938 L 305.105469 275.277344 C 304.9375 277.21875 304.699219 279.179688 304.4375 281.144531 C 298.449219 283.753906 292.328125 285.992188 286.066406 287.855469 Z M 173.753906 210.394531 L 174.875 209.347656 C 182.136719 206.035156 189.460938 202.875 196.847656 199.863281 C 190.628906 204.648438 184.304688 209.300781 177.957031 213.917969 L 177.710938 213.777344 C 176.128906 212.960938 174.808594 211.832031 173.753906 210.394531 Z M 133.71875 236.789062 C 134.035156 236.980469 134.308594 237.214844 134.546875 237.496094 L 133.523438 238.070312 C 110.667969 251.308594 89.125 266.410156 68.886719 283.386719 C 66.886719 285.058594 64.882812 286.773438 62.882812 288.476562 C 62.042969 287.140625 61.261719 285.808594 60.546875 284.472656 C 80.765625 267.433594 102.011719 251.792969 124.285156 237.542969 C 125.984375 237.15625 127.679688 236.71875 129.410156 236.496094 C 130.882812 236.179688 132.328125 236.277344 133.746094 236.789062 Z M 74.621094 258.617188 L 76.96875 257.503906 C 73.039062 260.171875 69.054688 262.707031 65.179688 265.429688 C 63.289062 266.765625 61.441406 268.097656 59.574219 269.464844 L 59.613281 269.394531 C 61.605469 266.980469 63.875 264.859375 66.417969 263.035156 C 68.960938 261.207031 71.695312 259.734375 74.621094 258.617188 Z M 74.621094 258.617188 " fill-opacity="1" fill-rule="nonzero"/></g></svg>